ISO-10303-21;
HEADER;
/* Generated by software containing ST-Developer
 * from STEP Tools, Inc. (www.steptools.com)
 */

FILE_DESCRIPTION(
/* description */ (''),
/* implementation_level */ '2;1');

FILE_NAME(
/* name */ 'ACHR-02V-S_drawing_model.step',
/* time_stamp */ '2026-10-01T13:23:25+02:00',
/* author */ (''),
/* organization */ (''),
/* preprocessor_version */ 'ST-DEVELOPER v20.2',
/* originating_system */ 'Autodesk Translation Framework v15.15.0.0',
/* authorisation */ '');

FILE_SCHEMA (('AUTOMOTIVE_DESIGN { 1 0 10303 214 3 1 1 }'));
ENDSEC;

DATA;
#10=MECHANICAL_DESIGN_GEOMETRIC_PRESENTATION_REPRESENTATION('',(#13,#14,
#15),#1707);
#11=SHAPE_REPRESENTATION_RELATIONSHIP('SRR','None',#1714,#12);
#12=ADVANCED_BREP_SHAPE_REPRESENTATION('',(#16,#17,#18),#1706);
#13=STYLED_ITEM('',(#1724),#16);
#14=STYLED_ITEM('',(#1725),#17);
#15=STYLED_ITEM('',(#1725),#18);
#16=MANIFOLD_SOLID_BREP('Cable housing - 2.6 x 3.5 x 1.2 mm plus grip',
#1063);
#17=MANIFOLD_SOLID_BREP('SACH-003G-P0.2 contact 1 - simplified',#1064);
#18=MANIFOLD_SOLID_BREP('SACH-003G-P0.2 contact 2 - simplified',#1065);
#19=FACE_BOUND('',#115,.T.);
#20=FACE_BOUND('',#116,.T.);
#21=FACE_BOUND('',#119,.T.);
#22=FACE_BOUND('',#120,.T.);
#23=CYLINDRICAL_SURFACE('',#1084,0.315);
#24=CYLINDRICAL_SURFACE('',#1101,0.315);
#25=CIRCLE('',#1081,0.315);
#26=CIRCLE('',#1085,0.315);
#27=CIRCLE('',#1086,0.315);
#28=CIRCLE('',#1087,0.315);
#29=CIRCLE('',#1088,0.315);
#30=CIRCLE('',#1098,0.315);
#31=CIRCLE('',#1102,0.315);
#32=CIRCLE('',#1103,0.315);
#33=CIRCLE('',#1104,0.315);
#34=CIRCLE('',#1105,0.315);
#35=FACE_OUTER_BOUND('',#87,.T.);
#36=FACE_OUTER_BOUND('',#88,.T.);
#37=FACE_OUTER_BOUND('',#89,.T.);
#38=FACE_OUTER_BOUND('',#90,.T.);
#39=FACE_OUTER_BOUND('',#91,.T.);
#40=FACE_OUTER_BOUND('',#92,.T.);
#41=FACE_OUTER_BOUND('',#93,.T.);
#42=FACE_OUTER_BOUND('',#94,.T.);
#43=FACE_OUTER_BOUND('',#95,.T.);
#44=FACE_OUTER_BOUND('',#96,.T.);
#45=FACE_OUTER_BOUND('',#97,.T.);
#46=FACE_OUTER_BOUND('',#98,.T.);
#47=FACE_OUTER_BOUND('',#99,.T.);
#48=FACE_OUTER_BOUND('',#100,.T.);
#49=FACE_OUTER_BOUND('',#101,.T.);
#50=FACE_OUTER_BOUND('',#102,.T.);
#51=FACE_OUTER_BOUND('',#103,.T.);
#52=FACE_OUTER_BOUND('',#104,.T.);
#53=FACE_OUTER_BOUND('',#105,.T.);
#54=FACE_OUTER_BOUND('',#106,.T.);
#55=FACE_OUTER_BOUND('',#107,.T.);
#56=FACE_OUTER_BOUND('',#108,.T.);
#57=FACE_OUTER_BOUND('',#109,.T.);
#58=FACE_OUTER_BOUND('',#110,.T.);
#59=FACE_OUTER_BOUND('',#111,.T.);
#60=FACE_OUTER_BOUND('',#112,.T.);
#61=FACE_OUTER_BOUND('',#113,.T.);
#62=FACE_OUTER_BOUND('',#114,.T.);
#63=FACE_OUTER_BOUND('',#117,.T.);
#64=FACE_OUTER_BOUND('',#118,.T.);
#65=FACE_OUTER_BOUND('',#121,.T.);
#66=FACE_OUTER_BOUND('',#122,.T.);
#67=FACE_OUTER_BOUND('',#123,.T.);
#68=FACE_OUTER_BOUND('',#124,.T.);
#69=FACE_OUTER_BOUND('',#125,.T.);
#70=FACE_OUTER_BOUND('',#126,.T.);
#71=FACE_OUTER_BOUND('',#127,.T.);
#72=FACE_OUTER_BOUND('',#128,.T.);
#73=FACE_OUTER_BOUND('',#129,.T.);
#74=FACE_OUTER_BOUND('',#130,.T.);
#75=FACE_OUTER_BOUND('',#131,.T.);
#76=FACE_OUTER_BOUND('',#132,.T.);
#77=FACE_OUTER_BOUND('',#133,.T.);
#78=FACE_OUTER_BOUND('',#134,.T.);
#79=FACE_OUTER_BOUND('',#135,.T.);
#80=FACE_OUTER_BOUND('',#136,.T.);
#81=FACE_OUTER_BOUND('',#137,.T.);
#82=FACE_OUTER_BOUND('',#138,.T.);
#83=FACE_OUTER_BOUND('',#139,.T.);
#84=FACE_OUTER_BOUND('',#140,.T.);
#85=FACE_OUTER_BOUND('',#141,.T.);
#86=FACE_OUTER_BOUND('',#142,.T.);
#87=EDGE_LOOP('',(#665,#666,#667,#668));
#88=EDGE_LOOP('',(#669,#670,#671,#672,#673,#674));
#89=EDGE_LOOP('',(#675,#676,#677,#678,#679,#680,#681,#682));
#90=EDGE_LOOP('',(#683,#684,#685,#686));
#91=EDGE_LOOP('',(#687,#688,#689,#690,#691,#692,#693,#694,#695,#696,#697));
#92=EDGE_LOOP('',(#698,#699,#700,#701,#702,#703,#704,#705,#706,#707,#708,
#709,#710,#711,#712,#713));
#93=EDGE_LOOP('',(#714,#715,#716,#717,#718,#719,#720,#721));
#94=EDGE_LOOP('',(#722,#723,#724,#725));
#95=EDGE_LOOP('',(#726,#727,#728,#729));
#96=EDGE_LOOP('',(#730,#731,#732,#733,#734,#735));
#97=EDGE_LOOP('',(#736,#737,#738,#739));
#98=EDGE_LOOP('',(#740,#741,#742,#743));
#99=EDGE_LOOP('',(#744,#745,#746,#747));
#100=EDGE_LOOP('',(#748,#749,#750,#751,#752,#753));
#101=EDGE_LOOP('',(#754,#755,#756,#757,#758,#759,#760,#761));
#102=EDGE_LOOP('',(#762,#763,#764,#765));
#103=EDGE_LOOP('',(#766,#767,#768,#769,#770,#771,#772,#773,#774,#775,#776));
#104=EDGE_LOOP('',(#777,#778,#779,#780,#781,#782,#783,#784));
#105=EDGE_LOOP('',(#785,#786,#787,#788));
#106=EDGE_LOOP('',(#789,#790,#791,#792));
#107=EDGE_LOOP('',(#793,#794,#795,#796,#797,#798));
#108=EDGE_LOOP('',(#799,#800,#801,#802));
#109=EDGE_LOOP('',(#803,#804,#805,#806));
#110=EDGE_LOOP('',(#807,#808,#809,#810));
#111=EDGE_LOOP('',(#811,#812,#813,#814));
#112=EDGE_LOOP('',(#815,#816,#817,#818));
#113=EDGE_LOOP('',(#819,#820,#821,#822));
#114=EDGE_LOOP('',(#823,#824,#825,#826,#827,#828,#829,#830));
#115=EDGE_LOOP('',(#831,#832,#833,#834));
#116=EDGE_LOOP('',(#835,#836,#837,#838));
#117=EDGE_LOOP('',(#839,#840,#841,#842,#843,#844,#845,#846,#847,#848,#849,
#850));
#118=EDGE_LOOP('',(#851,#852,#853,#854));
#119=EDGE_LOOP('',(#855));
#120=EDGE_LOOP('',(#856));
#121=EDGE_LOOP('',(#857,#858,#859,#860));
#122=EDGE_LOOP('',(#861,#862,#863,#864));
#123=EDGE_LOOP('',(#865,#866,#867,#868));
#124=EDGE_LOOP('',(#869,#870,#871,#872));
#125=EDGE_LOOP('',(#873,#874,#875,#876));
#126=EDGE_LOOP('',(#877,#878,#879,#880,#881,#882,#883,#884));
#127=EDGE_LOOP('',(#885,#886,#887,#888));
#128=EDGE_LOOP('',(#889,#890,#891,#892));
#129=EDGE_LOOP('',(#893,#894,#895,#896,#897,#898,#899,#900));
#130=EDGE_LOOP('',(#901,#902,#903,#904));
#131=EDGE_LOOP('',(#905,#906,#907,#908));
#132=EDGE_LOOP('',(#909,#910,#911,#912));
#133=EDGE_LOOP('',(#913,#914,#915,#916));
#134=EDGE_LOOP('',(#917,#918,#919,#920));
#135=EDGE_LOOP('',(#921,#922,#923,#924));
#136=EDGE_LOOP('',(#925,#926,#927,#928,#929,#930,#931,#932));
#137=EDGE_LOOP('',(#933,#934,#935,#936));
#138=EDGE_LOOP('',(#937,#938,#939,#940));
#139=EDGE_LOOP('',(#941,#942,#943,#944,#945,#946,#947,#948));
#140=EDGE_LOOP('',(#949,#950,#951,#952));
#141=EDGE_LOOP('',(#953,#954,#955,#956));
#142=EDGE_LOOP('',(#957,#958,#959,#960));
#143=LINE('',#1409,#281);
#144=LINE('',#1411,#282);
#145=LINE('',#1413,#283);
#146=LINE('',#1414,#284);
#147=LINE('',#1420,#285);
#148=LINE('',#1422,#286);
#149=LINE('',#1423,#287);
#150=LINE('',#1424,#288);
#151=LINE('',#1427,#289);
#152=LINE('',#1429,#290);
#153=LINE('',#1430,#291);
#154=LINE('',#1432,#292);
#155=LINE('',#1433,#293);
#156=LINE('',#1436,#294);
#157=LINE('',#1437,#295);
#158=LINE('',#1442,#296);
#159=LINE('',#1446,#297);
#160=LINE('',#1450,#298);
#161=LINE('',#1453,#299);
#162=LINE('',#1455,#300);
#163=LINE('',#1457,#301);
#164=LINE('',#1459,#302);
#165=LINE('',#1461,#303);
#166=LINE('',#1463,#304);
#167=LINE('',#1465,#305);
#168=LINE('',#1467,#306);
#169=LINE('',#1469,#307);
#170=LINE('',#1471,#308);
#171=LINE('',#1473,#309);
#172=LINE('',#1475,#310);
#173=LINE('',#1476,#311);
#174=LINE('',#1479,#312);
#175=LINE('',#1481,#313);
#176=LINE('',#1483,#314);
#177=LINE('',#1485,#315);
#178=LINE('',#1486,#316);
#179=LINE('',#1487,#317);
#180=LINE('',#1491,#318);
#181=LINE('',#1492,#319);
#182=LINE('',#1493,#320);
#183=LINE('',#1496,#321);
#184=LINE('',#1497,#322);
#185=LINE('',#1500,#323);
#186=LINE('',#1501,#324);
#187=LINE('',#1503,#325);
#188=LINE('',#1507,#326);
#189=LINE('',#1509,#327);
#190=LINE('',#1510,#328);
#191=LINE('',#1516,#329);
#192=LINE('',#1518,#330);
#193=LINE('',#1519,#331);
#194=LINE('',#1520,#332);
#195=LINE('',#1523,#333);
#196=LINE('',#1525,#334);
#197=LINE('',#1526,#335);
#198=LINE('',#1527,#336);
#199=LINE('',#1529,#337);
#200=LINE('',#1534,#338);
#201=LINE('',#1538,#339);
#202=LINE('',#1542,#340);
#203=LINE('',#1545,#341);
#204=LINE('',#1547,#342);
#205=LINE('',#1549,#343);
#206=LINE('',#1551,#344);
#207=LINE('',#1552,#345);
#208=LINE('',#1553,#346);
#209=LINE('',#1557,#347);
#210=LINE('',#1558,#348);
#211=LINE('',#1559,#349);
#212=LINE('',#1562,#350);
#213=LINE('',#1563,#351);
#214=LINE('',#1566,#352);
#215=LINE('',#1567,#353);
#216=LINE('',#1569,#354);
#217=LINE('',#1573,#355);
#218=LINE('',#1575,#356);
#219=LINE('',#1576,#357);
#220=LINE('',#1579,#358);
#221=LINE('',#1580,#359);
#222=LINE('',#1583,#360);
#223=LINE('',#1584,#361);
#224=LINE('',#1586,#362);
#225=LINE('',#1589,#363);
#226=LINE('',#1591,#364);
#227=LINE('',#1592,#365);
#228=LINE('',#1595,#366);
#229=LINE('',#1597,#367);
#230=LINE('',#1598,#368);
#231=LINE('',#1600,#369);
#232=LINE('',#1601,#370);
#233=LINE('',#1607,#371);
#234=LINE('',#1609,#372);
#235=LINE('',#1611,#373);
#236=LINE('',#1612,#374);
#237=LINE('',#1616,#375);
#238=LINE('',#1618,#376);
#239=LINE('',#1620,#377);
#240=LINE('',#1621,#378);
#241=LINE('',#1623,#379);
#242=LINE('',#1624,#380);
#243=LINE('',#1627,#381);
#244=LINE('',#1629,#382);
#245=LINE('',#1631,#383);
#246=LINE('',#1633,#384);
#247=LINE('',#1634,#385);
#248=LINE('',#1637,#386);
#249=LINE('',#1638,#387);
#250=LINE('',#1641,#388);
#251=LINE('',#1642,#389);
#252=LINE('',#1645,#390);
#253=LINE('',#1647,#391);
#254=LINE('',#1648,#392);
#255=LINE('',#1650,#393);
#256=LINE('',#1652,#394);
#257=LINE('',#1657,#395);
#258=LINE('',#1659,#396);
#259=LINE('',#1661,#397);
#260=LINE('',#1662,#398);
#261=LINE('',#1666,#399);
#262=LINE('',#1668,#400);
#263=LINE('',#1670,#401);
#264=LINE('',#1671,#402);
#265=LINE('',#1673,#403);
#266=LINE('',#1674,#404);
#267=LINE('',#1677,#405);
#268=LINE('',#1679,#406);
#269=LINE('',#1681,#407);
#270=LINE('',#1683,#408);
#271=LINE('',#1684,#409);
#272=LINE('',#1687,#410);
#273=LINE('',#1688,#411);
#274=LINE('',#1691,#412);
#275=LINE('',#1692,#413);
#276=LINE('',#1695,#414);
#277=LINE('',#1697,#415);
#278=LINE('',#1698,#416);
#279=LINE('',#1700,#417);
#280=LINE('',#1702,#418);
#281=VECTOR('',#1145,10.);
#282=VECTOR('',#1146,10.);
#283=VECTOR('',#1147,10.);
#284=VECTOR('',#1148,10.);
#285=VECTOR('',#1153,10.);
#286=VECTOR('',#1154,10.);
#287=VECTOR('',#1155,10.);
#288=VECTOR('',#1156,10.);
#289=VECTOR('',#1159,10.);
#290=VECTOR('',#1160,10.);
#291=VECTOR('',#1161,10.);
#292=VECTOR('',#1162,10.);
#293=VECTOR('',#1163,10.);
#294=VECTOR('',#1166,10.);
#295=VECTOR('',#1167,10.);
#296=VECTOR('',#1172,0.315);
#297=VECTOR('',#1175,10.);
#298=VECTOR('',#1180,10.);
#299=VECTOR('',#1183,10.);
#300=VECTOR('',#1184,10.);
#301=VECTOR('',#1185,10.);
#302=VECTOR('',#1186,10.);
#303=VECTOR('',#1187,10.);
#304=VECTOR('',#1188,10.);
#305=VECTOR('',#1189,10.);
#306=VECTOR('',#1190,10.);
#307=VECTOR('',#1191,10.);
#308=VECTOR('',#1192,10.);
#309=VECTOR('',#1193,10.);
#310=VECTOR('',#1194,10.);
#311=VECTOR('',#1195,10.);
#312=VECTOR('',#1198,10.);
#313=VECTOR('',#1199,10.);
#314=VECTOR('',#1200,10.);
#315=VECTOR('',#1201,10.);
#316=VECTOR('',#1202,10.);
#317=VECTOR('',#1203,10.);
#318=VECTOR('',#1206,10.);
#319=VECTOR('',#1207,10.);
#320=VECTOR('',#1208,10.);
#321=VECTOR('',#1211,10.);
#322=VECTOR('',#1212,10.);
#323=VECTOR('',#1215,10.);
#324=VECTOR('',#1216,10.);
#325=VECTOR('',#1219,10.);
#326=VECTOR('',#1224,10.);
#327=VECTOR('',#1225,10.);
#328=VECTOR('',#1226,10.);
#329=VECTOR('',#1231,10.);
#330=VECTOR('',#1232,10.);
#331=VECTOR('',#1233,10.);
#332=VECTOR('',#1234,10.);
#333=VECTOR('',#1237,10.);
#334=VECTOR('',#1238,10.);
#335=VECTOR('',#1239,10.);
#336=VECTOR('',#1240,10.);
#337=VECTOR('',#1243,10.);
#338=VECTOR('',#1248,0.315);
#339=VECTOR('',#1251,10.);
#340=VECTOR('',#1256,10.);
#341=VECTOR('',#1259,10.);
#342=VECTOR('',#1260,10.);
#343=VECTOR('',#1261,10.);
#344=VECTOR('',#1262,10.);
#345=VECTOR('',#1263,10.);
#346=VECTOR('',#1264,10.);
#347=VECTOR('',#1267,10.);
#348=VECTOR('',#1268,10.);
#349=VECTOR('',#1269,10.);
#350=VECTOR('',#1272,10.);
#351=VECTOR('',#1273,10.);
#352=VECTOR('',#1276,10.);
#353=VECTOR('',#1277,10.);
#354=VECTOR('',#1280,10.);
#355=VECTOR('',#1285,10.);
#356=VECTOR('',#1286,10.);
#357=VECTOR('',#1287,10.);
#358=VECTOR('',#1290,10.);
#359=VECTOR('',#1291,10.);
#360=VECTOR('',#1294,10.);
#361=VECTOR('',#1295,10.);
#362=VECTOR('',#1298,10.);
#363=VECTOR('',#1301,10.);
#364=VECTOR('',#1302,10.);
#365=VECTOR('',#1303,10.);
#366=VECTOR('',#1306,10.);
#367=VECTOR('',#1307,10.);
#368=VECTOR('',#1308,10.);
#369=VECTOR('',#1311,10.);
#370=VECTOR('',#1312,10.);
#371=VECTOR('',#1319,10.);
#372=VECTOR('',#1320,10.);
#373=VECTOR('',#1321,10.);
#374=VECTOR('',#1322,10.);
#375=VECTOR('',#1325,10.);
#376=VECTOR('',#1326,10.);
#377=VECTOR('',#1327,10.);
#378=VECTOR('',#1328,10.);
#379=VECTOR('',#1331,10.);
#380=VECTOR('',#1332,10.);
#381=VECTOR('',#1335,10.);
#382=VECTOR('',#1336,10.);
#383=VECTOR('',#1337,10.);
#384=VECTOR('',#1338,10.);
#385=VECTOR('',#1339,10.);
#386=VECTOR('',#1342,10.);
#387=VECTOR('',#1343,10.);
#388=VECTOR('',#1346,10.);
#389=VECTOR('',#1347,10.);
#390=VECTOR('',#1350,10.);
#391=VECTOR('',#1351,10.);
#392=VECTOR('',#1352,10.);
#393=VECTOR('',#1355,10.);
#394=VECTOR('',#1358,10.);
#395=VECTOR('',#1363,10.);
#396=VECTOR('',#1364,10.);
#397=VECTOR('',#1365,10.);
#398=VECTOR('',#1366,10.);
#399=VECTOR('',#1369,10.);
#400=VECTOR('',#1370,10.);
#401=VECTOR('',#1371,10.);
#402=VECTOR('',#1372,10.);
#403=VECTOR('',#1375,10.);
#404=VECTOR('',#1376,10.);
#405=VECTOR('',#1379,10.);
#406=VECTOR('',#1380,10.);
#407=VECTOR('',#1381,10.);
#408=VECTOR('',#1382,10.);
#409=VECTOR('',#1383,10.);
#410=VECTOR('',#1386,10.);
#411=VECTOR('',#1387,10.);
#412=VECTOR('',#1390,10.);
#413=VECTOR('',#1391,10.);
#414=VECTOR('',#1394,10.);
#415=VECTOR('',#1395,10.);
#416=VECTOR('',#1396,10.);
#417=VECTOR('',#1399,10.);
#418=VECTOR('',#1402,10.);
#419=VERTEX_POINT('',#1407);
#420=VERTEX_POINT('',#1408);
#421=VERTEX_POINT('',#1410);
#422=VERTEX_POINT('',#1412);
#423=VERTEX_POINT('',#1416);
#424=VERTEX_POINT('',#1417);
#425=VERTEX_POINT('',#1419);
#426=VERTEX_POINT('',#1421);
#427=VERTEX_POINT('',#1426);
#428=VERTEX_POINT('',#1428);
#429=VERTEX_POINT('',#1431);
#430=VERTEX_POINT('',#1435);
#431=VERTEX_POINT('',#1439);
#432=VERTEX_POINT('',#1441);
#433=VERTEX_POINT('',#1443);
#434=VERTEX_POINT('',#1445);
#435=VERTEX_POINT('',#1448);
#436=VERTEX_POINT('',#1452);
#437=VERTEX_POINT('',#1454);
#438=VERTEX_POINT('',#1456);
#439=VERTEX_POINT('',#1458);
#440=VERTEX_POINT('',#1460);
#441=VERTEX_POINT('',#1462);
#442=VERTEX_POINT('',#1464);
#443=VERTEX_POINT('',#1466);
#444=VERTEX_POINT('',#1468);
#445=VERTEX_POINT('',#1470);
#446=VERTEX_POINT('',#1472);
#447=VERTEX_POINT('',#1474);
#448=VERTEX_POINT('',#1478);
#449=VERTEX_POINT('',#1480);
#450=VERTEX_POINT('',#1482);
#451=VERTEX_POINT('',#1484);
#452=VERTEX_POINT('',#1489);
#453=VERTEX_POINT('',#1490);
#454=VERTEX_POINT('',#1495);
#455=VERTEX_POINT('',#1499);
#456=VERTEX_POINT('',#1506);
#457=VERTEX_POINT('',#1508);
#458=VERTEX_POINT('',#1512);
#459=VERTEX_POINT('',#1513);
#460=VERTEX_POINT('',#1515);
#461=VERTEX_POINT('',#1517);
#462=VERTEX_POINT('',#1522);
#463=VERTEX_POINT('',#1524);
#464=VERTEX_POINT('',#1531);
#465=VERTEX_POINT('',#1533);
#466=VERTEX_POINT('',#1535);
#467=VERTEX_POINT('',#1537);
#468=VERTEX_POINT('',#1540);
#469=VERTEX_POINT('',#1544);
#470=VERTEX_POINT('',#1546);
#471=VERTEX_POINT('',#1548);
#472=VERTEX_POINT('',#1550);
#473=VERTEX_POINT('',#1555);
#474=VERTEX_POINT('',#1556);
#475=VERTEX_POINT('',#1561);
#476=VERTEX_POINT('',#1565);
#477=VERTEX_POINT('',#1572);
#478=VERTEX_POINT('',#1574);
#479=VERTEX_POINT('',#1578);
#480=VERTEX_POINT('',#1582);
#481=VERTEX_POINT('',#1588);
#482=VERTEX_POINT('',#1590);
#483=VERTEX_POINT('',#1594);
#484=VERTEX_POINT('',#1596);
#485=VERTEX_POINT('',#1605);
#486=VERTEX_POINT('',#1606);
#487=VERTEX_POINT('',#1608);
#488=VERTEX_POINT('',#1610);
#489=VERTEX_POINT('',#1614);
#490=VERTEX_POINT('',#1615);
#491=VERTEX_POINT('',#1617);
#492=VERTEX_POINT('',#1619);
#493=VERTEX_POINT('',#1626);
#494=VERTEX_POINT('',#1628);
#495=VERTEX_POINT('',#1630);
#496=VERTEX_POINT('',#1632);
#497=VERTEX_POINT('',#1636);
#498=VERTEX_POINT('',#1640);
#499=VERTEX_POINT('',#1644);
#500=VERTEX_POINT('',#1646);
#501=VERTEX_POINT('',#1655);
#502=VERTEX_POINT('',#1656);
#503=VERTEX_POINT('',#1658);
#504=VERTEX_POINT('',#1660);
#505=VERTEX_POINT('',#1664);
#506=VERTEX_POINT('',#1665);
#507=VERTEX_POINT('',#1667);
#508=VERTEX_POINT('',#1669);
#509=VERTEX_POINT('',#1676);
#510=VERTEX_POINT('',#1678);
#511=VERTEX_POINT('',#1680);
#512=VERTEX_POINT('',#1682);
#513=VERTEX_POINT('',#1686);
#514=VERTEX_POINT('',#1690);
#515=VERTEX_POINT('',#1694);
#516=VERTEX_POINT('',#1696);
#517=EDGE_CURVE('',#419,#420,#143,.T.);
#518=EDGE_CURVE('',#419,#421,#144,.T.);
#519=EDGE_CURVE('',#421,#422,#145,.T.);
#520=EDGE_CURVE('',#420,#422,#146,.T.);
#521=EDGE_CURVE('',#423,#424,#25,.T.);
#522=EDGE_CURVE('',#423,#425,#147,.T.);
#523=EDGE_CURVE('',#425,#426,#148,.T.);
#524=EDGE_CURVE('',#422,#426,#149,.T.);
#525=EDGE_CURVE('',#421,#424,#150,.T.);
#526=EDGE_CURVE('',#427,#423,#151,.T.);
#527=EDGE_CURVE('',#428,#427,#152,.T.);
#528=EDGE_CURVE('',#424,#428,#153,.T.);
#529=EDGE_CURVE('',#429,#419,#154,.T.);
#530=EDGE_CURVE('',#425,#429,#155,.T.);
#531=EDGE_CURVE('',#430,#429,#156,.T.);
#532=EDGE_CURVE('',#426,#430,#157,.T.);
#533=EDGE_CURVE('',#431,#431,#26,.T.);
#534=EDGE_CURVE('',#431,#432,#158,.T.);
#535=EDGE_CURVE('',#432,#433,#27,.T.);
#536=EDGE_CURVE('',#433,#434,#159,.T.);
#537=EDGE_CURVE('',#434,#427,#28,.T.);
#538=EDGE_CURVE('',#428,#435,#29,.T.);
#539=EDGE_CURVE('',#435,#432,#160,.T.);
#540=EDGE_CURVE('',#436,#420,#161,.T.);
#541=EDGE_CURVE('',#436,#437,#162,.T.);
#542=EDGE_CURVE('',#437,#438,#163,.T.);
#543=EDGE_CURVE('',#438,#439,#164,.T.);
#544=EDGE_CURVE('',#440,#439,#165,.T.);
#545=EDGE_CURVE('',#441,#440,#166,.T.);
#546=EDGE_CURVE('',#442,#441,#167,.T.);
#547=EDGE_CURVE('',#442,#443,#168,.T.);
#548=EDGE_CURVE('',#443,#444,#169,.T.);
#549=EDGE_CURVE('',#444,#445,#170,.T.);
#550=EDGE_CURVE('',#446,#445,#171,.T.);
#551=EDGE_CURVE('',#446,#447,#172,.T.);
#552=EDGE_CURVE('',#430,#447,#173,.T.);
#553=EDGE_CURVE('',#448,#433,#174,.T.);
#554=EDGE_CURVE('',#449,#448,#175,.T.);
#555=EDGE_CURVE('',#450,#449,#176,.T.);
#556=EDGE_CURVE('',#451,#450,#177,.T.);
#557=EDGE_CURVE('',#432,#451,#178,.T.);
#558=EDGE_CURVE('',#434,#435,#179,.T.);
#559=EDGE_CURVE('',#452,#453,#180,.T.);
#560=EDGE_CURVE('',#452,#450,#181,.T.);
#561=EDGE_CURVE('',#453,#449,#182,.T.);
#562=EDGE_CURVE('',#453,#454,#183,.T.);
#563=EDGE_CURVE('',#454,#448,#184,.T.);
#564=EDGE_CURVE('',#455,#451,#185,.T.);
#565=EDGE_CURVE('',#454,#455,#186,.T.);
#566=EDGE_CURVE('',#455,#452,#187,.T.);
#567=EDGE_CURVE('',#438,#456,#188,.T.);
#568=EDGE_CURVE('',#456,#457,#189,.T.);
#569=EDGE_CURVE('',#439,#457,#190,.T.);
#570=EDGE_CURVE('',#458,#459,#30,.T.);
#571=EDGE_CURVE('',#458,#460,#191,.T.);
#572=EDGE_CURVE('',#460,#461,#192,.T.);
#573=EDGE_CURVE('',#457,#461,#193,.T.);
#574=EDGE_CURVE('',#456,#459,#194,.T.);
#575=EDGE_CURVE('',#462,#458,#195,.T.);
#576=EDGE_CURVE('',#463,#462,#196,.T.);
#577=EDGE_CURVE('',#459,#463,#197,.T.);
#578=EDGE_CURVE('',#460,#437,#198,.T.);
#579=EDGE_CURVE('',#461,#436,#199,.T.);
#580=EDGE_CURVE('',#464,#464,#31,.T.);
#581=EDGE_CURVE('',#464,#465,#200,.T.);
#582=EDGE_CURVE('',#465,#466,#32,.T.);
#583=EDGE_CURVE('',#466,#467,#201,.T.);
#584=EDGE_CURVE('',#467,#462,#33,.T.);
#585=EDGE_CURVE('',#463,#468,#34,.T.);
#586=EDGE_CURVE('',#468,#465,#202,.T.);
#587=EDGE_CURVE('',#469,#466,#203,.T.);
#588=EDGE_CURVE('',#470,#469,#204,.T.);
#589=EDGE_CURVE('',#471,#470,#205,.T.);
#590=EDGE_CURVE('',#472,#471,#206,.T.);
#591=EDGE_CURVE('',#465,#472,#207,.T.);
#592=EDGE_CURVE('',#467,#468,#208,.T.);
#593=EDGE_CURVE('',#473,#474,#209,.T.);
#594=EDGE_CURVE('',#473,#471,#210,.T.);
#595=EDGE_CURVE('',#474,#470,#211,.T.);
#596=EDGE_CURVE('',#474,#475,#212,.T.);
#597=EDGE_CURVE('',#475,#469,#213,.T.);
#598=EDGE_CURVE('',#476,#472,#214,.T.);
#599=EDGE_CURVE('',#475,#476,#215,.T.);
#600=EDGE_CURVE('',#476,#473,#216,.T.);
#601=EDGE_CURVE('',#477,#442,#217,.T.);
#602=EDGE_CURVE('',#477,#478,#218,.T.);
#603=EDGE_CURVE('',#443,#478,#219,.T.);
#604=EDGE_CURVE('',#478,#479,#220,.T.);
#605=EDGE_CURVE('',#479,#444,#221,.T.);
#606=EDGE_CURVE('',#480,#479,#222,.T.);
#607=EDGE_CURVE('',#480,#477,#223,.T.);
#608=EDGE_CURVE('',#445,#480,#224,.T.);
#609=EDGE_CURVE('',#441,#481,#225,.T.);
#610=EDGE_CURVE('',#481,#482,#226,.T.);
#611=EDGE_CURVE('',#482,#446,#227,.T.);
#612=EDGE_CURVE('',#447,#483,#228,.T.);
#613=EDGE_CURVE('',#483,#484,#229,.T.);
#614=EDGE_CURVE('',#484,#440,#230,.T.);
#615=EDGE_CURVE('',#481,#484,#231,.T.);
#616=EDGE_CURVE('',#482,#483,#232,.T.);
#617=EDGE_CURVE('',#485,#486,#233,.T.);
#618=EDGE_CURVE('',#485,#487,#234,.T.);
#619=EDGE_CURVE('',#488,#487,#235,.T.);
#620=EDGE_CURVE('',#486,#488,#236,.T.);
#621=EDGE_CURVE('',#489,#490,#237,.T.);
#622=EDGE_CURVE('',#491,#489,#238,.T.);
#623=EDGE_CURVE('',#492,#491,#239,.T.);
#624=EDGE_CURVE('',#490,#492,#240,.T.);
#625=EDGE_CURVE('',#490,#485,#241,.T.);
#626=EDGE_CURVE('',#487,#492,#242,.T.);
#627=EDGE_CURVE('',#491,#493,#243,.T.);
#628=EDGE_CURVE('',#493,#494,#244,.T.);
#629=EDGE_CURVE('',#494,#495,#245,.T.);
#630=EDGE_CURVE('',#495,#496,#246,.T.);
#631=EDGE_CURVE('',#496,#488,#247,.T.);
#632=EDGE_CURVE('',#497,#489,#248,.T.);
#633=EDGE_CURVE('',#497,#493,#249,.T.);
#634=EDGE_CURVE('',#498,#496,#250,.T.);
#635=EDGE_CURVE('',#486,#498,#251,.T.);
#636=EDGE_CURVE('',#498,#499,#252,.T.);
#637=EDGE_CURVE('',#499,#500,#253,.T.);
#638=EDGE_CURVE('',#500,#497,#254,.T.);
#639=EDGE_CURVE('',#500,#494,#255,.T.);
#640=EDGE_CURVE('',#499,#495,#256,.T.);
#641=EDGE_CURVE('',#501,#502,#257,.T.);
#642=EDGE_CURVE('',#501,#503,#258,.T.);
#643=EDGE_CURVE('',#504,#503,#259,.T.);
#644=EDGE_CURVE('',#502,#504,#260,.T.);
#645=EDGE_CURVE('',#505,#506,#261,.T.);
#646=EDGE_CURVE('',#507,#505,#262,.T.);
#647=EDGE_CURVE('',#508,#507,#263,.T.);
#648=EDGE_CURVE('',#506,#508,#264,.T.);
#649=EDGE_CURVE('',#506,#501,#265,.T.);
#650=EDGE_CURVE('',#503,#508,#266,.T.);
#651=EDGE_CURVE('',#507,#509,#267,.T.);
#652=EDGE_CURVE('',#509,#510,#268,.T.);
#653=EDGE_CURVE('',#510,#511,#269,.T.);
#654=EDGE_CURVE('',#511,#512,#270,.T.);
#655=EDGE_CURVE('',#512,#504,#271,.T.);
#656=EDGE_CURVE('',#513,#505,#272,.T.);
#657=EDGE_CURVE('',#513,#509,#273,.T.);
#658=EDGE_CURVE('',#514,#512,#274,.T.);
#659=EDGE_CURVE('',#502,#514,#275,.T.);
#660=EDGE_CURVE('',#514,#515,#276,.T.);
#661=EDGE_CURVE('',#515,#516,#277,.T.);
#662=EDGE_CURVE('',#516,#513,#278,.T.);
#663=EDGE_CURVE('',#516,#510,#279,.T.);
#664=EDGE_CURVE('',#515,#511,#280,.T.);
#665=ORIENTED_EDGE('',*,*,#517,.F.);
#666=ORIENTED_EDGE('',*,*,#518,.T.);
#667=ORIENTED_EDGE('',*,*,#519,.T.);
#668=ORIENTED_EDGE('',*,*,#520,.F.);
#669=ORIENTED_EDGE('',*,*,#521,.F.);
#670=ORIENTED_EDGE('',*,*,#522,.T.);
#671=ORIENTED_EDGE('',*,*,#523,.T.);
#672=ORIENTED_EDGE('',*,*,#524,.F.);
#673=ORIENTED_EDGE('',*,*,#519,.F.);
#674=ORIENTED_EDGE('',*,*,#525,.T.);
#675=ORIENTED_EDGE('',*,*,#526,.F.);
#676=ORIENTED_EDGE('',*,*,#527,.F.);
#677=ORIENTED_EDGE('',*,*,#528,.F.);
#678=ORIENTED_EDGE('',*,*,#525,.F.);
#679=ORIENTED_EDGE('',*,*,#518,.F.);
#680=ORIENTED_EDGE('',*,*,#529,.F.);
#681=ORIENTED_EDGE('',*,*,#530,.F.);
#682=ORIENTED_EDGE('',*,*,#522,.F.);
#683=ORIENTED_EDGE('',*,*,#531,.F.);
#684=ORIENTED_EDGE('',*,*,#532,.F.);
#685=ORIENTED_EDGE('',*,*,#523,.F.);
#686=ORIENTED_EDGE('',*,*,#530,.T.);
#687=ORIENTED_EDGE('',*,*,#533,.F.);
#688=ORIENTED_EDGE('',*,*,#534,.T.);
#689=ORIENTED_EDGE('',*,*,#535,.T.);
#690=ORIENTED_EDGE('',*,*,#536,.T.);
#691=ORIENTED_EDGE('',*,*,#537,.T.);
#692=ORIENTED_EDGE('',*,*,#526,.T.);
#693=ORIENTED_EDGE('',*,*,#521,.T.);
#694=ORIENTED_EDGE('',*,*,#528,.T.);
#695=ORIENTED_EDGE('',*,*,#538,.T.);
#696=ORIENTED_EDGE('',*,*,#539,.T.);
#697=ORIENTED_EDGE('',*,*,#534,.F.);
#698=ORIENTED_EDGE('',*,*,#531,.T.);
#699=ORIENTED_EDGE('',*,*,#529,.T.);
#700=ORIENTED_EDGE('',*,*,#517,.T.);
#701=ORIENTED_EDGE('',*,*,#540,.F.);
#702=ORIENTED_EDGE('',*,*,#541,.T.);
#703=ORIENTED_EDGE('',*,*,#542,.T.);
#704=ORIENTED_EDGE('',*,*,#543,.T.);
#705=ORIENTED_EDGE('',*,*,#544,.F.);
#706=ORIENTED_EDGE('',*,*,#545,.F.);
#707=ORIENTED_EDGE('',*,*,#546,.F.);
#708=ORIENTED_EDGE('',*,*,#547,.T.);
#709=ORIENTED_EDGE('',*,*,#548,.T.);
#710=ORIENTED_EDGE('',*,*,#549,.T.);
#711=ORIENTED_EDGE('',*,*,#550,.F.);
#712=ORIENTED_EDGE('',*,*,#551,.T.);
#713=ORIENTED_EDGE('',*,*,#552,.F.);
#714=ORIENTED_EDGE('',*,*,#536,.F.);
#715=ORIENTED_EDGE('',*,*,#553,.F.);
#716=ORIENTED_EDGE('',*,*,#554,.F.);
#717=ORIENTED_EDGE('',*,*,#555,.F.);
#718=ORIENTED_EDGE('',*,*,#556,.F.);
#719=ORIENTED_EDGE('',*,*,#557,.F.);
#720=ORIENTED_EDGE('',*,*,#539,.F.);
#721=ORIENTED_EDGE('',*,*,#558,.F.);
#722=ORIENTED_EDGE('',*,*,#559,.F.);
#723=ORIENTED_EDGE('',*,*,#560,.T.);
#724=ORIENTED_EDGE('',*,*,#555,.T.);
#725=ORIENTED_EDGE('',*,*,#561,.F.);
#726=ORIENTED_EDGE('',*,*,#562,.F.);
#727=ORIENTED_EDGE('',*,*,#561,.T.);
#728=ORIENTED_EDGE('',*,*,#554,.T.);
#729=ORIENTED_EDGE('',*,*,#563,.F.);
#730=ORIENTED_EDGE('',*,*,#535,.F.);
#731=ORIENTED_EDGE('',*,*,#557,.T.);
#732=ORIENTED_EDGE('',*,*,#564,.F.);
#733=ORIENTED_EDGE('',*,*,#565,.F.);
#734=ORIENTED_EDGE('',*,*,#563,.T.);
#735=ORIENTED_EDGE('',*,*,#553,.T.);
#736=ORIENTED_EDGE('',*,*,#566,.F.);
#737=ORIENTED_EDGE('',*,*,#564,.T.);
#738=ORIENTED_EDGE('',*,*,#556,.T.);
#739=ORIENTED_EDGE('',*,*,#560,.F.);
#740=ORIENTED_EDGE('',*,*,#527,.T.);
#741=ORIENTED_EDGE('',*,*,#537,.F.);
#742=ORIENTED_EDGE('',*,*,#558,.T.);
#743=ORIENTED_EDGE('',*,*,#538,.F.);
#744=ORIENTED_EDGE('',*,*,#543,.F.);
#745=ORIENTED_EDGE('',*,*,#567,.T.);
#746=ORIENTED_EDGE('',*,*,#568,.T.);
#747=ORIENTED_EDGE('',*,*,#569,.F.);
#748=ORIENTED_EDGE('',*,*,#570,.F.);
#749=ORIENTED_EDGE('',*,*,#571,.T.);
#750=ORIENTED_EDGE('',*,*,#572,.T.);
#751=ORIENTED_EDGE('',*,*,#573,.F.);
#752=ORIENTED_EDGE('',*,*,#568,.F.);
#753=ORIENTED_EDGE('',*,*,#574,.T.);
#754=ORIENTED_EDGE('',*,*,#575,.F.);
#755=ORIENTED_EDGE('',*,*,#576,.F.);
#756=ORIENTED_EDGE('',*,*,#577,.F.);
#757=ORIENTED_EDGE('',*,*,#574,.F.);
#758=ORIENTED_EDGE('',*,*,#567,.F.);
#759=ORIENTED_EDGE('',*,*,#542,.F.);
#760=ORIENTED_EDGE('',*,*,#578,.F.);
#761=ORIENTED_EDGE('',*,*,#571,.F.);
#762=ORIENTED_EDGE('',*,*,#541,.F.);
#763=ORIENTED_EDGE('',*,*,#579,.F.);
#764=ORIENTED_EDGE('',*,*,#572,.F.);
#765=ORIENTED_EDGE('',*,*,#578,.T.);
#766=ORIENTED_EDGE('',*,*,#580,.F.);
#767=ORIENTED_EDGE('',*,*,#581,.T.);
#768=ORIENTED_EDGE('',*,*,#582,.T.);
#769=ORIENTED_EDGE('',*,*,#583,.T.);
#770=ORIENTED_EDGE('',*,*,#584,.T.);
#771=ORIENTED_EDGE('',*,*,#575,.T.);
#772=ORIENTED_EDGE('',*,*,#570,.T.);
#773=ORIENTED_EDGE('',*,*,#577,.T.);
#774=ORIENTED_EDGE('',*,*,#585,.T.);
#775=ORIENTED_EDGE('',*,*,#586,.T.);
#776=ORIENTED_EDGE('',*,*,#581,.F.);
#777=ORIENTED_EDGE('',*,*,#583,.F.);
#778=ORIENTED_EDGE('',*,*,#587,.F.);
#779=ORIENTED_EDGE('',*,*,#588,.F.);
#780=ORIENTED_EDGE('',*,*,#589,.F.);
#781=ORIENTED_EDGE('',*,*,#590,.F.);
#782=ORIENTED_EDGE('',*,*,#591,.F.);
#783=ORIENTED_EDGE('',*,*,#586,.F.);
#784=ORIENTED_EDGE('',*,*,#592,.F.);
#785=ORIENTED_EDGE('',*,*,#593,.F.);
#786=ORIENTED_EDGE('',*,*,#594,.T.);
#787=ORIENTED_EDGE('',*,*,#589,.T.);
#788=ORIENTED_EDGE('',*,*,#595,.F.);
#789=ORIENTED_EDGE('',*,*,#596,.F.);
#790=ORIENTED_EDGE('',*,*,#595,.T.);
#791=ORIENTED_EDGE('',*,*,#588,.T.);
#792=ORIENTED_EDGE('',*,*,#597,.F.);
#793=ORIENTED_EDGE('',*,*,#582,.F.);
#794=ORIENTED_EDGE('',*,*,#591,.T.);
#795=ORIENTED_EDGE('',*,*,#598,.F.);
#796=ORIENTED_EDGE('',*,*,#599,.F.);
#797=ORIENTED_EDGE('',*,*,#597,.T.);
#798=ORIENTED_EDGE('',*,*,#587,.T.);
#799=ORIENTED_EDGE('',*,*,#600,.F.);
#800=ORIENTED_EDGE('',*,*,#598,.T.);
#801=ORIENTED_EDGE('',*,*,#590,.T.);
#802=ORIENTED_EDGE('',*,*,#594,.F.);
#803=ORIENTED_EDGE('',*,*,#576,.T.);
#804=ORIENTED_EDGE('',*,*,#584,.F.);
#805=ORIENTED_EDGE('',*,*,#592,.T.);
#806=ORIENTED_EDGE('',*,*,#585,.F.);
#807=ORIENTED_EDGE('',*,*,#547,.F.);
#808=ORIENTED_EDGE('',*,*,#601,.F.);
#809=ORIENTED_EDGE('',*,*,#602,.T.);
#810=ORIENTED_EDGE('',*,*,#603,.F.);
#811=ORIENTED_EDGE('',*,*,#548,.F.);
#812=ORIENTED_EDGE('',*,*,#603,.T.);
#813=ORIENTED_EDGE('',*,*,#604,.T.);
#814=ORIENTED_EDGE('',*,*,#605,.T.);
#815=ORIENTED_EDGE('',*,*,#606,.T.);
#816=ORIENTED_EDGE('',*,*,#604,.F.);
#817=ORIENTED_EDGE('',*,*,#602,.F.);
#818=ORIENTED_EDGE('',*,*,#607,.F.);
#819=ORIENTED_EDGE('',*,*,#549,.F.);
#820=ORIENTED_EDGE('',*,*,#605,.F.);
#821=ORIENTED_EDGE('',*,*,#606,.F.);
#822=ORIENTED_EDGE('',*,*,#608,.F.);
#823=ORIENTED_EDGE('',*,*,#546,.T.);
#824=ORIENTED_EDGE('',*,*,#609,.T.);
#825=ORIENTED_EDGE('',*,*,#610,.T.);
#826=ORIENTED_EDGE('',*,*,#611,.T.);
#827=ORIENTED_EDGE('',*,*,#550,.T.);
#828=ORIENTED_EDGE('',*,*,#608,.T.);
#829=ORIENTED_EDGE('',*,*,#607,.T.);
#830=ORIENTED_EDGE('',*,*,#601,.T.);
#831=ORIENTED_EDGE('',*,*,#565,.T.);
#832=ORIENTED_EDGE('',*,*,#566,.T.);
#833=ORIENTED_EDGE('',*,*,#559,.T.);
#834=ORIENTED_EDGE('',*,*,#562,.T.);
#835=ORIENTED_EDGE('',*,*,#599,.T.);
#836=ORIENTED_EDGE('',*,*,#600,.T.);
#837=ORIENTED_EDGE('',*,*,#593,.T.);
#838=ORIENTED_EDGE('',*,*,#596,.T.);
#839=ORIENTED_EDGE('',*,*,#532,.T.);
#840=ORIENTED_EDGE('',*,*,#552,.T.);
#841=ORIENTED_EDGE('',*,*,#612,.T.);
#842=ORIENTED_EDGE('',*,*,#613,.T.);
#843=ORIENTED_EDGE('',*,*,#614,.T.);
#844=ORIENTED_EDGE('',*,*,#544,.T.);
#845=ORIENTED_EDGE('',*,*,#569,.T.);
#846=ORIENTED_EDGE('',*,*,#573,.T.);
#847=ORIENTED_EDGE('',*,*,#579,.T.);
#848=ORIENTED_EDGE('',*,*,#540,.T.);
#849=ORIENTED_EDGE('',*,*,#520,.T.);
#850=ORIENTED_EDGE('',*,*,#524,.T.);
#851=ORIENTED_EDGE('',*,*,#615,.T.);
#852=ORIENTED_EDGE('',*,*,#613,.F.);
#853=ORIENTED_EDGE('',*,*,#616,.F.);
#854=ORIENTED_EDGE('',*,*,#610,.F.);
#855=ORIENTED_EDGE('',*,*,#533,.T.);
#856=ORIENTED_EDGE('',*,*,#580,.T.);
#857=ORIENTED_EDGE('',*,*,#545,.T.);
#858=ORIENTED_EDGE('',*,*,#614,.F.);
#859=ORIENTED_EDGE('',*,*,#615,.F.);
#860=ORIENTED_EDGE('',*,*,#609,.F.);
#861=ORIENTED_EDGE('',*,*,#616,.T.);
#862=ORIENTED_EDGE('',*,*,#612,.F.);
#863=ORIENTED_EDGE('',*,*,#551,.F.);
#864=ORIENTED_EDGE('',*,*,#611,.F.);
#865=ORIENTED_EDGE('',*,*,#617,.F.);
#866=ORIENTED_EDGE('',*,*,#618,.T.);
#867=ORIENTED_EDGE('',*,*,#619,.F.);
#868=ORIENTED_EDGE('',*,*,#620,.F.);
#869=ORIENTED_EDGE('',*,*,#621,.F.);
#870=ORIENTED_EDGE('',*,*,#622,.F.);
#871=ORIENTED_EDGE('',*,*,#623,.F.);
#872=ORIENTED_EDGE('',*,*,#624,.F.);
#873=ORIENTED_EDGE('',*,*,#625,.F.);
#874=ORIENTED_EDGE('',*,*,#624,.T.);
#875=ORIENTED_EDGE('',*,*,#626,.F.);
#876=ORIENTED_EDGE('',*,*,#618,.F.);
#877=ORIENTED_EDGE('',*,*,#619,.T.);
#878=ORIENTED_EDGE('',*,*,#626,.T.);
#879=ORIENTED_EDGE('',*,*,#623,.T.);
#880=ORIENTED_EDGE('',*,*,#627,.T.);
#881=ORIENTED_EDGE('',*,*,#628,.T.);
#882=ORIENTED_EDGE('',*,*,#629,.T.);
#883=ORIENTED_EDGE('',*,*,#630,.T.);
#884=ORIENTED_EDGE('',*,*,#631,.T.);
#885=ORIENTED_EDGE('',*,*,#622,.T.);
#886=ORIENTED_EDGE('',*,*,#632,.F.);
#887=ORIENTED_EDGE('',*,*,#633,.T.);
#888=ORIENTED_EDGE('',*,*,#627,.F.);
#889=ORIENTED_EDGE('',*,*,#620,.T.);
#890=ORIENTED_EDGE('',*,*,#631,.F.);
#891=ORIENTED_EDGE('',*,*,#634,.F.);
#892=ORIENTED_EDGE('',*,*,#635,.F.);
#893=ORIENTED_EDGE('',*,*,#617,.T.);
#894=ORIENTED_EDGE('',*,*,#635,.T.);
#895=ORIENTED_EDGE('',*,*,#636,.T.);
#896=ORIENTED_EDGE('',*,*,#637,.T.);
#897=ORIENTED_EDGE('',*,*,#638,.T.);
#898=ORIENTED_EDGE('',*,*,#632,.T.);
#899=ORIENTED_EDGE('',*,*,#621,.T.);
#900=ORIENTED_EDGE('',*,*,#625,.T.);
#901=ORIENTED_EDGE('',*,*,#639,.T.);
#902=ORIENTED_EDGE('',*,*,#628,.F.);
#903=ORIENTED_EDGE('',*,*,#633,.F.);
#904=ORIENTED_EDGE('',*,*,#638,.F.);
#905=ORIENTED_EDGE('',*,*,#640,.T.);
#906=ORIENTED_EDGE('',*,*,#629,.F.);
#907=ORIENTED_EDGE('',*,*,#639,.F.);
#908=ORIENTED_EDGE('',*,*,#637,.F.);
#909=ORIENTED_EDGE('',*,*,#634,.T.);
#910=ORIENTED_EDGE('',*,*,#630,.F.);
#911=ORIENTED_EDGE('',*,*,#640,.F.);
#912=ORIENTED_EDGE('',*,*,#636,.F.);
#913=ORIENTED_EDGE('',*,*,#641,.F.);
#914=ORIENTED_EDGE('',*,*,#642,.T.);
#915=ORIENTED_EDGE('',*,*,#643,.F.);
#916=ORIENTED_EDGE('',*,*,#644,.F.);
#917=ORIENTED_EDGE('',*,*,#645,.F.);
#918=ORIENTED_EDGE('',*,*,#646,.F.);
#919=ORIENTED_EDGE('',*,*,#647,.F.);
#920=ORIENTED_EDGE('',*,*,#648,.F.);
#921=ORIENTED_EDGE('',*,*,#649,.F.);
#922=ORIENTED_EDGE('',*,*,#648,.T.);
#923=ORIENTED_EDGE('',*,*,#650,.F.);
#924=ORIENTED_EDGE('',*,*,#642,.F.);
#925=ORIENTED_EDGE('',*,*,#643,.T.);
#926=ORIENTED_EDGE('',*,*,#650,.T.);
#927=ORIENTED_EDGE('',*,*,#647,.T.);
#928=ORIENTED_EDGE('',*,*,#651,.T.);
#929=ORIENTED_EDGE('',*,*,#652,.T.);
#930=ORIENTED_EDGE('',*,*,#653,.T.);
#931=ORIENTED_EDGE('',*,*,#654,.T.);
#932=ORIENTED_EDGE('',*,*,#655,.T.);
#933=ORIENTED_EDGE('',*,*,#646,.T.);
#934=ORIENTED_EDGE('',*,*,#656,.F.);
#935=ORIENTED_EDGE('',*,*,#657,.T.);
#936=ORIENTED_EDGE('',*,*,#651,.F.);
#937=ORIENTED_EDGE('',*,*,#644,.T.);
#938=ORIENTED_EDGE('',*,*,#655,.F.);
#939=ORIENTED_EDGE('',*,*,#658,.F.);
#940=ORIENTED_EDGE('',*,*,#659,.F.);
#941=ORIENTED_EDGE('',*,*,#641,.T.);
#942=ORIENTED_EDGE('',*,*,#659,.T.);
#943=ORIENTED_EDGE('',*,*,#660,.T.);
#944=ORIENTED_EDGE('',*,*,#661,.T.);
#945=ORIENTED_EDGE('',*,*,#662,.T.);
#946=ORIENTED_EDGE('',*,*,#656,.T.);
#947=ORIENTED_EDGE('',*,*,#645,.T.);
#948=ORIENTED_EDGE('',*,*,#649,.T.);
#949=ORIENTED_EDGE('',*,*,#663,.T.);
#950=ORIENTED_EDGE('',*,*,#652,.F.);
#951=ORIENTED_EDGE('',*,*,#657,.F.);
#952=ORIENTED_EDGE('',*,*,#662,.F.);
#953=ORIENTED_EDGE('',*,*,#664,.T.);
#954=ORIENTED_EDGE('',*,*,#653,.F.);
#955=ORIENTED_EDGE('',*,*,#663,.F.);
#956=ORIENTED_EDGE('',*,*,#661,.F.);
#957=ORIENTED_EDGE('',*,*,#658,.T.);
#958=ORIENTED_EDGE('',*,*,#654,.F.);
#959=ORIENTED_EDGE('',*,*,#664,.F.);
#960=ORIENTED_EDGE('',*,*,#660,.F.);
#961=PLANE('',#1079);
#962=PLANE('',#1080);
#963=PLANE('',#1082);
#964=PLANE('',#1083);
#965=PLANE('',#1089);
#966=PLANE('',#1090);
#967=PLANE('',#1091);
#968=PLANE('',#1092);
#969=PLANE('',#1093);
#970=PLANE('',#1094);
#971=PLANE('',#1095);
#972=PLANE('',#1096);
#973=PLANE('',#1097);
#974=PLANE('',#1099);
#975=PLANE('',#1100);
#976=PLANE('',#1106);
#977=PLANE('',#1107);
#978=PLANE('',#1108);
#979=PLANE('',#1109);
#980=PLANE('',#1110);
#981=PLANE('',#1111);
#982=PLANE('',#1112);
#983=PLANE('',#1113);
#984=PLANE('',#1114);
#985=PLANE('',#1115);
#986=PLANE('',#1116);
#987=PLANE('',#1117);
#988=PLANE('',#1118);
#989=PLANE('',#1119);
#990=PLANE('',#1120);
#991=PLANE('',#1121);
#992=PLANE('',#1122);
#993=PLANE('',#1123);
#994=PLANE('',#1124);
#995=PLANE('',#1125);
#996=PLANE('',#1126);
#997=PLANE('',#1127);
#998=PLANE('',#1128);
#999=PLANE('',#1129);
#1000=PLANE('',#1130);
#1001=PLANE('',#1131);
#1002=PLANE('',#1132);
#1003=PLANE('',#1133);
#1004=PLANE('',#1134);
#1005=PLANE('',#1135);
#1006=PLANE('',#1136);
#1007=PLANE('',#1137);
#1008=PLANE('',#1138);
#1009=PLANE('',#1139);
#1010=PLANE('',#1140);
#1011=ADVANCED_FACE('',(#35),#961,.T.);
#1012=ADVANCED_FACE('',(#36),#962,.T.);
#1013=ADVANCED_FACE('',(#37),#963,.F.);
#1014=ADVANCED_FACE('',(#38),#964,.T.);
#1015=ADVANCED_FACE('',(#39),#23,.F.);
#1016=ADVANCED_FACE('',(#40),#965,.F.);
#1017=ADVANCED_FACE('',(#41),#966,.T.);
#1018=ADVANCED_FACE('',(#42),#967,.T.);
#1019=ADVANCED_FACE('',(#43),#968,.T.);
#1020=ADVANCED_FACE('',(#44),#969,.T.);
#1021=ADVANCED_FACE('',(#45),#970,.T.);
#1022=ADVANCED_FACE('',(#46),#971,.F.);
#1023=ADVANCED_FACE('',(#47),#972,.T.);
#1024=ADVANCED_FACE('',(#48),#973,.T.);
#1025=ADVANCED_FACE('',(#49),#974,.F.);
#1026=ADVANCED_FACE('',(#50),#975,.T.);
#1027=ADVANCED_FACE('',(#51),#24,.F.);
#1028=ADVANCED_FACE('',(#52),#976,.T.);
#1029=ADVANCED_FACE('',(#53),#977,.T.);
#1030=ADVANCED_FACE('',(#54),#978,.T.);
#1031=ADVANCED_FACE('',(#55),#979,.T.);
#1032=ADVANCED_FACE('',(#56),#980,.T.);
#1033=ADVANCED_FACE('',(#57),#981,.F.);
#1034=ADVANCED_FACE('',(#58),#982,.F.);
#1035=ADVANCED_FACE('',(#59),#983,.F.);
#1036=ADVANCED_FACE('',(#60),#984,.F.);
#1037=ADVANCED_FACE('',(#61),#985,.F.);
#1038=ADVANCED_FACE('',(#62,#19,#20),#986,.T.);
#1039=ADVANCED_FACE('',(#63),#987,.F.);
#1040=ADVANCED_FACE('',(#64,#21,#22),#988,.F.);
#1041=ADVANCED_FACE('',(#65),#989,.F.);
#1042=ADVANCED_FACE('',(#66),#990,.F.);
#1043=ADVANCED_FACE('',(#67),#991,.T.);
#1044=ADVANCED_FACE('',(#68),#992,.T.);
#1045=ADVANCED_FACE('',(#69),#993,.T.);
#1046=ADVANCED_FACE('',(#70),#994,.F.);
#1047=ADVANCED_FACE('',(#71),#995,.F.);
#1048=ADVANCED_FACE('',(#72),#996,.F.);
#1049=ADVANCED_FACE('',(#73),#997,.T.);
#1050=ADVANCED_FACE('',(#74),#998,.F.);
#1051=ADVANCED_FACE('',(#75),#999,.F.);
#1052=ADVANCED_FACE('',(#76),#1000,.F.);
#1053=ADVANCED_FACE('',(#77),#1001,.T.);
#1054=ADVANCED_FACE('',(#78),#1002,.T.);
#1055=ADVANCED_FACE('',(#79),#1003,.T.);
#1056=ADVANCED_FACE('',(#80),#1004,.F.);
#1057=ADVANCED_FACE('',(#81),#1005,.F.);
#1058=ADVANCED_FACE('',(#82),#1006,.F.);
#1059=ADVANCED_FACE('',(#83),#1007,.T.);
#1060=ADVANCED_FACE('',(#84),#1008,.F.);
#1061=ADVANCED_FACE('',(#85),#1009,.F.);
#1062=ADVANCED_FACE('',(#86),#1010,.F.);
#1063=CLOSED_SHELL('',(#1011,#1012,#1013,#1014,#1015,#1016,#1017,#1018,
#1019,#1020,#1021,#1022,#1023,#1024,#1025,#1026,#1027,#1028,#1029,#1030,
#1031,#1032,#1033,#1034,#1035,#1036,#1037,#1038,#1039,#1040,#1041,#1042));
#1064=CLOSED_SHELL('',(#1043,#1044,#1045,#1046,#1047,#1048,#1049,#1050,
#1051,#1052));
#1065=CLOSED_SHELL('',(#1053,#1054,#1055,#1056,#1057,#1058,#1059,#1060,
#1061,#1062));
#1066=DERIVED_UNIT_ELEMENT(#1068,1.);
#1067=DERIVED_UNIT_ELEMENT(#1709,-3.);
#1068=(
MASS_UNIT()
NAMED_UNIT(*)
SI_UNIT(.KILO.,.GRAM.)
);
#1069=DERIVED_UNIT((#1066,#1067));
#1070=MEASURE_REPRESENTATION_ITEM('density measure',
POSITIVE_RATIO_MEASURE(7850.),#1069);
#1071=PROPERTY_DEFINITION_REPRESENTATION(#1076,#1073);
#1072=PROPERTY_DEFINITION_REPRESENTATION(#1077,#1074);
#1073=REPRESENTATION('material name',(#1075),#1706);
#1074=REPRESENTATION('density',(#1070),#1706);
#1075=DESCRIPTIVE_REPRESENTATION_ITEM('Steel','Steel');
#1076=PROPERTY_DEFINITION('material property','material name',#1716);
#1077=PROPERTY_DEFINITION('material property','density of part',#1716);
#1078=AXIS2_PLACEMENT_3D('',#1405,#1141,#1142);
#1079=AXIS2_PLACEMENT_3D('',#1406,#1143,#1144);
#1080=AXIS2_PLACEMENT_3D('',#1415,#1149,#1150);
#1081=AXIS2_PLACEMENT_3D('',#1418,#1151,#1152);
#1082=AXIS2_PLACEMENT_3D('',#1425,#1157,#1158);
#1083=AXIS2_PLACEMENT_3D('',#1434,#1164,#1165);
#1084=AXIS2_PLACEMENT_3D('',#1438,#1168,#1169);
#1085=AXIS2_PLACEMENT_3D('',#1440,#1170,#1171);
#1086=AXIS2_PLACEMENT_3D('',#1444,#1173,#1174);
#1087=AXIS2_PLACEMENT_3D('',#1447,#1176,#1177);
#1088=AXIS2_PLACEMENT_3D('',#1449,#1178,#1179);
#1089=AXIS2_PLACEMENT_3D('',#1451,#1181,#1182);
#1090=AXIS2_PLACEMENT_3D('',#1477,#1196,#1197);
#1091=AXIS2_PLACEMENT_3D('',#1488,#1204,#1205);
#1092=AXIS2_PLACEMENT_3D('',#1494,#1209,#1210);
#1093=AXIS2_PLACEMENT_3D('',#1498,#1213,#1214);
#1094=AXIS2_PLACEMENT_3D('',#1502,#1217,#1218);
#1095=AXIS2_PLACEMENT_3D('',#1504,#1220,#1221);
#1096=AXIS2_PLACEMENT_3D('',#1505,#1222,#1223);
#1097=AXIS2_PLACEMENT_3D('',#1511,#1227,#1228);
#1098=AXIS2_PLACEMENT_3D('',#1514,#1229,#1230);
#1099=AXIS2_PLACEMENT_3D('',#1521,#1235,#1236);
#1100=AXIS2_PLACEMENT_3D('',#1528,#1241,#1242);
#1101=AXIS2_PLACEMENT_3D('',#1530,#1244,#1245);
#1102=AXIS2_PLACEMENT_3D('',#1532,#1246,#1247);
#1103=AXIS2_PLACEMENT_3D('',#1536,#1249,#1250);
#1104=AXIS2_PLACEMENT_3D('',#1539,#1252,#1253);
#1105=AXIS2_PLACEMENT_3D('',#1541,#1254,#1255);
#1106=AXIS2_PLACEMENT_3D('',#1543,#1257,#1258);
#1107=AXIS2_PLACEMENT_3D('',#1554,#1265,#1266);
#1108=AXIS2_PLACEMENT_3D('',#1560,#1270,#1271);
#1109=AXIS2_PLACEMENT_3D('',#1564,#1274,#1275);
#1110=AXIS2_PLACEMENT_3D('',#1568,#1278,#1279);
#1111=AXIS2_PLACEMENT_3D('',#1570,#1281,#1282);
#1112=AXIS2_PLACEMENT_3D('',#1571,#1283,#1284);
#1113=AXIS2_PLACEMENT_3D('',#1577,#1288,#1289);
#1114=AXIS2_PLACEMENT_3D('',#1581,#1292,#1293);
#1115=AXIS2_PLACEMENT_3D('',#1585,#1296,#1297);
#1116=AXIS2_PLACEMENT_3D('',#1587,#1299,#1300);
#1117=AXIS2_PLACEMENT_3D('',#1593,#1304,#1305);
#1118=AXIS2_PLACEMENT_3D('',#1599,#1309,#1310);
#1119=AXIS2_PLACEMENT_3D('',#1602,#1313,#1314);
#1120=AXIS2_PLACEMENT_3D('',#1603,#1315,#1316);
#1121=AXIS2_PLACEMENT_3D('',#1604,#1317,#1318);
#1122=AXIS2_PLACEMENT_3D('',#1613,#1323,#1324);
#1123=AXIS2_PLACEMENT_3D('',#1622,#1329,#1330);
#1124=AXIS2_PLACEMENT_3D('',#1625,#1333,#1334);
#1125=AXIS2_PLACEMENT_3D('',#1635,#1340,#1341);
#1126=AXIS2_PLACEMENT_3D('',#1639,#1344,#1345);
#1127=AXIS2_PLACEMENT_3D('',#1643,#1348,#1349);
#1128=AXIS2_PLACEMENT_3D('',#1649,#1353,#1354);
#1129=AXIS2_PLACEMENT_3D('',#1651,#1356,#1357);
#1130=AXIS2_PLACEMENT_3D('',#1653,#1359,#1360);
#1131=AXIS2_PLACEMENT_3D('',#1654,#1361,#1362);
#1132=AXIS2_PLACEMENT_3D('',#1663,#1367,#1368);
#1133=AXIS2_PLACEMENT_3D('',#1672,#1373,#1374);
#1134=AXIS2_PLACEMENT_3D('',#1675,#1377,#1378);
#1135=AXIS2_PLACEMENT_3D('',#1685,#1384,#1385);
#1136=AXIS2_PLACEMENT_3D('',#1689,#1388,#1389);
#1137=AXIS2_PLACEMENT_3D('',#1693,#1392,#1393);
#1138=AXIS2_PLACEMENT_3D('',#1699,#1397,#1398);
#1139=AXIS2_PLACEMENT_3D('',#1701,#1400,#1401);
#1140=AXIS2_PLACEMENT_3D('',#1703,#1403,#1404);
#1141=DIRECTION('axis',(0.,0.,1.));
#1142=DIRECTION('refdir',(1.,0.,0.));
#1143=DIRECTION('center_axis',(1.,0.,0.));
#1144=DIRECTION('ref_axis',(0.,0.,-1.));
#1145=DIRECTION('',(0.,0.,-1.));
#1146=DIRECTION('',(0.,-1.,0.));
#1147=DIRECTION('',(0.,0.,-1.));
#1148=DIRECTION('',(0.,-1.,0.));
#1149=DIRECTION('center_axis',(0.,1.,0.));
#1150=DIRECTION('ref_axis',(0.,0.,1.));
#1151=DIRECTION('center_axis',(0.,1.,0.));
#1152=DIRECTION('ref_axis',(1.,0.,0.));
#1153=DIRECTION('',(1.,0.,0.));
#1154=DIRECTION('',(0.,0.,-1.));
#1155=DIRECTION('',(1.,0.,0.));
#1156=DIRECTION('',(1.,0.,0.));
#1157=DIRECTION('center_axis',(0.,0.,1.));
#1158=DIRECTION('ref_axis',(1.,0.,0.));
#1159=DIRECTION('',(0.,-1.,0.));
#1160=DIRECTION('',(1.,0.,0.));
#1161=DIRECTION('',(0.,1.,0.));
#1162=DIRECTION('',(-1.,0.,0.));
#1163=DIRECTION('',(0.,1.,0.));
#1164=DIRECTION('center_axis',(-1.,0.,0.));
#1165=DIRECTION('ref_axis',(0.,0.,1.));
#1166=DIRECTION('',(0.,0.,1.));
#1167=DIRECTION('',(0.,1.,0.));
#1168=DIRECTION('center_axis',(0.,1.,0.));
#1169=DIRECTION('ref_axis',(1.,0.,0.));
#1170=DIRECTION('center_axis',(0.,1.,0.));
#1171=DIRECTION('ref_axis',(1.,0.,0.));
#1172=DIRECTION('',(0.,1.,0.));
#1173=DIRECTION('center_axis',(0.,1.,0.));
#1174=DIRECTION('ref_axis',(1.,0.,0.));
#1175=DIRECTION('',(0.,1.,0.));
#1176=DIRECTION('center_axis',(0.,1.,0.));
#1177=DIRECTION('ref_axis',(1.,0.,0.));
#1178=DIRECTION('center_axis',(0.,1.,0.));
#1179=DIRECTION('ref_axis',(1.,0.,0.));
#1180=DIRECTION('',(0.,-1.,0.));
#1181=DIRECTION('center_axis',(0.,-1.,0.));
#1182=DIRECTION('ref_axis',(0.,0.,-1.));
#1183=DIRECTION('',(1.,0.,0.));
#1184=DIRECTION('',(0.,0.,1.));
#1185=DIRECTION('',(-1.,0.,0.));
#1186=DIRECTION('',(0.,0.,-1.));
#1187=DIRECTION('',(1.,0.,0.));
#1188=DIRECTION('',(0.,0.,-1.));
#1189=DIRECTION('',(-1.,0.,0.));
#1190=DIRECTION('',(0.,0.,-1.));
#1191=DIRECTION('',(1.,0.,0.));
#1192=DIRECTION('',(0.,0.,1.));
#1193=DIRECTION('',(-1.,0.,0.));
#1194=DIRECTION('',(0.,0.,-1.));
#1195=DIRECTION('',(1.,0.,0.));
#1196=DIRECTION('center_axis',(0.,0.,1.));
#1197=DIRECTION('ref_axis',(1.,0.,0.));
#1198=DIRECTION('',(-1.,0.,0.));
#1199=DIRECTION('',(0.,-1.,0.));
#1200=DIRECTION('',(1.,0.,0.));
#1201=DIRECTION('',(0.,1.,0.));
#1202=DIRECTION('',(-1.,0.,0.));
#1203=DIRECTION('',(-1.,0.,0.));
#1204=DIRECTION('center_axis',(0.,-1.,0.));
#1205=DIRECTION('ref_axis',(0.,0.,-1.));
#1206=DIRECTION('',(1.,0.,0.));
#1207=DIRECTION('',(0.,0.,-1.));
#1208=DIRECTION('',(0.,0.,-1.));
#1209=DIRECTION('center_axis',(-1.,0.,0.));
#1210=DIRECTION('ref_axis',(0.,0.,1.));
#1211=DIRECTION('',(0.,-1.,0.));
#1212=DIRECTION('',(0.,0.,-1.));
#1213=DIRECTION('center_axis',(0.,1.,0.));
#1214=DIRECTION('ref_axis',(0.,0.,1.));
#1215=DIRECTION('',(0.,0.,-1.));
#1216=DIRECTION('',(-1.,0.,0.));
#1217=DIRECTION('center_axis',(1.,0.,0.));
#1218=DIRECTION('ref_axis',(0.,0.,-1.));
#1219=DIRECTION('',(0.,1.,0.));
#1220=DIRECTION('center_axis',(0.,1.,0.));
#1221=DIRECTION('ref_axis',(1.,0.,0.));
#1222=DIRECTION('center_axis',(1.,0.,0.));
#1223=DIRECTION('ref_axis',(0.,0.,-1.));
#1224=DIRECTION('',(0.,-1.,0.));
#1225=DIRECTION('',(0.,0.,-1.));
#1226=DIRECTION('',(0.,-1.,0.));
#1227=DIRECTION('center_axis',(0.,1.,0.));
#1228=DIRECTION('ref_axis',(0.,0.,1.));
#1229=DIRECTION('center_axis',(0.,1.,0.));
#1230=DIRECTION('ref_axis',(1.,0.,0.));
#1231=DIRECTION('',(1.,0.,0.));
#1232=DIRECTION('',(0.,0.,-1.));
#1233=DIRECTION('',(1.,0.,0.));
#1234=DIRECTION('',(1.,0.,0.));
#1235=DIRECTION('center_axis',(0.,0.,1.));
#1236=DIRECTION('ref_axis',(1.,0.,0.));
#1237=DIRECTION('',(0.,-1.,0.));
#1238=DIRECTION('',(1.,0.,0.));
#1239=DIRECTION('',(0.,1.,0.));
#1240=DIRECTION('',(0.,1.,0.));
#1241=DIRECTION('center_axis',(-1.,0.,0.));
#1242=DIRECTION('ref_axis',(0.,0.,1.));
#1243=DIRECTION('',(0.,1.,0.));
#1244=DIRECTION('center_axis',(0.,1.,0.));
#1245=DIRECTION('ref_axis',(1.,0.,0.));
#1246=DIRECTION('center_axis',(0.,1.,0.));
#1247=DIRECTION('ref_axis',(1.,0.,0.));
#1248=DIRECTION('',(0.,1.,0.));
#1249=DIRECTION('center_axis',(0.,1.,0.));
#1250=DIRECTION('ref_axis',(1.,0.,0.));
#1251=DIRECTION('',(0.,1.,0.));
#1252=DIRECTION('center_axis',(0.,1.,0.));
#1253=DIRECTION('ref_axis',(1.,0.,0.));
#1254=DIRECTION('center_axis',(0.,1.,0.));
#1255=DIRECTION('ref_axis',(1.,0.,0.));
#1256=DIRECTION('',(0.,-1.,0.));
#1257=DIRECTION('center_axis',(0.,0.,1.));
#1258=DIRECTION('ref_axis',(1.,0.,0.));
#1259=DIRECTION('',(-1.,0.,0.));
#1260=DIRECTION('',(0.,-1.,0.));
#1261=DIRECTION('',(1.,0.,0.));
#1262=DIRECTION('',(0.,1.,0.));
#1263=DIRECTION('',(-1.,0.,0.));
#1264=DIRECTION('',(-1.,0.,0.));
#1265=DIRECTION('center_axis',(0.,-1.,0.));
#1266=DIRECTION('ref_axis',(0.,0.,-1.));
#1267=DIRECTION('',(1.,0.,0.));
#1268=DIRECTION('',(0.,0.,-1.));
#1269=DIRECTION('',(0.,0.,-1.));
#1270=DIRECTION('center_axis',(-1.,0.,0.));
#1271=DIRECTION('ref_axis',(0.,0.,1.));
#1272=DIRECTION('',(0.,-1.,0.));
#1273=DIRECTION('',(0.,0.,-1.));
#1274=DIRECTION('center_axis',(0.,1.,0.));
#1275=DIRECTION('ref_axis',(0.,0.,1.));
#1276=DIRECTION('',(0.,0.,-1.));
#1277=DIRECTION('',(-1.,0.,0.));
#1278=DIRECTION('center_axis',(1.,0.,0.));
#1279=DIRECTION('ref_axis',(0.,0.,-1.));
#1280=DIRECTION('',(0.,1.,0.));
#1281=DIRECTION('center_axis',(0.,1.,0.));
#1282=DIRECTION('ref_axis',(1.,0.,0.));
#1283=DIRECTION('center_axis',(1.,0.,0.));
#1284=DIRECTION('ref_axis',(0.,0.,-1.));
#1285=DIRECTION('',(0.,-1.,0.));
#1286=DIRECTION('',(0.,0.,-1.));
#1287=DIRECTION('',(0.,1.,0.));
#1288=DIRECTION('center_axis',(0.,0.,1.));
#1289=DIRECTION('ref_axis',(1.,0.,0.));
#1290=DIRECTION('',(1.,0.,0.));
#1291=DIRECTION('',(0.,-1.,0.));
#1292=DIRECTION('center_axis',(0.,-1.,0.));
#1293=DIRECTION('ref_axis',(0.,0.,-1.));
#1294=DIRECTION('',(0.,0.,-1.));
#1295=DIRECTION('',(-1.,0.,0.));
#1296=DIRECTION('center_axis',(-1.,0.,0.));
#1297=DIRECTION('ref_axis',(0.,0.,1.));
#1298=DIRECTION('',(0.,1.,0.));
#1299=DIRECTION('center_axis',(0.,0.,1.));
#1300=DIRECTION('ref_axis',(1.,0.,0.));
#1301=DIRECTION('',(0.,-1.,0.));
#1302=DIRECTION('',(1.,0.,0.));
#1303=DIRECTION('',(0.,1.,0.));
#1304=DIRECTION('center_axis',(0.,0.,1.));
#1305=DIRECTION('ref_axis',(1.,0.,0.));
#1306=DIRECTION('',(0.,-1.,0.));
#1307=DIRECTION('',(-1.,0.,0.));
#1308=DIRECTION('',(0.,1.,0.));
#1309=DIRECTION('center_axis',(0.,1.,0.));
#1310=DIRECTION('ref_axis',(0.,0.,1.));
#1311=DIRECTION('',(0.,0.,-1.));
#1312=DIRECTION('',(0.,0.,-1.));
#1313=DIRECTION('center_axis',(1.,0.,0.));
#1314=DIRECTION('ref_axis',(0.,0.,-1.));
#1315=DIRECTION('center_axis',(-1.,0.,0.));
#1316=DIRECTION('ref_axis',(0.,0.,1.));
#1317=DIRECTION('center_axis',(-1.,0.,0.));
#1318=DIRECTION('ref_axis',(0.,0.,1.));
#1319=DIRECTION('',(0.,-1.,0.));
#1320=DIRECTION('',(0.,0.,-1.));
#1321=DIRECTION('',(0.,1.,0.));
#1322=DIRECTION('',(0.,0.,-1.));
#1323=DIRECTION('center_axis',(1.,0.,0.));
#1324=DIRECTION('ref_axis',(0.,0.,-1.));
#1325=DIRECTION('',(0.,1.,0.));
#1326=DIRECTION('',(0.,0.,1.));
#1327=DIRECTION('',(0.,-1.,0.));
#1328=DIRECTION('',(0.,0.,-1.));
#1329=DIRECTION('center_axis',(0.,-1.,0.));
#1330=DIRECTION('ref_axis',(0.,0.,-1.));
#1331=DIRECTION('',(1.,0.,0.));
#1332=DIRECTION('',(-1.,0.,0.));
#1333=DIRECTION('center_axis',(0.,0.,1.));
#1334=DIRECTION('ref_axis',(1.,0.,0.));
#1335=DIRECTION('',(-1.,0.,0.));
#1336=DIRECTION('',(0.,1.,0.));
#1337=DIRECTION('',(1.,0.,0.));
#1338=DIRECTION('',(0.,-1.,0.));
#1339=DIRECTION('',(-1.,0.,0.));
#1340=DIRECTION('center_axis',(0.,1.,0.));
#1341=DIRECTION('ref_axis',(0.,0.,1.));
#1342=DIRECTION('',(1.,0.,0.));
#1343=DIRECTION('',(0.,0.,-1.));
#1344=DIRECTION('center_axis',(0.,1.,0.));
#1345=DIRECTION('ref_axis',(0.,0.,1.));
#1346=DIRECTION('',(0.,0.,-1.));
#1347=DIRECTION('',(1.,0.,0.));
#1348=DIRECTION('center_axis',(0.,0.,1.));
#1349=DIRECTION('ref_axis',(1.,0.,0.));
#1350=DIRECTION('',(0.,1.,0.));
#1351=DIRECTION('',(-1.,0.,0.));
#1352=DIRECTION('',(0.,-1.,0.));
#1353=DIRECTION('center_axis',(1.,0.,0.));
#1354=DIRECTION('ref_axis',(0.,0.,-1.));
#1355=DIRECTION('',(0.,0.,-1.));
#1356=DIRECTION('center_axis',(0.,-1.,0.));
#1357=DIRECTION('ref_axis',(0.,0.,-1.));
#1358=DIRECTION('',(0.,0.,-1.));
#1359=DIRECTION('center_axis',(-1.,0.,0.));
#1360=DIRECTION('ref_axis',(0.,0.,1.));
#1361=DIRECTION('center_axis',(-1.,0.,0.));
#1362=DIRECTION('ref_axis',(0.,0.,1.));
#1363=DIRECTION('',(0.,-1.,0.));
#1364=DIRECTION('',(0.,0.,-1.));
#1365=DIRECTION('',(0.,1.,0.));
#1366=DIRECTION('',(0.,0.,-1.));
#1367=DIRECTION('center_axis',(1.,0.,0.));
#1368=DIRECTION('ref_axis',(0.,0.,-1.));
#1369=DIRECTION('',(0.,1.,0.));
#1370=DIRECTION('',(0.,0.,1.));
#1371=DIRECTION('',(0.,-1.,0.));
#1372=DIRECTION('',(0.,0.,-1.));
#1373=DIRECTION('center_axis',(0.,-1.,0.));
#1374=DIRECTION('ref_axis',(0.,0.,-1.));
#1375=DIRECTION('',(1.,0.,0.));
#1376=DIRECTION('',(-1.,0.,0.));
#1377=DIRECTION('center_axis',(0.,0.,1.));
#1378=DIRECTION('ref_axis',(1.,0.,0.));
#1379=DIRECTION('',(-1.,0.,0.));
#1380=DIRECTION('',(0.,1.,0.));
#1381=DIRECTION('',(1.,0.,0.));
#1382=DIRECTION('',(0.,-1.,0.));
#1383=DIRECTION('',(-1.,0.,0.));
#1384=DIRECTION('center_axis',(0.,1.,0.));
#1385=DIRECTION('ref_axis',(0.,0.,1.));
#1386=DIRECTION('',(1.,0.,0.));
#1387=DIRECTION('',(0.,0.,-1.));
#1388=DIRECTION('center_axis',(0.,1.,0.));
#1389=DIRECTION('ref_axis',(0.,0.,1.));
#1390=DIRECTION('',(0.,0.,-1.));
#1391=DIRECTION('',(1.,0.,0.));
#1392=DIRECTION('center_axis',(0.,0.,1.));
#1393=DIRECTION('ref_axis',(1.,0.,0.));
#1394=DIRECTION('',(0.,1.,0.));
#1395=DIRECTION('',(-1.,0.,0.));
#1396=DIRECTION('',(0.,-1.,0.));
#1397=DIRECTION('center_axis',(1.,0.,0.));
#1398=DIRECTION('ref_axis',(0.,0.,-1.));
#1399=DIRECTION('',(0.,0.,-1.));
#1400=DIRECTION('center_axis',(0.,-1.,0.));
#1401=DIRECTION('ref_axis',(0.,0.,-1.));
#1402=DIRECTION('',(0.,0.,-1.));
#1403=DIRECTION('center_axis',(-1.,0.,0.));
#1404=DIRECTION('ref_axis',(0.,0.,1.));
#1405=CARTESIAN_POINT('',(0.,0.,0.));
#1406=CARTESIAN_POINT('Origin',(0.28,0.855,0.3745));
#1407=CARTESIAN_POINT('',(0.28,1.5,0.55));
#1408=CARTESIAN_POINT('',(0.28,1.5,0.2));
#1409=CARTESIAN_POINT('',(0.28,1.5,0.58725));
#1410=CARTESIAN_POINT('',(0.28,0.2,0.55));
#1411=CARTESIAN_POINT('',(0.28,0.855,0.55));
#1412=CARTESIAN_POINT('',(0.28,0.2,0.2));
#1413=CARTESIAN_POINT('',(0.28,0.2,0.3745));
#1414=CARTESIAN_POINT('',(0.28,0.3025,0.2));
#1415=CARTESIAN_POINT('Origin',(0.6,0.2,0.3745));
#1416=CARTESIAN_POINT('',(0.791637678967368,0.2,0.55));
#1417=CARTESIAN_POINT('',(0.408362321032632,0.2,0.55));
#1418=CARTESIAN_POINT('Origin',(0.6,0.2,0.8));
#1419=CARTESIAN_POINT('',(0.92,0.2,0.55));
#1420=CARTESIAN_POINT('',(0.6,0.2,0.55));
#1421=CARTESIAN_POINT('',(0.92,0.2,0.2));
#1422=CARTESIAN_POINT('',(0.92,0.2,0.3745));
#1423=CARTESIAN_POINT('',(0.3,0.2,0.2));
#1424=CARTESIAN_POINT('',(0.6,0.2,0.55));
#1425=CARTESIAN_POINT('Origin',(0.6,0.855,0.55));
#1426=CARTESIAN_POINT('',(0.791637678967368,0.7,0.55));
#1427=CARTESIAN_POINT('',(0.791637678967368,-0.7,0.55));
#1428=CARTESIAN_POINT('',(0.408362321032632,0.7,0.55));
#1429=CARTESIAN_POINT('',(0.6,0.7,0.55));
#1430=CARTESIAN_POINT('',(0.408362321032632,-0.7,0.55));
#1431=CARTESIAN_POINT('',(0.92,1.5,0.55));
#1432=CARTESIAN_POINT('',(0.3,1.5,0.55));
#1433=CARTESIAN_POINT('',(0.92,0.855,0.55));
#1434=CARTESIAN_POINT('Origin',(0.92,0.855,0.3745));
#1435=CARTESIAN_POINT('',(0.92,1.5,0.2));
#1436=CARTESIAN_POINT('',(0.92,1.5,0.58725));
#1437=CARTESIAN_POINT('',(0.92,0.3025,0.2));
#1438=CARTESIAN_POINT('Origin',(0.6,-0.7,0.8));
#1439=CARTESIAN_POINT('',(0.285,-2.,0.8));
#1440=CARTESIAN_POINT('Origin',(0.6,-2.,0.8));
#1441=CARTESIAN_POINT('',(0.285,-1.1,0.8));
#1442=CARTESIAN_POINT('',(0.285,-0.7,0.8));
#1443=CARTESIAN_POINT('',(0.915,-1.1,0.8));
#1444=CARTESIAN_POINT('Origin',(0.6,-1.1,0.8));
#1445=CARTESIAN_POINT('',(0.915,0.7,0.8));
#1446=CARTESIAN_POINT('',(0.915,-0.7,0.8));
#1447=CARTESIAN_POINT('Origin',(0.6,0.7,0.8));
#1448=CARTESIAN_POINT('',(0.285,0.7,0.8));
#1449=CARTESIAN_POINT('Origin',(0.6,0.7,0.8));
#1450=CARTESIAN_POINT('',(0.285,-0.7,0.8));
#1451=CARTESIAN_POINT('Origin',(0.,1.5,0.8));
#1452=CARTESIAN_POINT('',(-0.28,1.5,0.2));
#1453=CARTESIAN_POINT('',(0.,1.5,0.2));
#1454=CARTESIAN_POINT('',(-0.28,1.5,0.55));
#1455=CARTESIAN_POINT('',(-0.28,1.5,0.58725));
#1456=CARTESIAN_POINT('',(-0.92,1.5,0.55));
#1457=CARTESIAN_POINT('',(-0.3,1.5,0.55));
#1458=CARTESIAN_POINT('',(-0.92,1.5,0.2));
#1459=CARTESIAN_POINT('',(-0.92,1.5,0.58725));
#1460=CARTESIAN_POINT('',(-1.3,1.5,0.2));
#1461=CARTESIAN_POINT('',(0.,1.5,0.2));
#1462=CARTESIAN_POINT('',(-1.3,1.5,1.4));
#1463=CARTESIAN_POINT('',(-1.3,1.5,0.8));
#1464=CARTESIAN_POINT('',(-1.,1.5,1.4));
#1465=CARTESIAN_POINT('',(0.,1.5,1.4));
#1466=CARTESIAN_POINT('',(-1.,1.5,0.7));
#1467=CARTESIAN_POINT('',(-1.,1.5,0.925));
#1468=CARTESIAN_POINT('',(1.,1.5,0.7));
#1469=CARTESIAN_POINT('',(0.,1.5,0.7));
#1470=CARTESIAN_POINT('',(1.,1.5,1.4));
#1471=CARTESIAN_POINT('',(1.,1.5,0.925));
#1472=CARTESIAN_POINT('',(1.3,1.5,1.4));
#1473=CARTESIAN_POINT('',(0.,1.5,1.4));
#1474=CARTESIAN_POINT('',(1.3,1.5,0.2));
#1475=CARTESIAN_POINT('',(1.3,1.5,0.8));
#1476=CARTESIAN_POINT('',(0.,1.5,0.2));
#1477=CARTESIAN_POINT('Origin',(0.6,-0.175,0.8));
#1478=CARTESIAN_POINT('',(0.92,-1.1,0.8));
#1479=CARTESIAN_POINT('',(0.6,-1.1,0.8));
#1480=CARTESIAN_POINT('',(0.92,0.75,0.8));
#1481=CARTESIAN_POINT('',(0.92,-0.175,0.8));
#1482=CARTESIAN_POINT('',(0.28,0.75,0.8));
#1483=CARTESIAN_POINT('',(0.6,0.75,0.8));
#1484=CARTESIAN_POINT('',(0.28,-1.1,0.8));
#1485=CARTESIAN_POINT('',(0.28,-0.175,0.8));
#1486=CARTESIAN_POINT('',(0.6,-1.1,0.8));
#1487=CARTESIAN_POINT('',(0.6,0.7,0.8));
#1488=CARTESIAN_POINT('Origin',(0.6,0.75,1.105));
#1489=CARTESIAN_POINT('',(0.28,0.75,1.4));
#1490=CARTESIAN_POINT('',(0.92,0.75,1.4));
#1491=CARTESIAN_POINT('',(0.3,0.75,1.4));
#1492=CARTESIAN_POINT('',(0.28,0.75,1.105));
#1493=CARTESIAN_POINT('',(0.92,0.75,1.105));
#1494=CARTESIAN_POINT('Origin',(0.92,-0.175,1.105));
#1495=CARTESIAN_POINT('',(0.92,-1.1,1.4));
#1496=CARTESIAN_POINT('',(0.92,-0.2125,1.4));
#1497=CARTESIAN_POINT('',(0.92,-1.1,1.105));
#1498=CARTESIAN_POINT('Origin',(0.6,-1.1,1.105));
#1499=CARTESIAN_POINT('',(0.28,-1.1,1.4));
#1500=CARTESIAN_POINT('',(0.28,-1.1,1.105));
#1501=CARTESIAN_POINT('',(0.3,-1.1,1.4));
#1502=CARTESIAN_POINT('Origin',(0.28,-0.175,1.105));
#1503=CARTESIAN_POINT('',(0.28,-0.2125,1.4));
#1504=CARTESIAN_POINT('Origin',(0.6,0.7,0.8));
#1505=CARTESIAN_POINT('Origin',(-0.92,0.855,0.3745));
#1506=CARTESIAN_POINT('',(-0.92,0.2,0.55));
#1507=CARTESIAN_POINT('',(-0.92,0.855,0.55));
#1508=CARTESIAN_POINT('',(-0.92,0.2,0.2));
#1509=CARTESIAN_POINT('',(-0.92,0.2,0.3745));
#1510=CARTESIAN_POINT('',(-0.92,0.3025,0.2));
#1511=CARTESIAN_POINT('Origin',(-0.6,0.2,0.3745));
#1512=CARTESIAN_POINT('',(-0.408362321032632,0.2,0.55));
#1513=CARTESIAN_POINT('',(-0.791637678967368,0.2,0.55));
#1514=CARTESIAN_POINT('Origin',(-0.6,0.2,0.8));
#1515=CARTESIAN_POINT('',(-0.28,0.2,0.55));
#1516=CARTESIAN_POINT('',(-0.6,0.2,0.55));
#1517=CARTESIAN_POINT('',(-0.28,0.2,0.2));
#1518=CARTESIAN_POINT('',(-0.28,0.2,0.3745));
#1519=CARTESIAN_POINT('',(-0.3,0.2,0.2));
#1520=CARTESIAN_POINT('',(-0.6,0.2,0.55));
#1521=CARTESIAN_POINT('Origin',(-0.6,0.855,0.55));
#1522=CARTESIAN_POINT('',(-0.408362321032632,0.7,0.55));
#1523=CARTESIAN_POINT('',(-0.408362321032632,-0.7,0.55));
#1524=CARTESIAN_POINT('',(-0.791637678967368,0.7,0.55));
#1525=CARTESIAN_POINT('',(-0.6,0.7,0.55));
#1526=CARTESIAN_POINT('',(-0.791637678967368,-0.7,0.55));
#1527=CARTESIAN_POINT('',(-0.28,0.855,0.55));
#1528=CARTESIAN_POINT('Origin',(-0.28,0.855,0.3745));
#1529=CARTESIAN_POINT('',(-0.28,0.3025,0.2));
#1530=CARTESIAN_POINT('Origin',(-0.6,-0.7,0.8));
#1531=CARTESIAN_POINT('',(-0.915,-2.,0.8));
#1532=CARTESIAN_POINT('Origin',(-0.6,-2.,0.8));
#1533=CARTESIAN_POINT('',(-0.915,-1.1,0.8));
#1534=CARTESIAN_POINT('',(-0.915,-0.7,0.8));
#1535=CARTESIAN_POINT('',(-0.285,-1.1,0.8));
#1536=CARTESIAN_POINT('Origin',(-0.6,-1.1,0.8));
#1537=CARTESIAN_POINT('',(-0.285,0.7,0.8));
#1538=CARTESIAN_POINT('',(-0.285,-0.7,0.8));
#1539=CARTESIAN_POINT('Origin',(-0.6,0.7,0.8));
#1540=CARTESIAN_POINT('',(-0.915,0.7,0.8));
#1541=CARTESIAN_POINT('Origin',(-0.6,0.7,0.8));
#1542=CARTESIAN_POINT('',(-0.915,-0.7,0.8));
#1543=CARTESIAN_POINT('Origin',(-0.6,-0.175,0.8));
#1544=CARTESIAN_POINT('',(-0.28,-1.1,0.8));
#1545=CARTESIAN_POINT('',(-0.6,-1.1,0.8));
#1546=CARTESIAN_POINT('',(-0.28,0.75,0.8));
#1547=CARTESIAN_POINT('',(-0.28,-0.175,0.8));
#1548=CARTESIAN_POINT('',(-0.92,0.75,0.8));
#1549=CARTESIAN_POINT('',(-0.6,0.75,0.8));
#1550=CARTESIAN_POINT('',(-0.92,-1.1,0.8));
#1551=CARTESIAN_POINT('',(-0.92,-0.175,0.8));
#1552=CARTESIAN_POINT('',(-0.6,-1.1,0.8));
#1553=CARTESIAN_POINT('',(-0.6,0.7,0.8));
#1554=CARTESIAN_POINT('Origin',(-0.6,0.75,1.105));
#1555=CARTESIAN_POINT('',(-0.92,0.75,1.4));
#1556=CARTESIAN_POINT('',(-0.28,0.75,1.4));
#1557=CARTESIAN_POINT('',(-0.3,0.75,1.4));
#1558=CARTESIAN_POINT('',(-0.92,0.75,1.105));
#1559=CARTESIAN_POINT('',(-0.28,0.75,1.105));
#1560=CARTESIAN_POINT('Origin',(-0.28,-0.175,1.105));
#1561=CARTESIAN_POINT('',(-0.28,-1.1,1.4));
#1562=CARTESIAN_POINT('',(-0.28,-0.2125,1.4));
#1563=CARTESIAN_POINT('',(-0.28,-1.1,1.105));
#1564=CARTESIAN_POINT('Origin',(-0.6,-1.1,1.105));
#1565=CARTESIAN_POINT('',(-0.92,-1.1,1.4));
#1566=CARTESIAN_POINT('',(-0.92,-1.1,1.105));
#1567=CARTESIAN_POINT('',(-0.3,-1.1,1.4));
#1568=CARTESIAN_POINT('Origin',(-0.92,-0.175,1.105));
#1569=CARTESIAN_POINT('',(-0.92,-0.2125,1.4));
#1570=CARTESIAN_POINT('Origin',(-0.6,0.7,0.8));
#1571=CARTESIAN_POINT('Origin',(-1.,1.625,1.05));
#1572=CARTESIAN_POINT('',(-1.,1.8,1.4));
#1573=CARTESIAN_POINT('',(-1.,1.625,1.4));
#1574=CARTESIAN_POINT('',(-1.,1.8,0.7));
#1575=CARTESIAN_POINT('',(-1.,1.8,1.05));
#1576=CARTESIAN_POINT('',(-1.,1.625,0.7));
#1577=CARTESIAN_POINT('Origin',(0.,1.625,0.7));
#1578=CARTESIAN_POINT('',(1.,1.8,0.7));
#1579=CARTESIAN_POINT('',(0.,1.8,0.7));
#1580=CARTESIAN_POINT('',(1.,1.625,0.7));
#1581=CARTESIAN_POINT('Origin',(0.,1.8,1.05));
#1582=CARTESIAN_POINT('',(1.,1.8,1.4));
#1583=CARTESIAN_POINT('',(1.,1.8,1.05));
#1584=CARTESIAN_POINT('',(0.,1.8,1.4));
#1585=CARTESIAN_POINT('Origin',(1.,1.625,1.05));
#1586=CARTESIAN_POINT('',(1.,1.625,1.4));
#1587=CARTESIAN_POINT('Origin',(0.,-0.25,1.4));
#1588=CARTESIAN_POINT('',(-1.3,-2.,1.4));
#1589=CARTESIAN_POINT('',(-1.3,-0.25,1.4));
#1590=CARTESIAN_POINT('',(1.3,-2.,1.4));
#1591=CARTESIAN_POINT('',(0.,-2.,1.4));
#1592=CARTESIAN_POINT('',(1.3,-0.25,1.4));
#1593=CARTESIAN_POINT('Origin',(0.,-0.25,0.2));
#1594=CARTESIAN_POINT('',(1.3,-2.,0.2));
#1595=CARTESIAN_POINT('',(1.3,-0.25,0.2));
#1596=CARTESIAN_POINT('',(-1.3,-2.,0.2));
#1597=CARTESIAN_POINT('',(0.,-2.,0.2));
#1598=CARTESIAN_POINT('',(-1.3,-0.25,0.2));
#1599=CARTESIAN_POINT('Origin',(0.,-2.,0.8));
#1600=CARTESIAN_POINT('',(-1.3,-2.,0.8));
#1601=CARTESIAN_POINT('',(1.3,-2.,0.8));
#1602=CARTESIAN_POINT('Origin',(-1.3,-0.25,0.8));
#1603=CARTESIAN_POINT('Origin',(1.3,-0.25,0.8));
#1604=CARTESIAN_POINT('Origin',(-0.47,-0.905,0.6));
#1605=CARTESIAN_POINT('',(-0.47,-0.5,0.65));
#1606=CARTESIAN_POINT('',(-0.47,-1.3,0.65));
#1607=CARTESIAN_POINT('',(-0.47,-0.6025,0.65));
#1608=CARTESIAN_POINT('',(-0.47,-0.5,0.55));
#1609=CARTESIAN_POINT('',(-0.47,-0.5,0.6));
#1610=CARTESIAN_POINT('',(-0.47,-1.3,0.55));
#1611=CARTESIAN_POINT('',(-0.47,-0.6025,0.55));
#1612=CARTESIAN_POINT('',(-0.47,-1.3,0.6));
#1613=CARTESIAN_POINT('Origin',(-0.73,-0.905,0.6));
#1614=CARTESIAN_POINT('',(-0.73,-1.3,0.65));
#1615=CARTESIAN_POINT('',(-0.73,-0.5,0.65));
#1616=CARTESIAN_POINT('',(-0.73,-0.6025,0.65));
#1617=CARTESIAN_POINT('',(-0.73,-1.3,0.55));
#1618=CARTESIAN_POINT('',(-0.73,-1.3,0.6));
#1619=CARTESIAN_POINT('',(-0.73,-0.5,0.55));
#1620=CARTESIAN_POINT('',(-0.73,-0.6025,0.55));
#1621=CARTESIAN_POINT('',(-0.73,-0.5,0.6));
#1622=CARTESIAN_POINT('Origin',(-0.6,-0.5,0.6));
#1623=CARTESIAN_POINT('',(-0.6,-0.5,0.65));
#1624=CARTESIAN_POINT('',(-0.6,-0.5,0.55));
#1625=CARTESIAN_POINT('Origin',(-0.6,-0.3,0.55));
#1626=CARTESIAN_POINT('',(-0.82,-1.3,0.55));
#1627=CARTESIAN_POINT('',(-0.6,-1.3,0.55));
#1628=CARTESIAN_POINT('',(-0.82,0.7,0.55));
#1629=CARTESIAN_POINT('',(-0.82,-0.3,0.55));
#1630=CARTESIAN_POINT('',(-0.38,0.7,0.55));
#1631=CARTESIAN_POINT('',(-0.6,0.7,0.55));
#1632=CARTESIAN_POINT('',(-0.38,-1.3,0.55));
#1633=CARTESIAN_POINT('',(-0.38,-0.3,0.55));
#1634=CARTESIAN_POINT('',(-0.6,-1.3,0.55));
#1635=CARTESIAN_POINT('Origin',(-0.6,-1.3,0.6));
#1636=CARTESIAN_POINT('',(-0.82,-1.3,0.65));
#1637=CARTESIAN_POINT('',(-0.6,-1.3,0.65));
#1638=CARTESIAN_POINT('',(-0.82,-1.3,0.6));
#1639=CARTESIAN_POINT('Origin',(-0.6,-1.3,0.6));
#1640=CARTESIAN_POINT('',(-0.38,-1.3,0.65));
#1641=CARTESIAN_POINT('',(-0.38,-1.3,0.6));
#1642=CARTESIAN_POINT('',(-0.6,-1.3,0.65));
#1643=CARTESIAN_POINT('Origin',(-0.6,-0.3,0.65));
#1644=CARTESIAN_POINT('',(-0.38,0.7,0.65));
#1645=CARTESIAN_POINT('',(-0.38,-0.3,0.65));
#1646=CARTESIAN_POINT('',(-0.82,0.7,0.65));
#1647=CARTESIAN_POINT('',(-0.6,0.7,0.65));
#1648=CARTESIAN_POINT('',(-0.82,-0.3,0.65));
#1649=CARTESIAN_POINT('Origin',(-0.82,-0.3,0.6));
#1650=CARTESIAN_POINT('',(-0.82,0.7,0.6));
#1651=CARTESIAN_POINT('Origin',(-0.6,0.7,0.6));
#1652=CARTESIAN_POINT('',(-0.38,0.7,0.6));
#1653=CARTESIAN_POINT('Origin',(-0.38,-0.3,0.6));
#1654=CARTESIAN_POINT('Origin',(0.73,-0.905,0.6));
#1655=CARTESIAN_POINT('',(0.73,-0.5,0.65));
#1656=CARTESIAN_POINT('',(0.73,-1.3,0.65));
#1657=CARTESIAN_POINT('',(0.73,-0.6025,0.65));
#1658=CARTESIAN_POINT('',(0.73,-0.5,0.55));
#1659=CARTESIAN_POINT('',(0.73,-0.5,0.6));
#1660=CARTESIAN_POINT('',(0.73,-1.3,0.55));
#1661=CARTESIAN_POINT('',(0.73,-0.6025,0.55));
#1662=CARTESIAN_POINT('',(0.73,-1.3,0.6));
#1663=CARTESIAN_POINT('Origin',(0.47,-0.905,0.6));
#1664=CARTESIAN_POINT('',(0.47,-1.3,0.65));
#1665=CARTESIAN_POINT('',(0.47,-0.5,0.65));
#1666=CARTESIAN_POINT('',(0.47,-0.6025,0.65));
#1667=CARTESIAN_POINT('',(0.47,-1.3,0.55));
#1668=CARTESIAN_POINT('',(0.47,-1.3,0.6));
#1669=CARTESIAN_POINT('',(0.47,-0.5,0.55));
#1670=CARTESIAN_POINT('',(0.47,-0.6025,0.55));
#1671=CARTESIAN_POINT('',(0.47,-0.5,0.6));
#1672=CARTESIAN_POINT('Origin',(0.6,-0.5,0.6));
#1673=CARTESIAN_POINT('',(0.6,-0.5,0.65));
#1674=CARTESIAN_POINT('',(0.6,-0.5,0.55));
#1675=CARTESIAN_POINT('Origin',(0.6,-0.3,0.55));
#1676=CARTESIAN_POINT('',(0.38,-1.3,0.55));
#1677=CARTESIAN_POINT('',(0.6,-1.3,0.55));
#1678=CARTESIAN_POINT('',(0.38,0.7,0.55));
#1679=CARTESIAN_POINT('',(0.38,-0.3,0.55));
#1680=CARTESIAN_POINT('',(0.82,0.7,0.55));
#1681=CARTESIAN_POINT('',(0.6,0.7,0.55));
#1682=CARTESIAN_POINT('',(0.82,-1.3,0.55));
#1683=CARTESIAN_POINT('',(0.82,-0.3,0.55));
#1684=CARTESIAN_POINT('',(0.6,-1.3,0.55));
#1685=CARTESIAN_POINT('Origin',(0.6,-1.3,0.6));
#1686=CARTESIAN_POINT('',(0.38,-1.3,0.65));
#1687=CARTESIAN_POINT('',(0.6,-1.3,0.65));
#1688=CARTESIAN_POINT('',(0.38,-1.3,0.6));
#1689=CARTESIAN_POINT('Origin',(0.6,-1.3,0.6));
#1690=CARTESIAN_POINT('',(0.82,-1.3,0.65));
#1691=CARTESIAN_POINT('',(0.82,-1.3,0.6));
#1692=CARTESIAN_POINT('',(0.6,-1.3,0.65));
#1693=CARTESIAN_POINT('Origin',(0.6,-0.3,0.65));
#1694=CARTESIAN_POINT('',(0.82,0.7,0.65));
#1695=CARTESIAN_POINT('',(0.82,-0.3,0.65));
#1696=CARTESIAN_POINT('',(0.38,0.7,0.65));
#1697=CARTESIAN_POINT('',(0.6,0.7,0.65));
#1698=CARTESIAN_POINT('',(0.38,-0.3,0.65));
#1699=CARTESIAN_POINT('Origin',(0.38,-0.3,0.6));
#1700=CARTESIAN_POINT('',(0.38,0.7,0.6));
#1701=CARTESIAN_POINT('Origin',(0.6,0.7,0.6));
#1702=CARTESIAN_POINT('',(0.82,0.7,0.6));
#1703=CARTESIAN_POINT('Origin',(0.82,-0.3,0.6));
#1704=UNCERTAINTY_MEASURE_WITH_UNIT(LENGTH_MEASURE(0.01),#1708,
'DISTANCE_ACCURACY_VALUE',
'Maximum model space distance between geometric entities at asserted c
onnectivities');
#1705=UNCERTAINTY_MEASURE_WITH_UNIT(LENGTH_MEASURE(0.01),#1708,
'DISTANCE_ACCURACY_VALUE',
'Maximum model space distance between geometric entities at asserted c
onnectivities');
#1706=(
GEOMETRIC_REPRESENTATION_CONTEXT(3)
GLOBAL_UNCERTAINTY_ASSIGNED_CONTEXT((#1704))
GLOBAL_UNIT_ASSIGNED_CONTEXT((#1708,#1710,#1711))
REPRESENTATION_CONTEXT('','3D')
);
#1707=(
GEOMETRIC_REPRESENTATION_CONTEXT(3)
GLOBAL_UNCERTAINTY_ASSIGNED_CONTEXT((#1705))
GLOBAL_UNIT_ASSIGNED_CONTEXT((#1708,#1710,#1711))
REPRESENTATION_CONTEXT('','3D')
);
#1708=(
LENGTH_UNIT()
NAMED_UNIT(*)
SI_UNIT(.MILLI.,.METRE.)
);
#1709=(
LENGTH_UNIT()
NAMED_UNIT(*)
SI_UNIT($,.METRE.)
);
#1710=(
NAMED_UNIT(*)
PLANE_ANGLE_UNIT()
SI_UNIT($,.RADIAN.)
);
#1711=(
NAMED_UNIT(*)
SI_UNIT($,.STERADIAN.)
SOLID_ANGLE_UNIT()
);
#1712=SHAPE_DEFINITION_REPRESENTATION(#1713,#1714);
#1713=PRODUCT_DEFINITION_SHAPE('',$,#1716);
#1714=SHAPE_REPRESENTATION('',(#1078),#1706);
#1715=PRODUCT_DEFINITION_CONTEXT('part definition',#1720,'design');
#1716=PRODUCT_DEFINITION('2026-10-01-13-23-25-607',
'ACHR-02V-S mating plug - drawing model',#1717,#1715);
#1717=PRODUCT_DEFINITION_FORMATION('',$,#1722);
#1718=PRODUCT_RELATED_PRODUCT_CATEGORY(
'ACHR-02V-S mating plug - drawing model',
'ACHR-02V-S mating plug - drawing model',(#1722));
#1719=APPLICATION_PROTOCOL_DEFINITION('international standard',
'automotive_design',2009,#1720);
#1720=APPLICATION_CONTEXT(
'Core Data for Automotive Mechanical Design Process');
#1721=PRODUCT_CONTEXT('part definition',#1720,'mechanical');
#1722=PRODUCT('2026-10-01-13-23-25-607',
'ACHR-02V-S mating plug - drawing model',$,(#1721));
#1723=PRESENTATION_STYLE_ASSIGNMENT((#1726));
#1724=PRESENTATION_STYLE_ASSIGNMENT((#1727));
#1725=PRESENTATION_STYLE_ASSIGNMENT((#1728));
#1726=SURFACE_STYLE_USAGE(.BOTH.,#1729);
#1727=SURFACE_STYLE_USAGE(.BOTH.,#1730);
#1728=SURFACE_STYLE_USAGE(.BOTH.,#1731);
#1729=SURFACE_SIDE_STYLE('',(#1732));
#1730=SURFACE_SIDE_STYLE('',(#1733));
#1731=SURFACE_SIDE_STYLE('',(#1734));
#1732=SURFACE_STYLE_FILL_AREA(#1735);
#1733=SURFACE_STYLE_FILL_AREA(#1736);
#1734=SURFACE_STYLE_FILL_AREA(#1737);
#1735=FILL_AREA_STYLE('Steel - Satin',(#1738));
#1736=FILL_AREA_STYLE('JST ACH ivory - drawing model',(#1739));
#1737=FILL_AREA_STYLE('JST ACH contacts - drawing model',(#1740));
#1738=FILL_AREA_STYLE_COLOUR('Steel - Satin',#1741);
#1739=FILL_AREA_STYLE_COLOUR('JST ACH ivory - drawing model',#1742);
#1740=FILL_AREA_STYLE_COLOUR('JST ACH contacts - drawing model',#1743);
#1741=COLOUR_RGB('Steel - Satin',0.627450980392157,0.627450980392157,0.627450980392157);
#1742=COLOUR_RGB('JST ACH ivory - drawing model',0.92156862745098,0.909803921568627,
0.847058823529412);
#1743=COLOUR_RGB('JST ACH contacts - drawing model',0.788235294117647,0.627450980392157,
0.223529411764706);
ENDSEC;
END-ISO-10303-21;
