ISO-10303-21;
HEADER;
/* Generated by software containing ST-Developer
 * from STEP Tools, Inc. (www.steptools.com)
 */

FILE_DESCRIPTION(
/* description */ (''),
/* implementation_level */ '2;1');

FILE_NAME(
/* name */ 'BM02B-ACHSS-GAN-ETF_drawing_model.step',
/* time_stamp */ '2026-10-01T13:23:25+02:00',
/* author */ (''),
/* organization */ (''),
/* preprocessor_version */ 'ST-DEVELOPER v20.2',
/* originating_system */ 'Autodesk Translation Framework v15.15.0.0',
/* authorisation */ '');

FILE_SCHEMA (('AUTOMOTIVE_DESIGN { 1 0 10303 214 3 1 1 }'));
ENDSEC;

DATA;
#10=MECHANICAL_DESIGN_GEOMETRIC_PRESENTATION_REPRESENTATION('',(#13,#14,
#15,#16,#17),#2259);
#11=SHAPE_REPRESENTATION_RELATIONSHIP('SRR','None',#2266,#12);
#12=ADVANCED_BREP_SHAPE_REPRESENTATION('',(#18,#19,#20,#21,#22),#2258);
#13=STYLED_ITEM('',(#2276),#18);
#14=STYLED_ITEM('',(#2277),#19);
#15=STYLED_ITEM('',(#2277),#20);
#16=STYLED_ITEM('',(#2278),#21);
#17=STYLED_ITEM('',(#2278),#22);
#18=MANIFOLD_SOLID_BREP('Header housing - 4.2 x 4.3 x 1.4 mm',#1419);
#19=MANIFOLD_SOLID_BREP('Pin 1',#1420);
#20=MANIFOLD_SOLID_BREP('Pin 2',#1421);
#21=MANIFOLD_SOLID_BREP('Hold-down solder tab',#1422);
#22=MANIFOLD_SOLID_BREP('Hold-down solder tab (1)',#1423);
#23=FACE_BOUND('',#125,.T.);
#24=FACE_BOUND('',#126,.T.);
#25=FACE_OUTER_BOUND('',#101,.T.);
#26=FACE_OUTER_BOUND('',#102,.T.);
#27=FACE_OUTER_BOUND('',#103,.T.);
#28=FACE_OUTER_BOUND('',#104,.T.);
#29=FACE_OUTER_BOUND('',#105,.T.);
#30=FACE_OUTER_BOUND('',#106,.T.);
#31=FACE_OUTER_BOUND('',#107,.T.);
#32=FACE_OUTER_BOUND('',#108,.T.);
#33=FACE_OUTER_BOUND('',#109,.T.);
#34=FACE_OUTER_BOUND('',#110,.T.);
#35=FACE_OUTER_BOUND('',#111,.T.);
#36=FACE_OUTER_BOUND('',#112,.T.);
#37=FACE_OUTER_BOUND('',#113,.T.);
#38=FACE_OUTER_BOUND('',#114,.T.);
#39=FACE_OUTER_BOUND('',#115,.T.);
#40=FACE_OUTER_BOUND('',#116,.T.);
#41=FACE_OUTER_BOUND('',#117,.T.);
#42=FACE_OUTER_BOUND('',#118,.T.);
#43=FACE_OUTER_BOUND('',#119,.T.);
#44=FACE_OUTER_BOUND('',#120,.T.);
#45=FACE_OUTER_BOUND('',#121,.T.);
#46=FACE_OUTER_BOUND('',#122,.T.);
#47=FACE_OUTER_BOUND('',#123,.T.);
#48=FACE_OUTER_BOUND('',#124,.T.);
#49=FACE_OUTER_BOUND('',#127,.T.);
#50=FACE_OUTER_BOUND('',#128,.T.);
#51=FACE_OUTER_BOUND('',#129,.T.);
#52=FACE_OUTER_BOUND('',#130,.T.);
#53=FACE_OUTER_BOUND('',#131,.T.);
#54=FACE_OUTER_BOUND('',#132,.T.);
#55=FACE_OUTER_BOUND('',#133,.T.);
#56=FACE_OUTER_BOUND('',#134,.T.);
#57=FACE_OUTER_BOUND('',#135,.T.);
#58=FACE_OUTER_BOUND('',#136,.T.);
#59=FACE_OUTER_BOUND('',#137,.T.);
#60=FACE_OUTER_BOUND('',#138,.T.);
#61=FACE_OUTER_BOUND('',#139,.T.);
#62=FACE_OUTER_BOUND('',#140,.T.);
#63=FACE_OUTER_BOUND('',#141,.T.);
#64=FACE_OUTER_BOUND('',#142,.T.);
#65=FACE_OUTER_BOUND('',#143,.T.);
#66=FACE_OUTER_BOUND('',#144,.T.);
#67=FACE_OUTER_BOUND('',#145,.T.);
#68=FACE_OUTER_BOUND('',#146,.T.);
#69=FACE_OUTER_BOUND('',#147,.T.);
#70=FACE_OUTER_BOUND('',#148,.T.);
#71=FACE_OUTER_BOUND('',#149,.T.);
#72=FACE_OUTER_BOUND('',#150,.T.);
#73=FACE_OUTER_BOUND('',#151,.T.);
#74=FACE_OUTER_BOUND('',#152,.T.);
#75=FACE_OUTER_BOUND('',#153,.T.);
#76=FACE_OUTER_BOUND('',#154,.T.);
#77=FACE_OUTER_BOUND('',#155,.T.);
#78=FACE_OUTER_BOUND('',#156,.T.);
#79=FACE_OUTER_BOUND('',#157,.T.);
#80=FACE_OUTER_BOUND('',#158,.T.);
#81=FACE_OUTER_BOUND('',#159,.T.);
#82=FACE_OUTER_BOUND('',#160,.T.);
#83=FACE_OUTER_BOUND('',#161,.T.);
#84=FACE_OUTER_BOUND('',#162,.T.);
#85=FACE_OUTER_BOUND('',#163,.T.);
#86=FACE_OUTER_BOUND('',#164,.T.);
#87=FACE_OUTER_BOUND('',#165,.T.);
#88=FACE_OUTER_BOUND('',#166,.T.);
#89=FACE_OUTER_BOUND('',#167,.T.);
#90=FACE_OUTER_BOUND('',#168,.T.);
#91=FACE_OUTER_BOUND('',#169,.T.);
#92=FACE_OUTER_BOUND('',#170,.T.);
#93=FACE_OUTER_BOUND('',#171,.T.);
#94=FACE_OUTER_BOUND('',#172,.T.);
#95=FACE_OUTER_BOUND('',#173,.T.);
#96=FACE_OUTER_BOUND('',#174,.T.);
#97=FACE_OUTER_BOUND('',#175,.T.);
#98=FACE_OUTER_BOUND('',#176,.T.);
#99=FACE_OUTER_BOUND('',#177,.T.);
#100=FACE_OUTER_BOUND('',#178,.T.);
#101=EDGE_LOOP('',(#883,#884,#885,#886));
#102=EDGE_LOOP('',(#887,#888,#889,#890));
#103=EDGE_LOOP('',(#891,#892,#893,#894));
#104=EDGE_LOOP('',(#895,#896,#897,#898));
#105=EDGE_LOOP('',(#899,#900,#901,#902));
#106=EDGE_LOOP('',(#903,#904,#905,#906));
#107=EDGE_LOOP('',(#907,#908,#909,#910));
#108=EDGE_LOOP('',(#911,#912,#913,#914));
#109=EDGE_LOOP('',(#915,#916,#917,#918));
#110=EDGE_LOOP('',(#919,#920,#921,#922,#923,#924,#925,#926,#927,#928,#929,
#930));
#111=EDGE_LOOP('',(#931,#932,#933,#934));
#112=EDGE_LOOP('',(#935,#936,#937,#938));
#113=EDGE_LOOP('',(#939,#940,#941,#942));
#114=EDGE_LOOP('',(#943,#944,#945,#946));
#115=EDGE_LOOP('',(#947,#948,#949,#950));
#116=EDGE_LOOP('',(#951,#952,#953,#954));
#117=EDGE_LOOP('',(#955,#956,#957,#958));
#118=EDGE_LOOP('',(#959,#960,#961,#962));
#119=EDGE_LOOP('',(#963,#964,#965,#966));
#120=EDGE_LOOP('',(#967,#968,#969,#970));
#121=EDGE_LOOP('',(#971,#972,#973,#974));
#122=EDGE_LOOP('',(#975,#976,#977,#978));
#123=EDGE_LOOP('',(#979,#980,#981,#982));
#124=EDGE_LOOP('',(#983,#984,#985,#986,#987,#988,#989,#990,#991,#992,#993,
#994));
#125=EDGE_LOOP('',(#995,#996,#997,#998));
#126=EDGE_LOOP('',(#999,#1000,#1001,#1002));
#127=EDGE_LOOP('',(#1003,#1004,#1005,#1006));
#128=EDGE_LOOP('',(#1007,#1008,#1009,#1010));
#129=EDGE_LOOP('',(#1011,#1012,#1013,#1014,#1015,#1016,#1017,#1018));
#130=EDGE_LOOP('',(#1019,#1020,#1021,#1022));
#131=EDGE_LOOP('',(#1023,#1024,#1025,#1026,#1027,#1028,#1029,#1030,#1031,
#1032,#1033,#1034,#1035,#1036,#1037,#1038));
#132=EDGE_LOOP('',(#1039,#1040,#1041,#1042));
#133=EDGE_LOOP('',(#1043,#1044,#1045,#1046));
#134=EDGE_LOOP('',(#1047,#1048,#1049,#1050));
#135=EDGE_LOOP('',(#1051,#1052,#1053,#1054));
#136=EDGE_LOOP('',(#1055,#1056,#1057,#1058));
#137=EDGE_LOOP('',(#1059,#1060,#1061,#1062));
#138=EDGE_LOOP('',(#1063,#1064,#1065,#1066));
#139=EDGE_LOOP('',(#1067,#1068,#1069,#1070,#1071,#1072,#1073,#1074));
#140=EDGE_LOOP('',(#1075,#1076,#1077,#1078));
#141=EDGE_LOOP('',(#1079,#1080,#1081,#1082,#1083,#1084,#1085,#1086));
#142=EDGE_LOOP('',(#1087,#1088,#1089,#1090));
#143=EDGE_LOOP('',(#1091,#1092,#1093,#1094));
#144=EDGE_LOOP('',(#1095,#1096,#1097,#1098));
#145=EDGE_LOOP('',(#1099,#1100,#1101,#1102));
#146=EDGE_LOOP('',(#1103,#1104,#1105,#1106));
#147=EDGE_LOOP('',(#1107,#1108,#1109,#1110));
#148=EDGE_LOOP('',(#1111,#1112,#1113,#1114));
#149=EDGE_LOOP('',(#1115,#1116,#1117,#1118,#1119,#1120,#1121,#1122));
#150=EDGE_LOOP('',(#1123,#1124,#1125,#1126));
#151=EDGE_LOOP('',(#1127,#1128,#1129,#1130,#1131,#1132,#1133,#1134));
#152=EDGE_LOOP('',(#1135,#1136,#1137,#1138));
#153=EDGE_LOOP('',(#1139,#1140,#1141,#1142));
#154=EDGE_LOOP('',(#1143,#1144,#1145,#1146));
#155=EDGE_LOOP('',(#1147,#1148,#1149,#1150,#1151,#1152));
#156=EDGE_LOOP('',(#1153,#1154,#1155,#1156));
#157=EDGE_LOOP('',(#1157,#1158,#1159,#1160));
#158=EDGE_LOOP('',(#1161,#1162,#1163,#1164));
#159=EDGE_LOOP('',(#1165,#1166,#1167,#1168));
#160=EDGE_LOOP('',(#1169,#1170,#1171,#1172,#1173,#1174));
#161=EDGE_LOOP('',(#1175,#1176,#1177,#1178,#1179,#1180,#1181,#1182));
#162=EDGE_LOOP('',(#1183,#1184,#1185,#1186,#1187,#1188,#1189,#1190));
#163=EDGE_LOOP('',(#1191,#1192,#1193,#1194));
#164=EDGE_LOOP('',(#1195,#1196,#1197,#1198));
#165=EDGE_LOOP('',(#1199,#1200,#1201,#1202));
#166=EDGE_LOOP('',(#1203,#1204,#1205,#1206));
#167=EDGE_LOOP('',(#1207,#1208,#1209,#1210,#1211,#1212));
#168=EDGE_LOOP('',(#1213,#1214,#1215,#1216));
#169=EDGE_LOOP('',(#1217,#1218,#1219,#1220));
#170=EDGE_LOOP('',(#1221,#1222,#1223,#1224));
#171=EDGE_LOOP('',(#1225,#1226,#1227,#1228));
#172=EDGE_LOOP('',(#1229,#1230,#1231,#1232,#1233,#1234));
#173=EDGE_LOOP('',(#1235,#1236,#1237,#1238,#1239,#1240,#1241,#1242));
#174=EDGE_LOOP('',(#1243,#1244,#1245,#1246,#1247,#1248,#1249,#1250));
#175=EDGE_LOOP('',(#1251,#1252,#1253,#1254));
#176=EDGE_LOOP('',(#1255,#1256,#1257,#1258));
#177=EDGE_LOOP('',(#1259,#1260,#1261,#1262));
#178=EDGE_LOOP('',(#1263,#1264,#1265,#1266));
#179=LINE('',#1863,#371);
#180=LINE('',#1865,#372);
#181=LINE('',#1867,#373);
#182=LINE('',#1868,#374);
#183=LINE('',#1871,#375);
#184=LINE('',#1873,#376);
#185=LINE('',#1874,#377);
#186=LINE('',#1877,#378);
#187=LINE('',#1878,#379);
#188=LINE('',#1881,#380);
#189=LINE('',#1882,#381);
#190=LINE('',#1884,#382);
#191=LINE('',#1888,#383);
#192=LINE('',#1890,#384);
#193=LINE('',#1892,#385);
#194=LINE('',#1893,#386);
#195=LINE('',#1896,#387);
#196=LINE('',#1898,#388);
#197=LINE('',#1899,#389);
#198=LINE('',#1902,#390);
#199=LINE('',#1903,#391);
#200=LINE('',#1906,#392);
#201=LINE('',#1907,#393);
#202=LINE('',#1910,#394);
#203=LINE('',#1912,#395);
#204=LINE('',#1914,#396);
#205=LINE('',#1916,#397);
#206=LINE('',#1918,#398);
#207=LINE('',#1920,#399);
#208=LINE('',#1922,#400);
#209=LINE('',#1924,#401);
#210=LINE('',#1925,#402);
#211=LINE('',#1929,#403);
#212=LINE('',#1931,#404);
#213=LINE('',#1933,#405);
#214=LINE('',#1934,#406);
#215=LINE('',#1937,#407);
#216=LINE('',#1939,#408);
#217=LINE('',#1940,#409);
#218=LINE('',#1943,#410);
#219=LINE('',#1944,#411);
#220=LINE('',#1947,#412);
#221=LINE('',#1948,#413);
#222=LINE('',#1950,#414);
#223=LINE('',#1953,#415);
#224=LINE('',#1955,#416);
#225=LINE('',#1956,#417);
#226=LINE('',#1959,#418);
#227=LINE('',#1960,#419);
#228=LINE('',#1963,#420);
#229=LINE('',#1964,#421);
#230=LINE('',#1966,#422);
#231=LINE('',#1970,#423);
#232=LINE('',#1972,#424);
#233=LINE('',#1974,#425);
#234=LINE('',#1975,#426);
#235=LINE('',#1978,#427);
#236=LINE('',#1980,#428);
#237=LINE('',#1981,#429);
#238=LINE('',#1984,#430);
#239=LINE('',#1985,#431);
#240=LINE('',#1988,#432);
#241=LINE('',#1989,#433);
#242=LINE('',#1992,#434);
#243=LINE('',#1994,#435);
#244=LINE('',#1996,#436);
#245=LINE('',#1998,#437);
#246=LINE('',#2000,#438);
#247=LINE('',#2002,#439);
#248=LINE('',#2004,#440);
#249=LINE('',#2006,#441);
#250=LINE('',#2007,#442);
#251=LINE('',#2011,#443);
#252=LINE('',#2013,#444);
#253=LINE('',#2015,#445);
#254=LINE('',#2016,#446);
#255=LINE('',#2018,#447);
#256=LINE('',#2019,#448);
#257=LINE('',#2021,#449);
#258=LINE('',#2023,#450);
#259=LINE('',#2025,#451);
#260=LINE('',#2026,#452);
#261=LINE('',#2028,#453);
#262=LINE('',#2030,#454);
#263=LINE('',#2035,#455);
#264=LINE('',#2037,#456);
#265=LINE('',#2039,#457);
#266=LINE('',#2040,#458);
#267=LINE('',#2044,#459);
#268=LINE('',#2045,#460);
#269=LINE('',#2046,#461);
#270=LINE('',#2049,#462);
#271=LINE('',#2050,#463);
#272=LINE('',#2053,#464);
#273=LINE('',#2054,#465);
#274=LINE('',#2057,#466);
#275=LINE('',#2059,#467);
#276=LINE('',#2061,#468);
#277=LINE('',#2063,#469);
#278=LINE('',#2064,#470);
#279=LINE('',#2068,#471);
#280=LINE('',#2070,#472);
#281=LINE('',#2072,#473);
#282=LINE('',#2073,#474);
#283=LINE('',#2075,#475);
#284=LINE('',#2076,#476);
#285=LINE('',#2078,#477);
#286=LINE('',#2080,#478);
#287=LINE('',#2085,#479);
#288=LINE('',#2087,#480);
#289=LINE('',#2089,#481);
#290=LINE('',#2090,#482);
#291=LINE('',#2094,#483);
#292=LINE('',#2095,#484);
#293=LINE('',#2096,#485);
#294=LINE('',#2099,#486);
#295=LINE('',#2100,#487);
#296=LINE('',#2103,#488);
#297=LINE('',#2104,#489);
#298=LINE('',#2107,#490);
#299=LINE('',#2109,#491);
#300=LINE('',#2111,#492);
#301=LINE('',#2113,#493);
#302=LINE('',#2114,#494);
#303=LINE('',#2118,#495);
#304=LINE('',#2120,#496);
#305=LINE('',#2122,#497);
#306=LINE('',#2123,#498);
#307=LINE('',#2125,#499);
#308=LINE('',#2126,#500);
#309=LINE('',#2128,#501);
#310=LINE('',#2130,#502);
#311=LINE('',#2135,#503);
#312=LINE('',#2137,#504);
#313=LINE('',#2139,#505);
#314=LINE('',#2141,#506);
#315=LINE('',#2143,#507);
#316=LINE('',#2144,#508);
#317=LINE('',#2147,#509);
#318=LINE('',#2149,#510);
#319=LINE('',#2150,#511);
#320=LINE('',#2153,#512);
#321=LINE('',#2154,#513);
#322=LINE('',#2157,#514);
#323=LINE('',#2159,#515);
#324=LINE('',#2160,#516);
#325=LINE('',#2162,#517);
#326=LINE('',#2165,#518);
#327=LINE('',#2166,#519);
#328=LINE('',#2169,#520);
#329=LINE('',#2171,#521);
#330=LINE('',#2173,#522);
#331=LINE('',#2175,#523);
#332=LINE('',#2176,#524);
#333=LINE('',#2179,#525);
#334=LINE('',#2181,#526);
#335=LINE('',#2182,#527);
#336=LINE('',#2185,#528);
#337=LINE('',#2187,#529);
#338=LINE('',#2188,#530);
#339=LINE('',#2190,#531);
#340=LINE('',#2191,#532);
#341=LINE('',#2197,#533);
#342=LINE('',#2199,#534);
#343=LINE('',#2201,#535);
#344=LINE('',#2203,#536);
#345=LINE('',#2205,#537);
#346=LINE('',#2206,#538);
#347=LINE('',#2209,#539);
#348=LINE('',#2211,#540);
#349=LINE('',#2212,#541);
#350=LINE('',#2215,#542);
#351=LINE('',#2216,#543);
#352=LINE('',#2219,#544);
#353=LINE('',#2221,#545);
#354=LINE('',#2222,#546);
#355=LINE('',#2224,#547);
#356=LINE('',#2227,#548);
#357=LINE('',#2228,#549);
#358=LINE('',#2231,#550);
#359=LINE('',#2233,#551);
#360=LINE('',#2235,#552);
#361=LINE('',#2237,#553);
#362=LINE('',#2238,#554);
#363=LINE('',#2241,#555);
#364=LINE('',#2243,#556);
#365=LINE('',#2244,#557);
#366=LINE('',#2247,#558);
#367=LINE('',#2249,#559);
#368=LINE('',#2250,#560);
#369=LINE('',#2252,#561);
#370=LINE('',#2253,#562);
#371=VECTOR('',#1517,10.);
#372=VECTOR('',#1518,10.);
#373=VECTOR('',#1519,10.);
#374=VECTOR('',#1520,10.);
#375=VECTOR('',#1523,10.);
#376=VECTOR('',#1524,10.);
#377=VECTOR('',#1525,10.);
#378=VECTOR('',#1528,10.);
#379=VECTOR('',#1529,10.);
#380=VECTOR('',#1532,10.);
#381=VECTOR('',#1533,10.);
#382=VECTOR('',#1536,10.);
#383=VECTOR('',#1539,10.);
#384=VECTOR('',#1540,10.);
#385=VECTOR('',#1541,10.);
#386=VECTOR('',#1542,10.);
#387=VECTOR('',#1545,10.);
#388=VECTOR('',#1546,10.);
#389=VECTOR('',#1547,10.);
#390=VECTOR('',#1550,10.);
#391=VECTOR('',#1551,10.);
#392=VECTOR('',#1554,10.);
#393=VECTOR('',#1555,10.);
#394=VECTOR('',#1558,10.);
#395=VECTOR('',#1559,10.);
#396=VECTOR('',#1560,10.);
#397=VECTOR('',#1561,10.);
#398=VECTOR('',#1562,10.);
#399=VECTOR('',#1563,10.);
#400=VECTOR('',#1564,10.);
#401=VECTOR('',#1565,10.);
#402=VECTOR('',#1566,10.);
#403=VECTOR('',#1569,10.);
#404=VECTOR('',#1570,10.);
#405=VECTOR('',#1571,10.);
#406=VECTOR('',#1572,10.);
#407=VECTOR('',#1575,10.);
#408=VECTOR('',#1576,10.);
#409=VECTOR('',#1577,10.);
#410=VECTOR('',#1580,10.);
#411=VECTOR('',#1581,10.);
#412=VECTOR('',#1584,10.);
#413=VECTOR('',#1585,10.);
#414=VECTOR('',#1588,10.);
#415=VECTOR('',#1591,10.);
#416=VECTOR('',#1592,10.);
#417=VECTOR('',#1593,10.);
#418=VECTOR('',#1596,10.);
#419=VECTOR('',#1597,10.);
#420=VECTOR('',#1600,10.);
#421=VECTOR('',#1601,10.);
#422=VECTOR('',#1604,10.);
#423=VECTOR('',#1607,10.);
#424=VECTOR('',#1608,10.);
#425=VECTOR('',#1609,10.);
#426=VECTOR('',#1610,10.);
#427=VECTOR('',#1613,10.);
#428=VECTOR('',#1614,10.);
#429=VECTOR('',#1615,10.);
#430=VECTOR('',#1618,10.);
#431=VECTOR('',#1619,10.);
#432=VECTOR('',#1622,10.);
#433=VECTOR('',#1623,10.);
#434=VECTOR('',#1626,10.);
#435=VECTOR('',#1627,10.);
#436=VECTOR('',#1628,10.);
#437=VECTOR('',#1629,10.);
#438=VECTOR('',#1630,10.);
#439=VECTOR('',#1631,10.);
#440=VECTOR('',#1632,10.);
#441=VECTOR('',#1633,10.);
#442=VECTOR('',#1634,10.);
#443=VECTOR('',#1637,10.);
#444=VECTOR('',#1638,10.);
#445=VECTOR('',#1639,10.);
#446=VECTOR('',#1640,10.);
#447=VECTOR('',#1643,10.);
#448=VECTOR('',#1644,10.);
#449=VECTOR('',#1647,10.);
#450=VECTOR('',#1650,10.);
#451=VECTOR('',#1653,10.);
#452=VECTOR('',#1654,10.);
#453=VECTOR('',#1657,10.);
#454=VECTOR('',#1660,10.);
#455=VECTOR('',#1665,10.);
#456=VECTOR('',#1666,10.);
#457=VECTOR('',#1667,10.);
#458=VECTOR('',#1668,10.);
#459=VECTOR('',#1671,10.);
#460=VECTOR('',#1672,10.);
#461=VECTOR('',#1673,10.);
#462=VECTOR('',#1676,10.);
#463=VECTOR('',#1677,10.);
#464=VECTOR('',#1680,10.);
#465=VECTOR('',#1681,10.);
#466=VECTOR('',#1684,10.);
#467=VECTOR('',#1685,10.);
#468=VECTOR('',#1686,10.);
#469=VECTOR('',#1687,10.);
#470=VECTOR('',#1688,10.);
#471=VECTOR('',#1691,10.);
#472=VECTOR('',#1692,10.);
#473=VECTOR('',#1693,10.);
#474=VECTOR('',#1694,10.);
#475=VECTOR('',#1697,10.);
#476=VECTOR('',#1698,10.);
#477=VECTOR('',#1701,10.);
#478=VECTOR('',#1704,10.);
#479=VECTOR('',#1709,10.);
#480=VECTOR('',#1710,10.);
#481=VECTOR('',#1711,10.);
#482=VECTOR('',#1712,10.);
#483=VECTOR('',#1715,10.);
#484=VECTOR('',#1716,10.);
#485=VECTOR('',#1717,10.);
#486=VECTOR('',#1720,10.);
#487=VECTOR('',#1721,10.);
#488=VECTOR('',#1724,10.);
#489=VECTOR('',#1725,10.);
#490=VECTOR('',#1728,10.);
#491=VECTOR('',#1729,10.);
#492=VECTOR('',#1730,10.);
#493=VECTOR('',#1731,10.);
#494=VECTOR('',#1732,10.);
#495=VECTOR('',#1735,10.);
#496=VECTOR('',#1736,10.);
#497=VECTOR('',#1737,10.);
#498=VECTOR('',#1738,10.);
#499=VECTOR('',#1741,10.);
#500=VECTOR('',#1742,10.);
#501=VECTOR('',#1745,10.);
#502=VECTOR('',#1748,10.);
#503=VECTOR('',#1753,10.);
#504=VECTOR('',#1754,10.);
#505=VECTOR('',#1755,10.);
#506=VECTOR('',#1756,10.);
#507=VECTOR('',#1757,10.);
#508=VECTOR('',#1758,10.);
#509=VECTOR('',#1761,10.);
#510=VECTOR('',#1762,10.);
#511=VECTOR('',#1763,10.);
#512=VECTOR('',#1766,10.);
#513=VECTOR('',#1767,10.);
#514=VECTOR('',#1770,10.);
#515=VECTOR('',#1771,10.);
#516=VECTOR('',#1772,10.);
#517=VECTOR('',#1775,10.);
#518=VECTOR('',#1778,10.);
#519=VECTOR('',#1779,10.);
#520=VECTOR('',#1782,10.);
#521=VECTOR('',#1783,10.);
#522=VECTOR('',#1784,10.);
#523=VECTOR('',#1785,10.);
#524=VECTOR('',#1786,10.);
#525=VECTOR('',#1789,10.);
#526=VECTOR('',#1790,10.);
#527=VECTOR('',#1791,10.);
#528=VECTOR('',#1794,10.);
#529=VECTOR('',#1795,10.);
#530=VECTOR('',#1796,10.);
#531=VECTOR('',#1799,10.);
#532=VECTOR('',#1800,10.);
#533=VECTOR('',#1807,10.);
#534=VECTOR('',#1808,10.);
#535=VECTOR('',#1809,10.);
#536=VECTOR('',#1810,10.);
#537=VECTOR('',#1811,10.);
#538=VECTOR('',#1812,10.);
#539=VECTOR('',#1815,10.);
#540=VECTOR('',#1816,10.);
#541=VECTOR('',#1817,10.);
#542=VECTOR('',#1820,10.);
#543=VECTOR('',#1821,10.);
#544=VECTOR('',#1824,10.);
#545=VECTOR('',#1825,10.);
#546=VECTOR('',#1826,10.);
#547=VECTOR('',#1829,10.);
#548=VECTOR('',#1832,10.);
#549=VECTOR('',#1833,10.);
#550=VECTOR('',#1836,10.);
#551=VECTOR('',#1837,10.);
#552=VECTOR('',#1838,10.);
#553=VECTOR('',#1839,10.);
#554=VECTOR('',#1840,10.);
#555=VECTOR('',#1843,10.);
#556=VECTOR('',#1844,10.);
#557=VECTOR('',#1845,10.);
#558=VECTOR('',#1848,10.);
#559=VECTOR('',#1849,10.);
#560=VECTOR('',#1850,10.);
#561=VECTOR('',#1853,10.);
#562=VECTOR('',#1854,10.);
#563=VERTEX_POINT('',#1861);
#564=VERTEX_POINT('',#1862);
#565=VERTEX_POINT('',#1864);
#566=VERTEX_POINT('',#1866);
#567=VERTEX_POINT('',#1870);
#568=VERTEX_POINT('',#1872);
#569=VERTEX_POINT('',#1876);
#570=VERTEX_POINT('',#1880);
#571=VERTEX_POINT('',#1886);
#572=VERTEX_POINT('',#1887);
#573=VERTEX_POINT('',#1889);
#574=VERTEX_POINT('',#1891);
#575=VERTEX_POINT('',#1895);
#576=VERTEX_POINT('',#1897);
#577=VERTEX_POINT('',#1901);
#578=VERTEX_POINT('',#1905);
#579=VERTEX_POINT('',#1909);
#580=VERTEX_POINT('',#1911);
#581=VERTEX_POINT('',#1913);
#582=VERTEX_POINT('',#1915);
#583=VERTEX_POINT('',#1917);
#584=VERTEX_POINT('',#1919);
#585=VERTEX_POINT('',#1921);
#586=VERTEX_POINT('',#1923);
#587=VERTEX_POINT('',#1927);
#588=VERTEX_POINT('',#1928);
#589=VERTEX_POINT('',#1930);
#590=VERTEX_POINT('',#1932);
#591=VERTEX_POINT('',#1936);
#592=VERTEX_POINT('',#1938);
#593=VERTEX_POINT('',#1942);
#594=VERTEX_POINT('',#1946);
#595=VERTEX_POINT('',#1952);
#596=VERTEX_POINT('',#1954);
#597=VERTEX_POINT('',#1958);
#598=VERTEX_POINT('',#1962);
#599=VERTEX_POINT('',#1968);
#600=VERTEX_POINT('',#1969);
#601=VERTEX_POINT('',#1971);
#602=VERTEX_POINT('',#1973);
#603=VERTEX_POINT('',#1977);
#604=VERTEX_POINT('',#1979);
#605=VERTEX_POINT('',#1983);
#606=VERTEX_POINT('',#1987);
#607=VERTEX_POINT('',#1991);
#608=VERTEX_POINT('',#1993);
#609=VERTEX_POINT('',#1995);
#610=VERTEX_POINT('',#1997);
#611=VERTEX_POINT('',#1999);
#612=VERTEX_POINT('',#2001);
#613=VERTEX_POINT('',#2003);
#614=VERTEX_POINT('',#2005);
#615=VERTEX_POINT('',#2009);
#616=VERTEX_POINT('',#2010);
#617=VERTEX_POINT('',#2012);
#618=VERTEX_POINT('',#2014);
#619=VERTEX_POINT('',#2033);
#620=VERTEX_POINT('',#2034);
#621=VERTEX_POINT('',#2036);
#622=VERTEX_POINT('',#2038);
#623=VERTEX_POINT('',#2042);
#624=VERTEX_POINT('',#2043);
#625=VERTEX_POINT('',#2048);
#626=VERTEX_POINT('',#2052);
#627=VERTEX_POINT('',#2056);
#628=VERTEX_POINT('',#2058);
#629=VERTEX_POINT('',#2060);
#630=VERTEX_POINT('',#2062);
#631=VERTEX_POINT('',#2066);
#632=VERTEX_POINT('',#2067);
#633=VERTEX_POINT('',#2069);
#634=VERTEX_POINT('',#2071);
#635=VERTEX_POINT('',#2083);
#636=VERTEX_POINT('',#2084);
#637=VERTEX_POINT('',#2086);
#638=VERTEX_POINT('',#2088);
#639=VERTEX_POINT('',#2092);
#640=VERTEX_POINT('',#2093);
#641=VERTEX_POINT('',#2098);
#642=VERTEX_POINT('',#2102);
#643=VERTEX_POINT('',#2106);
#644=VERTEX_POINT('',#2108);
#645=VERTEX_POINT('',#2110);
#646=VERTEX_POINT('',#2112);
#647=VERTEX_POINT('',#2116);
#648=VERTEX_POINT('',#2117);
#649=VERTEX_POINT('',#2119);
#650=VERTEX_POINT('',#2121);
#651=VERTEX_POINT('',#2133);
#652=VERTEX_POINT('',#2134);
#653=VERTEX_POINT('',#2136);
#654=VERTEX_POINT('',#2138);
#655=VERTEX_POINT('',#2140);
#656=VERTEX_POINT('',#2142);
#657=VERTEX_POINT('',#2146);
#658=VERTEX_POINT('',#2148);
#659=VERTEX_POINT('',#2152);
#660=VERTEX_POINT('',#2156);
#661=VERTEX_POINT('',#2158);
#662=VERTEX_POINT('',#2164);
#663=VERTEX_POINT('',#2168);
#664=VERTEX_POINT('',#2170);
#665=VERTEX_POINT('',#2172);
#666=VERTEX_POINT('',#2174);
#667=VERTEX_POINT('',#2178);
#668=VERTEX_POINT('',#2180);
#669=VERTEX_POINT('',#2184);
#670=VERTEX_POINT('',#2186);
#671=VERTEX_POINT('',#2195);
#672=VERTEX_POINT('',#2196);
#673=VERTEX_POINT('',#2198);
#674=VERTEX_POINT('',#2200);
#675=VERTEX_POINT('',#2202);
#676=VERTEX_POINT('',#2204);
#677=VERTEX_POINT('',#2208);
#678=VERTEX_POINT('',#2210);
#679=VERTEX_POINT('',#2214);
#680=VERTEX_POINT('',#2218);
#681=VERTEX_POINT('',#2220);
#682=VERTEX_POINT('',#2226);
#683=VERTEX_POINT('',#2230);
#684=VERTEX_POINT('',#2232);
#685=VERTEX_POINT('',#2234);
#686=VERTEX_POINT('',#2236);
#687=VERTEX_POINT('',#2240);
#688=VERTEX_POINT('',#2242);
#689=VERTEX_POINT('',#2246);
#690=VERTEX_POINT('',#2248);
#691=EDGE_CURVE('',#563,#564,#179,.T.);
#692=EDGE_CURVE('',#563,#565,#180,.T.);
#693=EDGE_CURVE('',#565,#566,#181,.T.);
#694=EDGE_CURVE('',#564,#566,#182,.T.);
#695=EDGE_CURVE('',#564,#567,#183,.T.);
#696=EDGE_CURVE('',#566,#568,#184,.T.);
#697=EDGE_CURVE('',#567,#568,#185,.T.);
#698=EDGE_CURVE('',#569,#565,#186,.T.);
#699=EDGE_CURVE('',#568,#569,#187,.T.);
#700=EDGE_CURVE('',#567,#570,#188,.T.);
#701=EDGE_CURVE('',#570,#569,#189,.T.);
#702=EDGE_CURVE('',#570,#563,#190,.T.);
#703=EDGE_CURVE('',#571,#572,#191,.T.);
#704=EDGE_CURVE('',#571,#573,#192,.T.);
#705=EDGE_CURVE('',#573,#574,#193,.T.);
#706=EDGE_CURVE('',#572,#574,#194,.T.);
#707=EDGE_CURVE('',#574,#575,#195,.T.);
#708=EDGE_CURVE('',#573,#576,#196,.T.);
#709=EDGE_CURVE('',#576,#575,#197,.T.);
#710=EDGE_CURVE('',#577,#571,#198,.T.);
#711=EDGE_CURVE('',#576,#577,#199,.T.);
#712=EDGE_CURVE('',#578,#577,#200,.T.);
#713=EDGE_CURVE('',#575,#578,#201,.T.);
#714=EDGE_CURVE('',#578,#579,#202,.T.);
#715=EDGE_CURVE('',#579,#580,#203,.T.);
#716=EDGE_CURVE('',#580,#581,#204,.T.);
#717=EDGE_CURVE('',#581,#582,#205,.T.);
#718=EDGE_CURVE('',#582,#583,#206,.T.);
#719=EDGE_CURVE('',#583,#584,#207,.T.);
#720=EDGE_CURVE('',#584,#585,#208,.T.);
#721=EDGE_CURVE('',#585,#586,#209,.T.);
#722=EDGE_CURVE('',#586,#572,#210,.T.);
#723=EDGE_CURVE('',#587,#588,#211,.T.);
#724=EDGE_CURVE('',#587,#589,#212,.T.);
#725=EDGE_CURVE('',#589,#590,#213,.T.);
#726=EDGE_CURVE('',#588,#590,#214,.T.);
#727=EDGE_CURVE('',#588,#591,#215,.T.);
#728=EDGE_CURVE('',#590,#592,#216,.T.);
#729=EDGE_CURVE('',#591,#592,#217,.T.);
#730=EDGE_CURVE('',#593,#589,#218,.T.);
#731=EDGE_CURVE('',#592,#593,#219,.T.);
#732=EDGE_CURVE('',#591,#594,#220,.T.);
#733=EDGE_CURVE('',#594,#593,#221,.T.);
#734=EDGE_CURVE('',#594,#587,#222,.T.);
#735=EDGE_CURVE('',#595,#580,#223,.T.);
#736=EDGE_CURVE('',#595,#596,#224,.T.);
#737=EDGE_CURVE('',#596,#581,#225,.T.);
#738=EDGE_CURVE('',#596,#597,#226,.T.);
#739=EDGE_CURVE('',#582,#597,#227,.T.);
#740=EDGE_CURVE('',#597,#598,#228,.T.);
#741=EDGE_CURVE('',#598,#595,#229,.T.);
#742=EDGE_CURVE('',#598,#579,#230,.T.);
#743=EDGE_CURVE('',#599,#600,#231,.T.);
#744=EDGE_CURVE('',#599,#601,#232,.T.);
#745=EDGE_CURVE('',#601,#602,#233,.T.);
#746=EDGE_CURVE('',#600,#602,#234,.T.);
#747=EDGE_CURVE('',#600,#603,#235,.T.);
#748=EDGE_CURVE('',#602,#604,#236,.T.);
#749=EDGE_CURVE('',#603,#604,#237,.T.);
#750=EDGE_CURVE('',#604,#605,#238,.T.);
#751=EDGE_CURVE('',#605,#601,#239,.T.);
#752=EDGE_CURVE('',#606,#599,#240,.T.);
#753=EDGE_CURVE('',#605,#606,#241,.T.);
#754=EDGE_CURVE('',#603,#607,#242,.T.);
#755=EDGE_CURVE('',#607,#608,#243,.T.);
#756=EDGE_CURVE('',#608,#609,#244,.T.);
#757=EDGE_CURVE('',#609,#610,#245,.T.);
#758=EDGE_CURVE('',#610,#611,#246,.T.);
#759=EDGE_CURVE('',#611,#612,#247,.T.);
#760=EDGE_CURVE('',#612,#613,#248,.T.);
#761=EDGE_CURVE('',#613,#614,#249,.T.);
#762=EDGE_CURVE('',#614,#606,#250,.T.);
#763=EDGE_CURVE('',#615,#616,#251,.T.);
#764=EDGE_CURVE('',#617,#615,#252,.T.);
#765=EDGE_CURVE('',#618,#617,#253,.T.);
#766=EDGE_CURVE('',#616,#618,#254,.T.);
#767=EDGE_CURVE('',#616,#613,#255,.T.);
#768=EDGE_CURVE('',#614,#618,#256,.T.);
#769=EDGE_CURVE('',#607,#617,#257,.T.);
#770=EDGE_CURVE('',#608,#615,#258,.T.);
#771=EDGE_CURVE('',#609,#586,#259,.T.);
#772=EDGE_CURVE('',#612,#583,#260,.T.);
#773=EDGE_CURVE('',#611,#584,#261,.T.);
#774=EDGE_CURVE('',#610,#585,#262,.T.);
#775=EDGE_CURVE('',#619,#620,#263,.T.);
#776=EDGE_CURVE('',#621,#619,#264,.T.);
#777=EDGE_CURVE('',#622,#621,#265,.T.);
#778=EDGE_CURVE('',#622,#620,#266,.T.);
#779=EDGE_CURVE('',#623,#624,#267,.T.);
#780=EDGE_CURVE('',#624,#622,#268,.T.);
#781=EDGE_CURVE('',#621,#623,#269,.T.);
#782=EDGE_CURVE('',#620,#625,#270,.T.);
#783=EDGE_CURVE('',#624,#625,#271,.T.);
#784=EDGE_CURVE('',#625,#626,#272,.T.);
#785=EDGE_CURVE('',#623,#626,#273,.T.);
#786=EDGE_CURVE('',#626,#627,#274,.T.);
#787=EDGE_CURVE('',#627,#628,#275,.T.);
#788=EDGE_CURVE('',#628,#629,#276,.T.);
#789=EDGE_CURVE('',#629,#630,#277,.T.);
#790=EDGE_CURVE('',#630,#619,#278,.T.);
#791=EDGE_CURVE('',#631,#632,#279,.T.);
#792=EDGE_CURVE('',#632,#633,#280,.T.);
#793=EDGE_CURVE('',#633,#634,#281,.T.);
#794=EDGE_CURVE('',#634,#631,#282,.T.);
#795=EDGE_CURVE('',#630,#633,#283,.T.);
#796=EDGE_CURVE('',#627,#632,#284,.T.);
#797=EDGE_CURVE('',#629,#634,#285,.T.);
#798=EDGE_CURVE('',#628,#631,#286,.T.);
#799=EDGE_CURVE('',#635,#636,#287,.T.);
#800=EDGE_CURVE('',#637,#635,#288,.T.);
#801=EDGE_CURVE('',#638,#637,#289,.T.);
#802=EDGE_CURVE('',#638,#636,#290,.T.);
#803=EDGE_CURVE('',#639,#640,#291,.T.);
#804=EDGE_CURVE('',#640,#638,#292,.T.);
#805=EDGE_CURVE('',#637,#639,#293,.T.);
#806=EDGE_CURVE('',#636,#641,#294,.T.);
#807=EDGE_CURVE('',#640,#641,#295,.T.);
#808=EDGE_CURVE('',#641,#642,#296,.T.);
#809=EDGE_CURVE('',#639,#642,#297,.T.);
#810=EDGE_CURVE('',#642,#643,#298,.T.);
#811=EDGE_CURVE('',#643,#644,#299,.T.);
#812=EDGE_CURVE('',#644,#645,#300,.T.);
#813=EDGE_CURVE('',#645,#646,#301,.T.);
#814=EDGE_CURVE('',#646,#635,#302,.T.);
#815=EDGE_CURVE('',#647,#648,#303,.T.);
#816=EDGE_CURVE('',#648,#649,#304,.T.);
#817=EDGE_CURVE('',#649,#650,#305,.T.);
#818=EDGE_CURVE('',#650,#647,#306,.T.);
#819=EDGE_CURVE('',#646,#649,#307,.T.);
#820=EDGE_CURVE('',#643,#648,#308,.T.);
#821=EDGE_CURVE('',#645,#650,#309,.T.);
#822=EDGE_CURVE('',#644,#647,#310,.T.);
#823=EDGE_CURVE('',#651,#652,#311,.T.);
#824=EDGE_CURVE('',#653,#651,#312,.T.);
#825=EDGE_CURVE('',#654,#653,#313,.T.);
#826=EDGE_CURVE('',#655,#654,#314,.T.);
#827=EDGE_CURVE('',#655,#656,#315,.T.);
#828=EDGE_CURVE('',#652,#656,#316,.T.);
#829=EDGE_CURVE('',#657,#653,#317,.T.);
#830=EDGE_CURVE('',#658,#657,#318,.T.);
#831=EDGE_CURVE('',#654,#658,#319,.T.);
#832=EDGE_CURVE('',#658,#659,#320,.T.);
#833=EDGE_CURVE('',#659,#655,#321,.T.);
#834=EDGE_CURVE('',#652,#660,#322,.T.);
#835=EDGE_CURVE('',#656,#661,#323,.T.);
#836=EDGE_CURVE('',#661,#660,#324,.T.);
#837=EDGE_CURVE('',#659,#661,#325,.T.);
#838=EDGE_CURVE('',#660,#662,#326,.T.);
#839=EDGE_CURVE('',#662,#657,#327,.T.);
#840=EDGE_CURVE('',#663,#662,#328,.T.);
#841=EDGE_CURVE('',#663,#664,#329,.T.);
#842=EDGE_CURVE('',#665,#664,#330,.T.);
#843=EDGE_CURVE('',#666,#665,#331,.T.);
#844=EDGE_CURVE('',#651,#666,#332,.T.);
#845=EDGE_CURVE('',#666,#667,#333,.T.);
#846=EDGE_CURVE('',#667,#668,#334,.T.);
#847=EDGE_CURVE('',#668,#663,#335,.T.);
#848=EDGE_CURVE('',#664,#669,#336,.T.);
#849=EDGE_CURVE('',#669,#670,#337,.T.);
#850=EDGE_CURVE('',#670,#665,#338,.T.);
#851=EDGE_CURVE('',#667,#670,#339,.T.);
#852=EDGE_CURVE('',#668,#669,#340,.T.);
#853=EDGE_CURVE('',#671,#672,#341,.T.);
#854=EDGE_CURVE('',#673,#671,#342,.T.);
#855=EDGE_CURVE('',#674,#673,#343,.T.);
#856=EDGE_CURVE('',#675,#674,#344,.T.);
#857=EDGE_CURVE('',#675,#676,#345,.T.);
#858=EDGE_CURVE('',#672,#676,#346,.T.);
#859=EDGE_CURVE('',#677,#673,#347,.T.);
#860=EDGE_CURVE('',#678,#677,#348,.T.);
#861=EDGE_CURVE('',#674,#678,#349,.T.);
#862=EDGE_CURVE('',#678,#679,#350,.T.);
#863=EDGE_CURVE('',#679,#675,#351,.T.);
#864=EDGE_CURVE('',#672,#680,#352,.T.);
#865=EDGE_CURVE('',#676,#681,#353,.T.);
#866=EDGE_CURVE('',#681,#680,#354,.T.);
#867=EDGE_CURVE('',#679,#681,#355,.T.);
#868=EDGE_CURVE('',#680,#682,#356,.T.);
#869=EDGE_CURVE('',#682,#677,#357,.T.);
#870=EDGE_CURVE('',#683,#682,#358,.T.);
#871=EDGE_CURVE('',#683,#684,#359,.T.);
#872=EDGE_CURVE('',#685,#684,#360,.T.);
#873=EDGE_CURVE('',#686,#685,#361,.T.);
#874=EDGE_CURVE('',#671,#686,#362,.T.);
#875=EDGE_CURVE('',#686,#687,#363,.T.);
#876=EDGE_CURVE('',#687,#688,#364,.T.);
#877=EDGE_CURVE('',#688,#683,#365,.T.);
#878=EDGE_CURVE('',#684,#689,#366,.T.);
#879=EDGE_CURVE('',#689,#690,#367,.T.);
#880=EDGE_CURVE('',#690,#685,#368,.T.);
#881=EDGE_CURVE('',#687,#690,#369,.T.);
#882=EDGE_CURVE('',#688,#689,#370,.T.);
#883=ORIENTED_EDGE('',*,*,#691,.F.);
#884=ORIENTED_EDGE('',*,*,#692,.T.);
#885=ORIENTED_EDGE('',*,*,#693,.T.);
#886=ORIENTED_EDGE('',*,*,#694,.F.);
#887=ORIENTED_EDGE('',*,*,#695,.F.);
#888=ORIENTED_EDGE('',*,*,#694,.T.);
#889=ORIENTED_EDGE('',*,*,#696,.T.);
#890=ORIENTED_EDGE('',*,*,#697,.F.);
#891=ORIENTED_EDGE('',*,*,#696,.F.);
#892=ORIENTED_EDGE('',*,*,#693,.F.);
#893=ORIENTED_EDGE('',*,*,#698,.F.);
#894=ORIENTED_EDGE('',*,*,#699,.F.);
#895=ORIENTED_EDGE('',*,*,#700,.F.);
#896=ORIENTED_EDGE('',*,*,#697,.T.);
#897=ORIENTED_EDGE('',*,*,#699,.T.);
#898=ORIENTED_EDGE('',*,*,#701,.F.);
#899=ORIENTED_EDGE('',*,*,#702,.F.);
#900=ORIENTED_EDGE('',*,*,#701,.T.);
#901=ORIENTED_EDGE('',*,*,#698,.T.);
#902=ORIENTED_EDGE('',*,*,#692,.F.);
#903=ORIENTED_EDGE('',*,*,#703,.F.);
#904=ORIENTED_EDGE('',*,*,#704,.T.);
#905=ORIENTED_EDGE('',*,*,#705,.T.);
#906=ORIENTED_EDGE('',*,*,#706,.F.);
#907=ORIENTED_EDGE('',*,*,#707,.F.);
#908=ORIENTED_EDGE('',*,*,#705,.F.);
#909=ORIENTED_EDGE('',*,*,#708,.T.);
#910=ORIENTED_EDGE('',*,*,#709,.T.);
#911=ORIENTED_EDGE('',*,*,#710,.F.);
#912=ORIENTED_EDGE('',*,*,#711,.F.);
#913=ORIENTED_EDGE('',*,*,#708,.F.);
#914=ORIENTED_EDGE('',*,*,#704,.F.);
#915=ORIENTED_EDGE('',*,*,#712,.F.);
#916=ORIENTED_EDGE('',*,*,#713,.F.);
#917=ORIENTED_EDGE('',*,*,#709,.F.);
#918=ORIENTED_EDGE('',*,*,#711,.T.);
#919=ORIENTED_EDGE('',*,*,#706,.T.);
#920=ORIENTED_EDGE('',*,*,#707,.T.);
#921=ORIENTED_EDGE('',*,*,#713,.T.);
#922=ORIENTED_EDGE('',*,*,#714,.T.);
#923=ORIENTED_EDGE('',*,*,#715,.T.);
#924=ORIENTED_EDGE('',*,*,#716,.T.);
#925=ORIENTED_EDGE('',*,*,#717,.T.);
#926=ORIENTED_EDGE('',*,*,#718,.T.);
#927=ORIENTED_EDGE('',*,*,#719,.T.);
#928=ORIENTED_EDGE('',*,*,#720,.T.);
#929=ORIENTED_EDGE('',*,*,#721,.T.);
#930=ORIENTED_EDGE('',*,*,#722,.T.);
#931=ORIENTED_EDGE('',*,*,#723,.F.);
#932=ORIENTED_EDGE('',*,*,#724,.T.);
#933=ORIENTED_EDGE('',*,*,#725,.T.);
#934=ORIENTED_EDGE('',*,*,#726,.F.);
#935=ORIENTED_EDGE('',*,*,#727,.F.);
#936=ORIENTED_EDGE('',*,*,#726,.T.);
#937=ORIENTED_EDGE('',*,*,#728,.T.);
#938=ORIENTED_EDGE('',*,*,#729,.F.);
#939=ORIENTED_EDGE('',*,*,#728,.F.);
#940=ORIENTED_EDGE('',*,*,#725,.F.);
#941=ORIENTED_EDGE('',*,*,#730,.F.);
#942=ORIENTED_EDGE('',*,*,#731,.F.);
#943=ORIENTED_EDGE('',*,*,#732,.F.);
#944=ORIENTED_EDGE('',*,*,#729,.T.);
#945=ORIENTED_EDGE('',*,*,#731,.T.);
#946=ORIENTED_EDGE('',*,*,#733,.F.);
#947=ORIENTED_EDGE('',*,*,#734,.F.);
#948=ORIENTED_EDGE('',*,*,#733,.T.);
#949=ORIENTED_EDGE('',*,*,#730,.T.);
#950=ORIENTED_EDGE('',*,*,#724,.F.);
#951=ORIENTED_EDGE('',*,*,#716,.F.);
#952=ORIENTED_EDGE('',*,*,#735,.F.);
#953=ORIENTED_EDGE('',*,*,#736,.T.);
#954=ORIENTED_EDGE('',*,*,#737,.T.);
#955=ORIENTED_EDGE('',*,*,#717,.F.);
#956=ORIENTED_EDGE('',*,*,#737,.F.);
#957=ORIENTED_EDGE('',*,*,#738,.T.);
#958=ORIENTED_EDGE('',*,*,#739,.F.);
#959=ORIENTED_EDGE('',*,*,#740,.F.);
#960=ORIENTED_EDGE('',*,*,#738,.F.);
#961=ORIENTED_EDGE('',*,*,#736,.F.);
#962=ORIENTED_EDGE('',*,*,#741,.F.);
#963=ORIENTED_EDGE('',*,*,#715,.F.);
#964=ORIENTED_EDGE('',*,*,#742,.F.);
#965=ORIENTED_EDGE('',*,*,#741,.T.);
#966=ORIENTED_EDGE('',*,*,#735,.T.);
#967=ORIENTED_EDGE('',*,*,#743,.F.);
#968=ORIENTED_EDGE('',*,*,#744,.T.);
#969=ORIENTED_EDGE('',*,*,#745,.T.);
#970=ORIENTED_EDGE('',*,*,#746,.F.);
#971=ORIENTED_EDGE('',*,*,#747,.F.);
#972=ORIENTED_EDGE('',*,*,#746,.T.);
#973=ORIENTED_EDGE('',*,*,#748,.T.);
#974=ORIENTED_EDGE('',*,*,#749,.F.);
#975=ORIENTED_EDGE('',*,*,#750,.F.);
#976=ORIENTED_EDGE('',*,*,#748,.F.);
#977=ORIENTED_EDGE('',*,*,#745,.F.);
#978=ORIENTED_EDGE('',*,*,#751,.F.);
#979=ORIENTED_EDGE('',*,*,#752,.F.);
#980=ORIENTED_EDGE('',*,*,#753,.F.);
#981=ORIENTED_EDGE('',*,*,#751,.T.);
#982=ORIENTED_EDGE('',*,*,#744,.F.);
#983=ORIENTED_EDGE('',*,*,#752,.T.);
#984=ORIENTED_EDGE('',*,*,#743,.T.);
#985=ORIENTED_EDGE('',*,*,#747,.T.);
#986=ORIENTED_EDGE('',*,*,#754,.T.);
#987=ORIENTED_EDGE('',*,*,#755,.T.);
#988=ORIENTED_EDGE('',*,*,#756,.T.);
#989=ORIENTED_EDGE('',*,*,#757,.T.);
#990=ORIENTED_EDGE('',*,*,#758,.T.);
#991=ORIENTED_EDGE('',*,*,#759,.T.);
#992=ORIENTED_EDGE('',*,*,#760,.T.);
#993=ORIENTED_EDGE('',*,*,#761,.T.);
#994=ORIENTED_EDGE('',*,*,#762,.T.);
#995=ORIENTED_EDGE('',*,*,#700,.T.);
#996=ORIENTED_EDGE('',*,*,#702,.T.);
#997=ORIENTED_EDGE('',*,*,#691,.T.);
#998=ORIENTED_EDGE('',*,*,#695,.T.);
#999=ORIENTED_EDGE('',*,*,#732,.T.);
#1000=ORIENTED_EDGE('',*,*,#734,.T.);
#1001=ORIENTED_EDGE('',*,*,#723,.T.);
#1002=ORIENTED_EDGE('',*,*,#727,.T.);
#1003=ORIENTED_EDGE('',*,*,#763,.F.);
#1004=ORIENTED_EDGE('',*,*,#764,.F.);
#1005=ORIENTED_EDGE('',*,*,#765,.F.);
#1006=ORIENTED_EDGE('',*,*,#766,.F.);
#1007=ORIENTED_EDGE('',*,*,#767,.F.);
#1008=ORIENTED_EDGE('',*,*,#766,.T.);
#1009=ORIENTED_EDGE('',*,*,#768,.F.);
#1010=ORIENTED_EDGE('',*,*,#761,.F.);
#1011=ORIENTED_EDGE('',*,*,#753,.T.);
#1012=ORIENTED_EDGE('',*,*,#762,.F.);
#1013=ORIENTED_EDGE('',*,*,#768,.T.);
#1014=ORIENTED_EDGE('',*,*,#765,.T.);
#1015=ORIENTED_EDGE('',*,*,#769,.F.);
#1016=ORIENTED_EDGE('',*,*,#754,.F.);
#1017=ORIENTED_EDGE('',*,*,#749,.T.);
#1018=ORIENTED_EDGE('',*,*,#750,.T.);
#1019=ORIENTED_EDGE('',*,*,#770,.F.);
#1020=ORIENTED_EDGE('',*,*,#755,.F.);
#1021=ORIENTED_EDGE('',*,*,#769,.T.);
#1022=ORIENTED_EDGE('',*,*,#764,.T.);
#1023=ORIENTED_EDGE('',*,*,#703,.T.);
#1024=ORIENTED_EDGE('',*,*,#722,.F.);
#1025=ORIENTED_EDGE('',*,*,#771,.F.);
#1026=ORIENTED_EDGE('',*,*,#756,.F.);
#1027=ORIENTED_EDGE('',*,*,#770,.T.);
#1028=ORIENTED_EDGE('',*,*,#763,.T.);
#1029=ORIENTED_EDGE('',*,*,#767,.T.);
#1030=ORIENTED_EDGE('',*,*,#760,.F.);
#1031=ORIENTED_EDGE('',*,*,#772,.T.);
#1032=ORIENTED_EDGE('',*,*,#718,.F.);
#1033=ORIENTED_EDGE('',*,*,#739,.T.);
#1034=ORIENTED_EDGE('',*,*,#740,.T.);
#1035=ORIENTED_EDGE('',*,*,#742,.T.);
#1036=ORIENTED_EDGE('',*,*,#714,.F.);
#1037=ORIENTED_EDGE('',*,*,#712,.T.);
#1038=ORIENTED_EDGE('',*,*,#710,.T.);
#1039=ORIENTED_EDGE('',*,*,#773,.T.);
#1040=ORIENTED_EDGE('',*,*,#719,.F.);
#1041=ORIENTED_EDGE('',*,*,#772,.F.);
#1042=ORIENTED_EDGE('',*,*,#759,.F.);
#1043=ORIENTED_EDGE('',*,*,#774,.T.);
#1044=ORIENTED_EDGE('',*,*,#720,.F.);
#1045=ORIENTED_EDGE('',*,*,#773,.F.);
#1046=ORIENTED_EDGE('',*,*,#758,.F.);
#1047=ORIENTED_EDGE('',*,*,#771,.T.);
#1048=ORIENTED_EDGE('',*,*,#721,.F.);
#1049=ORIENTED_EDGE('',*,*,#774,.F.);
#1050=ORIENTED_EDGE('',*,*,#757,.F.);
#1051=ORIENTED_EDGE('',*,*,#775,.F.);
#1052=ORIENTED_EDGE('',*,*,#776,.F.);
#1053=ORIENTED_EDGE('',*,*,#777,.F.);
#1054=ORIENTED_EDGE('',*,*,#778,.T.);
#1055=ORIENTED_EDGE('',*,*,#779,.T.);
#1056=ORIENTED_EDGE('',*,*,#780,.T.);
#1057=ORIENTED_EDGE('',*,*,#777,.T.);
#1058=ORIENTED_EDGE('',*,*,#781,.T.);
#1059=ORIENTED_EDGE('',*,*,#782,.F.);
#1060=ORIENTED_EDGE('',*,*,#778,.F.);
#1061=ORIENTED_EDGE('',*,*,#780,.F.);
#1062=ORIENTED_EDGE('',*,*,#783,.T.);
#1063=ORIENTED_EDGE('',*,*,#784,.F.);
#1064=ORIENTED_EDGE('',*,*,#783,.F.);
#1065=ORIENTED_EDGE('',*,*,#779,.F.);
#1066=ORIENTED_EDGE('',*,*,#785,.T.);
#1067=ORIENTED_EDGE('',*,*,#775,.T.);
#1068=ORIENTED_EDGE('',*,*,#782,.T.);
#1069=ORIENTED_EDGE('',*,*,#784,.T.);
#1070=ORIENTED_EDGE('',*,*,#786,.T.);
#1071=ORIENTED_EDGE('',*,*,#787,.T.);
#1072=ORIENTED_EDGE('',*,*,#788,.T.);
#1073=ORIENTED_EDGE('',*,*,#789,.T.);
#1074=ORIENTED_EDGE('',*,*,#790,.T.);
#1075=ORIENTED_EDGE('',*,*,#791,.T.);
#1076=ORIENTED_EDGE('',*,*,#792,.T.);
#1077=ORIENTED_EDGE('',*,*,#793,.T.);
#1078=ORIENTED_EDGE('',*,*,#794,.T.);
#1079=ORIENTED_EDGE('',*,*,#790,.F.);
#1080=ORIENTED_EDGE('',*,*,#795,.T.);
#1081=ORIENTED_EDGE('',*,*,#792,.F.);
#1082=ORIENTED_EDGE('',*,*,#796,.F.);
#1083=ORIENTED_EDGE('',*,*,#786,.F.);
#1084=ORIENTED_EDGE('',*,*,#785,.F.);
#1085=ORIENTED_EDGE('',*,*,#781,.F.);
#1086=ORIENTED_EDGE('',*,*,#776,.T.);
#1087=ORIENTED_EDGE('',*,*,#797,.T.);
#1088=ORIENTED_EDGE('',*,*,#793,.F.);
#1089=ORIENTED_EDGE('',*,*,#795,.F.);
#1090=ORIENTED_EDGE('',*,*,#789,.F.);
#1091=ORIENTED_EDGE('',*,*,#798,.T.);
#1092=ORIENTED_EDGE('',*,*,#794,.F.);
#1093=ORIENTED_EDGE('',*,*,#797,.F.);
#1094=ORIENTED_EDGE('',*,*,#788,.F.);
#1095=ORIENTED_EDGE('',*,*,#796,.T.);
#1096=ORIENTED_EDGE('',*,*,#791,.F.);
#1097=ORIENTED_EDGE('',*,*,#798,.F.);
#1098=ORIENTED_EDGE('',*,*,#787,.F.);
#1099=ORIENTED_EDGE('',*,*,#799,.F.);
#1100=ORIENTED_EDGE('',*,*,#800,.F.);
#1101=ORIENTED_EDGE('',*,*,#801,.F.);
#1102=ORIENTED_EDGE('',*,*,#802,.T.);
#1103=ORIENTED_EDGE('',*,*,#803,.T.);
#1104=ORIENTED_EDGE('',*,*,#804,.T.);
#1105=ORIENTED_EDGE('',*,*,#801,.T.);
#1106=ORIENTED_EDGE('',*,*,#805,.T.);
#1107=ORIENTED_EDGE('',*,*,#806,.F.);
#1108=ORIENTED_EDGE('',*,*,#802,.F.);
#1109=ORIENTED_EDGE('',*,*,#804,.F.);
#1110=ORIENTED_EDGE('',*,*,#807,.T.);
#1111=ORIENTED_EDGE('',*,*,#808,.F.);
#1112=ORIENTED_EDGE('',*,*,#807,.F.);
#1113=ORIENTED_EDGE('',*,*,#803,.F.);
#1114=ORIENTED_EDGE('',*,*,#809,.T.);
#1115=ORIENTED_EDGE('',*,*,#799,.T.);
#1116=ORIENTED_EDGE('',*,*,#806,.T.);
#1117=ORIENTED_EDGE('',*,*,#808,.T.);
#1118=ORIENTED_EDGE('',*,*,#810,.T.);
#1119=ORIENTED_EDGE('',*,*,#811,.T.);
#1120=ORIENTED_EDGE('',*,*,#812,.T.);
#1121=ORIENTED_EDGE('',*,*,#813,.T.);
#1122=ORIENTED_EDGE('',*,*,#814,.T.);
#1123=ORIENTED_EDGE('',*,*,#815,.T.);
#1124=ORIENTED_EDGE('',*,*,#816,.T.);
#1125=ORIENTED_EDGE('',*,*,#817,.T.);
#1126=ORIENTED_EDGE('',*,*,#818,.T.);
#1127=ORIENTED_EDGE('',*,*,#814,.F.);
#1128=ORIENTED_EDGE('',*,*,#819,.T.);
#1129=ORIENTED_EDGE('',*,*,#816,.F.);
#1130=ORIENTED_EDGE('',*,*,#820,.F.);
#1131=ORIENTED_EDGE('',*,*,#810,.F.);
#1132=ORIENTED_EDGE('',*,*,#809,.F.);
#1133=ORIENTED_EDGE('',*,*,#805,.F.);
#1134=ORIENTED_EDGE('',*,*,#800,.T.);
#1135=ORIENTED_EDGE('',*,*,#821,.T.);
#1136=ORIENTED_EDGE('',*,*,#817,.F.);
#1137=ORIENTED_EDGE('',*,*,#819,.F.);
#1138=ORIENTED_EDGE('',*,*,#813,.F.);
#1139=ORIENTED_EDGE('',*,*,#822,.T.);
#1140=ORIENTED_EDGE('',*,*,#818,.F.);
#1141=ORIENTED_EDGE('',*,*,#821,.F.);
#1142=ORIENTED_EDGE('',*,*,#812,.F.);
#1143=ORIENTED_EDGE('',*,*,#820,.T.);
#1144=ORIENTED_EDGE('',*,*,#815,.F.);
#1145=ORIENTED_EDGE('',*,*,#822,.F.);
#1146=ORIENTED_EDGE('',*,*,#811,.F.);
#1147=ORIENTED_EDGE('',*,*,#823,.F.);
#1148=ORIENTED_EDGE('',*,*,#824,.F.);
#1149=ORIENTED_EDGE('',*,*,#825,.F.);
#1150=ORIENTED_EDGE('',*,*,#826,.F.);
#1151=ORIENTED_EDGE('',*,*,#827,.T.);
#1152=ORIENTED_EDGE('',*,*,#828,.F.);
#1153=ORIENTED_EDGE('',*,*,#829,.F.);
#1154=ORIENTED_EDGE('',*,*,#830,.F.);
#1155=ORIENTED_EDGE('',*,*,#831,.F.);
#1156=ORIENTED_EDGE('',*,*,#825,.T.);
#1157=ORIENTED_EDGE('',*,*,#832,.T.);
#1158=ORIENTED_EDGE('',*,*,#833,.T.);
#1159=ORIENTED_EDGE('',*,*,#826,.T.);
#1160=ORIENTED_EDGE('',*,*,#831,.T.);
#1161=ORIENTED_EDGE('',*,*,#834,.F.);
#1162=ORIENTED_EDGE('',*,*,#828,.T.);
#1163=ORIENTED_EDGE('',*,*,#835,.T.);
#1164=ORIENTED_EDGE('',*,*,#836,.T.);
#1165=ORIENTED_EDGE('',*,*,#837,.T.);
#1166=ORIENTED_EDGE('',*,*,#835,.F.);
#1167=ORIENTED_EDGE('',*,*,#827,.F.);
#1168=ORIENTED_EDGE('',*,*,#833,.F.);
#1169=ORIENTED_EDGE('',*,*,#838,.F.);
#1170=ORIENTED_EDGE('',*,*,#836,.F.);
#1171=ORIENTED_EDGE('',*,*,#837,.F.);
#1172=ORIENTED_EDGE('',*,*,#832,.F.);
#1173=ORIENTED_EDGE('',*,*,#830,.T.);
#1174=ORIENTED_EDGE('',*,*,#839,.F.);
#1175=ORIENTED_EDGE('',*,*,#823,.T.);
#1176=ORIENTED_EDGE('',*,*,#834,.T.);
#1177=ORIENTED_EDGE('',*,*,#838,.T.);
#1178=ORIENTED_EDGE('',*,*,#840,.F.);
#1179=ORIENTED_EDGE('',*,*,#841,.T.);
#1180=ORIENTED_EDGE('',*,*,#842,.F.);
#1181=ORIENTED_EDGE('',*,*,#843,.F.);
#1182=ORIENTED_EDGE('',*,*,#844,.F.);
#1183=ORIENTED_EDGE('',*,*,#824,.T.);
#1184=ORIENTED_EDGE('',*,*,#844,.T.);
#1185=ORIENTED_EDGE('',*,*,#845,.T.);
#1186=ORIENTED_EDGE('',*,*,#846,.T.);
#1187=ORIENTED_EDGE('',*,*,#847,.T.);
#1188=ORIENTED_EDGE('',*,*,#840,.T.);
#1189=ORIENTED_EDGE('',*,*,#839,.T.);
#1190=ORIENTED_EDGE('',*,*,#829,.T.);
#1191=ORIENTED_EDGE('',*,*,#848,.T.);
#1192=ORIENTED_EDGE('',*,*,#849,.T.);
#1193=ORIENTED_EDGE('',*,*,#850,.T.);
#1194=ORIENTED_EDGE('',*,*,#842,.T.);
#1195=ORIENTED_EDGE('',*,*,#851,.T.);
#1196=ORIENTED_EDGE('',*,*,#849,.F.);
#1197=ORIENTED_EDGE('',*,*,#852,.F.);
#1198=ORIENTED_EDGE('',*,*,#846,.F.);
#1199=ORIENTED_EDGE('',*,*,#843,.T.);
#1200=ORIENTED_EDGE('',*,*,#850,.F.);
#1201=ORIENTED_EDGE('',*,*,#851,.F.);
#1202=ORIENTED_EDGE('',*,*,#845,.F.);
#1203=ORIENTED_EDGE('',*,*,#852,.T.);
#1204=ORIENTED_EDGE('',*,*,#848,.F.);
#1205=ORIENTED_EDGE('',*,*,#841,.F.);
#1206=ORIENTED_EDGE('',*,*,#847,.F.);
#1207=ORIENTED_EDGE('',*,*,#853,.F.);
#1208=ORIENTED_EDGE('',*,*,#854,.F.);
#1209=ORIENTED_EDGE('',*,*,#855,.F.);
#1210=ORIENTED_EDGE('',*,*,#856,.F.);
#1211=ORIENTED_EDGE('',*,*,#857,.T.);
#1212=ORIENTED_EDGE('',*,*,#858,.F.);
#1213=ORIENTED_EDGE('',*,*,#859,.F.);
#1214=ORIENTED_EDGE('',*,*,#860,.F.);
#1215=ORIENTED_EDGE('',*,*,#861,.F.);
#1216=ORIENTED_EDGE('',*,*,#855,.T.);
#1217=ORIENTED_EDGE('',*,*,#862,.T.);
#1218=ORIENTED_EDGE('',*,*,#863,.T.);
#1219=ORIENTED_EDGE('',*,*,#856,.T.);
#1220=ORIENTED_EDGE('',*,*,#861,.T.);
#1221=ORIENTED_EDGE('',*,*,#864,.F.);
#1222=ORIENTED_EDGE('',*,*,#858,.T.);
#1223=ORIENTED_EDGE('',*,*,#865,.T.);
#1224=ORIENTED_EDGE('',*,*,#866,.T.);
#1225=ORIENTED_EDGE('',*,*,#867,.T.);
#1226=ORIENTED_EDGE('',*,*,#865,.F.);
#1227=ORIENTED_EDGE('',*,*,#857,.F.);
#1228=ORIENTED_EDGE('',*,*,#863,.F.);
#1229=ORIENTED_EDGE('',*,*,#868,.F.);
#1230=ORIENTED_EDGE('',*,*,#866,.F.);
#1231=ORIENTED_EDGE('',*,*,#867,.F.);
#1232=ORIENTED_EDGE('',*,*,#862,.F.);
#1233=ORIENTED_EDGE('',*,*,#860,.T.);
#1234=ORIENTED_EDGE('',*,*,#869,.F.);
#1235=ORIENTED_EDGE('',*,*,#853,.T.);
#1236=ORIENTED_EDGE('',*,*,#864,.T.);
#1237=ORIENTED_EDGE('',*,*,#868,.T.);
#1238=ORIENTED_EDGE('',*,*,#870,.F.);
#1239=ORIENTED_EDGE('',*,*,#871,.T.);
#1240=ORIENTED_EDGE('',*,*,#872,.F.);
#1241=ORIENTED_EDGE('',*,*,#873,.F.);
#1242=ORIENTED_EDGE('',*,*,#874,.F.);
#1243=ORIENTED_EDGE('',*,*,#854,.T.);
#1244=ORIENTED_EDGE('',*,*,#874,.T.);
#1245=ORIENTED_EDGE('',*,*,#875,.T.);
#1246=ORIENTED_EDGE('',*,*,#876,.T.);
#1247=ORIENTED_EDGE('',*,*,#877,.T.);
#1248=ORIENTED_EDGE('',*,*,#870,.T.);
#1249=ORIENTED_EDGE('',*,*,#869,.T.);
#1250=ORIENTED_EDGE('',*,*,#859,.T.);
#1251=ORIENTED_EDGE('',*,*,#878,.T.);
#1252=ORIENTED_EDGE('',*,*,#879,.T.);
#1253=ORIENTED_EDGE('',*,*,#880,.T.);
#1254=ORIENTED_EDGE('',*,*,#872,.T.);
#1255=ORIENTED_EDGE('',*,*,#881,.T.);
#1256=ORIENTED_EDGE('',*,*,#879,.F.);
#1257=ORIENTED_EDGE('',*,*,#882,.F.);
#1258=ORIENTED_EDGE('',*,*,#876,.F.);
#1259=ORIENTED_EDGE('',*,*,#873,.T.);
#1260=ORIENTED_EDGE('',*,*,#880,.F.);
#1261=ORIENTED_EDGE('',*,*,#881,.F.);
#1262=ORIENTED_EDGE('',*,*,#875,.F.);
#1263=ORIENTED_EDGE('',*,*,#882,.T.);
#1264=ORIENTED_EDGE('',*,*,#878,.F.);
#1265=ORIENTED_EDGE('',*,*,#871,.F.);
#1266=ORIENTED_EDGE('',*,*,#877,.F.);
#1267=PLANE('',#1437);
#1268=PLANE('',#1438);
#1269=PLANE('',#1439);
#1270=PLANE('',#1440);
#1271=PLANE('',#1441);
#1272=PLANE('',#1442);
#1273=PLANE('',#1443);
#1274=PLANE('',#1444);
#1275=PLANE('',#1445);
#1276=PLANE('',#1446);
#1277=PLANE('',#1447);
#1278=PLANE('',#1448);
#1279=PLANE('',#1449);
#1280=PLANE('',#1450);
#1281=PLANE('',#1451);
#1282=PLANE('',#1452);
#1283=PLANE('',#1453);
#1284=PLANE('',#1454);
#1285=PLANE('',#1455);
#1286=PLANE('',#1456);
#1287=PLANE('',#1457);
#1288=PLANE('',#1458);
#1289=PLANE('',#1459);
#1290=PLANE('',#1460);
#1291=PLANE('',#1461);
#1292=PLANE('',#1462);
#1293=PLANE('',#1463);
#1294=PLANE('',#1464);
#1295=PLANE('',#1465);
#1296=PLANE('',#1466);
#1297=PLANE('',#1467);
#1298=PLANE('',#1468);
#1299=PLANE('',#1469);
#1300=PLANE('',#1470);
#1301=PLANE('',#1471);
#1302=PLANE('',#1472);
#1303=PLANE('',#1473);
#1304=PLANE('',#1474);
#1305=PLANE('',#1475);
#1306=PLANE('',#1476);
#1307=PLANE('',#1477);
#1308=PLANE('',#1478);
#1309=PLANE('',#1479);
#1310=PLANE('',#1480);
#1311=PLANE('',#1481);
#1312=PLANE('',#1482);
#1313=PLANE('',#1483);
#1314=PLANE('',#1484);
#1315=PLANE('',#1485);
#1316=PLANE('',#1486);
#1317=PLANE('',#1487);
#1318=PLANE('',#1488);
#1319=PLANE('',#1489);
#1320=PLANE('',#1490);
#1321=PLANE('',#1491);
#1322=PLANE('',#1492);
#1323=PLANE('',#1493);
#1324=PLANE('',#1494);
#1325=PLANE('',#1495);
#1326=PLANE('',#1496);
#1327=PLANE('',#1497);
#1328=PLANE('',#1498);
#1329=PLANE('',#1499);
#1330=PLANE('',#1500);
#1331=PLANE('',#1501);
#1332=PLANE('',#1502);
#1333=PLANE('',#1503);
#1334=PLANE('',#1504);
#1335=PLANE('',#1505);
#1336=PLANE('',#1506);
#1337=PLANE('',#1507);
#1338=PLANE('',#1508);
#1339=PLANE('',#1509);
#1340=PLANE('',#1510);
#1341=PLANE('',#1511);
#1342=PLANE('',#1512);
#1343=ADVANCED_FACE('',(#25),#1267,.T.);
#1344=ADVANCED_FACE('',(#26),#1268,.T.);
#1345=ADVANCED_FACE('',(#27),#1269,.T.);
#1346=ADVANCED_FACE('',(#28),#1270,.T.);
#1347=ADVANCED_FACE('',(#29),#1271,.T.);
#1348=ADVANCED_FACE('',(#30),#1272,.T.);
#1349=ADVANCED_FACE('',(#31),#1273,.T.);
#1350=ADVANCED_FACE('',(#32),#1274,.F.);
#1351=ADVANCED_FACE('',(#33),#1275,.T.);
#1352=ADVANCED_FACE('',(#34),#1276,.F.);
#1353=ADVANCED_FACE('',(#35),#1277,.T.);
#1354=ADVANCED_FACE('',(#36),#1278,.T.);
#1355=ADVANCED_FACE('',(#37),#1279,.T.);
#1356=ADVANCED_FACE('',(#38),#1280,.T.);
#1357=ADVANCED_FACE('',(#39),#1281,.T.);
#1358=ADVANCED_FACE('',(#40),#1282,.T.);
#1359=ADVANCED_FACE('',(#41),#1283,.T.);
#1360=ADVANCED_FACE('',(#42),#1284,.F.);
#1361=ADVANCED_FACE('',(#43),#1285,.T.);
#1362=ADVANCED_FACE('',(#44),#1286,.T.);
#1363=ADVANCED_FACE('',(#45),#1287,.T.);
#1364=ADVANCED_FACE('',(#46),#1288,.T.);
#1365=ADVANCED_FACE('',(#47),#1289,.T.);
#1366=ADVANCED_FACE('',(#48,#23,#24),#1290,.T.);
#1367=ADVANCED_FACE('',(#49),#1291,.T.);
#1368=ADVANCED_FACE('',(#50),#1292,.T.);
#1369=ADVANCED_FACE('',(#51),#1293,.T.);
#1370=ADVANCED_FACE('',(#52),#1294,.T.);
#1371=ADVANCED_FACE('',(#53),#1295,.F.);
#1372=ADVANCED_FACE('',(#54),#1296,.F.);
#1373=ADVANCED_FACE('',(#55),#1297,.F.);
#1374=ADVANCED_FACE('',(#56),#1298,.F.);
#1375=ADVANCED_FACE('',(#57),#1299,.F.);
#1376=ADVANCED_FACE('',(#58),#1300,.T.);
#1377=ADVANCED_FACE('',(#59),#1301,.F.);
#1378=ADVANCED_FACE('',(#60),#1302,.F.);
#1379=ADVANCED_FACE('',(#61),#1303,.T.);
#1380=ADVANCED_FACE('',(#62),#1304,.F.);
#1381=ADVANCED_FACE('',(#63),#1305,.F.);
#1382=ADVANCED_FACE('',(#64),#1306,.F.);
#1383=ADVANCED_FACE('',(#65),#1307,.F.);
#1384=ADVANCED_FACE('',(#66),#1308,.F.);
#1385=ADVANCED_FACE('',(#67),#1309,.F.);
#1386=ADVANCED_FACE('',(#68),#1310,.T.);
#1387=ADVANCED_FACE('',(#69),#1311,.F.);
#1388=ADVANCED_FACE('',(#70),#1312,.F.);
#1389=ADVANCED_FACE('',(#71),#1313,.T.);
#1390=ADVANCED_FACE('',(#72),#1314,.F.);
#1391=ADVANCED_FACE('',(#73),#1315,.F.);
#1392=ADVANCED_FACE('',(#74),#1316,.F.);
#1393=ADVANCED_FACE('',(#75),#1317,.F.);
#1394=ADVANCED_FACE('',(#76),#1318,.F.);
#1395=ADVANCED_FACE('',(#77),#1319,.F.);
#1396=ADVANCED_FACE('',(#78),#1320,.F.);
#1397=ADVANCED_FACE('',(#79),#1321,.T.);
#1398=ADVANCED_FACE('',(#80),#1322,.F.);
#1399=ADVANCED_FACE('',(#81),#1323,.F.);
#1400=ADVANCED_FACE('',(#82),#1324,.F.);
#1401=ADVANCED_FACE('',(#83),#1325,.F.);
#1402=ADVANCED_FACE('',(#84),#1326,.T.);
#1403=ADVANCED_FACE('',(#85),#1327,.F.);
#1404=ADVANCED_FACE('',(#86),#1328,.F.);
#1405=ADVANCED_FACE('',(#87),#1329,.F.);
#1406=ADVANCED_FACE('',(#88),#1330,.F.);
#1407=ADVANCED_FACE('',(#89),#1331,.F.);
#1408=ADVANCED_FACE('',(#90),#1332,.F.);
#1409=ADVANCED_FACE('',(#91),#1333,.T.);
#1410=ADVANCED_FACE('',(#92),#1334,.F.);
#1411=ADVANCED_FACE('',(#93),#1335,.F.);
#1412=ADVANCED_FACE('',(#94),#1336,.F.);
#1413=ADVANCED_FACE('',(#95),#1337,.F.);
#1414=ADVANCED_FACE('',(#96),#1338,.T.);
#1415=ADVANCED_FACE('',(#97),#1339,.F.);
#1416=ADVANCED_FACE('',(#98),#1340,.F.);
#1417=ADVANCED_FACE('',(#99),#1341,.F.);
#1418=ADVANCED_FACE('',(#100),#1342,.F.);
#1419=CLOSED_SHELL('',(#1343,#1344,#1345,#1346,#1347,#1348,#1349,#1350,
#1351,#1352,#1353,#1354,#1355,#1356,#1357,#1358,#1359,#1360,#1361,#1362,
#1363,#1364,#1365,#1366,#1367,#1368,#1369,#1370,#1371,#1372,#1373,#1374));
#1420=CLOSED_SHELL('',(#1375,#1376,#1377,#1378,#1379,#1380,#1381,#1382,
#1383,#1384));
#1421=CLOSED_SHELL('',(#1385,#1386,#1387,#1388,#1389,#1390,#1391,#1392,
#1393,#1394));
#1422=CLOSED_SHELL('',(#1395,#1396,#1397,#1398,#1399,#1400,#1401,#1402,
#1403,#1404,#1405,#1406));
#1423=CLOSED_SHELL('',(#1407,#1408,#1409,#1410,#1411,#1412,#1413,#1414,
#1415,#1416,#1417,#1418));
#1424=DERIVED_UNIT_ELEMENT(#1426,1.);
#1425=DERIVED_UNIT_ELEMENT(#2261,-3.);
#1426=(
MASS_UNIT()
NAMED_UNIT(*)
SI_UNIT(.KILO.,.GRAM.)
);
#1427=DERIVED_UNIT((#1424,#1425));
#1428=MEASURE_REPRESENTATION_ITEM('density measure',
POSITIVE_RATIO_MEASURE(7850.),#1427);
#1429=PROPERTY_DEFINITION_REPRESENTATION(#1434,#1431);
#1430=PROPERTY_DEFINITION_REPRESENTATION(#1435,#1432);
#1431=REPRESENTATION('material name',(#1433),#2258);
#1432=REPRESENTATION('density',(#1428),#2258);
#1433=DESCRIPTIVE_REPRESENTATION_ITEM('Steel','Steel');
#1434=PROPERTY_DEFINITION('material property','material name',#2268);
#1435=PROPERTY_DEFINITION('material property','density of part',#2268);
#1436=AXIS2_PLACEMENT_3D('',#1859,#1513,#1514);
#1437=AXIS2_PLACEMENT_3D('',#1860,#1515,#1516);
#1438=AXIS2_PLACEMENT_3D('',#1869,#1521,#1522);
#1439=AXIS2_PLACEMENT_3D('',#1875,#1526,#1527);
#1440=AXIS2_PLACEMENT_3D('',#1879,#1530,#1531);
#1441=AXIS2_PLACEMENT_3D('',#1883,#1534,#1535);
#1442=AXIS2_PLACEMENT_3D('',#1885,#1537,#1538);
#1443=AXIS2_PLACEMENT_3D('',#1894,#1543,#1544);
#1444=AXIS2_PLACEMENT_3D('',#1900,#1548,#1549);
#1445=AXIS2_PLACEMENT_3D('',#1904,#1552,#1553);
#1446=AXIS2_PLACEMENT_3D('',#1908,#1556,#1557);
#1447=AXIS2_PLACEMENT_3D('',#1926,#1567,#1568);
#1448=AXIS2_PLACEMENT_3D('',#1935,#1573,#1574);
#1449=AXIS2_PLACEMENT_3D('',#1941,#1578,#1579);
#1450=AXIS2_PLACEMENT_3D('',#1945,#1582,#1583);
#1451=AXIS2_PLACEMENT_3D('',#1949,#1586,#1587);
#1452=AXIS2_PLACEMENT_3D('',#1951,#1589,#1590);
#1453=AXIS2_PLACEMENT_3D('',#1957,#1594,#1595);
#1454=AXIS2_PLACEMENT_3D('',#1961,#1598,#1599);
#1455=AXIS2_PLACEMENT_3D('',#1965,#1602,#1603);
#1456=AXIS2_PLACEMENT_3D('',#1967,#1605,#1606);
#1457=AXIS2_PLACEMENT_3D('',#1976,#1611,#1612);
#1458=AXIS2_PLACEMENT_3D('',#1982,#1616,#1617);
#1459=AXIS2_PLACEMENT_3D('',#1986,#1620,#1621);
#1460=AXIS2_PLACEMENT_3D('',#1990,#1624,#1625);
#1461=AXIS2_PLACEMENT_3D('',#2008,#1635,#1636);
#1462=AXIS2_PLACEMENT_3D('',#2017,#1641,#1642);
#1463=AXIS2_PLACEMENT_3D('',#2020,#1645,#1646);
#1464=AXIS2_PLACEMENT_3D('',#2022,#1648,#1649);
#1465=AXIS2_PLACEMENT_3D('',#2024,#1651,#1652);
#1466=AXIS2_PLACEMENT_3D('',#2027,#1655,#1656);
#1467=AXIS2_PLACEMENT_3D('',#2029,#1658,#1659);
#1468=AXIS2_PLACEMENT_3D('',#2031,#1661,#1662);
#1469=AXIS2_PLACEMENT_3D('',#2032,#1663,#1664);
#1470=AXIS2_PLACEMENT_3D('',#2041,#1669,#1670);
#1471=AXIS2_PLACEMENT_3D('',#2047,#1674,#1675);
#1472=AXIS2_PLACEMENT_3D('',#2051,#1678,#1679);
#1473=AXIS2_PLACEMENT_3D('',#2055,#1682,#1683);
#1474=AXIS2_PLACEMENT_3D('',#2065,#1689,#1690);
#1475=AXIS2_PLACEMENT_3D('',#2074,#1695,#1696);
#1476=AXIS2_PLACEMENT_3D('',#2077,#1699,#1700);
#1477=AXIS2_PLACEMENT_3D('',#2079,#1702,#1703);
#1478=AXIS2_PLACEMENT_3D('',#2081,#1705,#1706);
#1479=AXIS2_PLACEMENT_3D('',#2082,#1707,#1708);
#1480=AXIS2_PLACEMENT_3D('',#2091,#1713,#1714);
#1481=AXIS2_PLACEMENT_3D('',#2097,#1718,#1719);
#1482=AXIS2_PLACEMENT_3D('',#2101,#1722,#1723);
#1483=AXIS2_PLACEMENT_3D('',#2105,#1726,#1727);
#1484=AXIS2_PLACEMENT_3D('',#2115,#1733,#1734);
#1485=AXIS2_PLACEMENT_3D('',#2124,#1739,#1740);
#1486=AXIS2_PLACEMENT_3D('',#2127,#1743,#1744);
#1487=AXIS2_PLACEMENT_3D('',#2129,#1746,#1747);
#1488=AXIS2_PLACEMENT_3D('',#2131,#1749,#1750);
#1489=AXIS2_PLACEMENT_3D('',#2132,#1751,#1752);
#1490=AXIS2_PLACEMENT_3D('',#2145,#1759,#1760);
#1491=AXIS2_PLACEMENT_3D('',#2151,#1764,#1765);
#1492=AXIS2_PLACEMENT_3D('',#2155,#1768,#1769);
#1493=AXIS2_PLACEMENT_3D('',#2161,#1773,#1774);
#1494=AXIS2_PLACEMENT_3D('',#2163,#1776,#1777);
#1495=AXIS2_PLACEMENT_3D('',#2167,#1780,#1781);
#1496=AXIS2_PLACEMENT_3D('',#2177,#1787,#1788);
#1497=AXIS2_PLACEMENT_3D('',#2183,#1792,#1793);
#1498=AXIS2_PLACEMENT_3D('',#2189,#1797,#1798);
#1499=AXIS2_PLACEMENT_3D('',#2192,#1801,#1802);
#1500=AXIS2_PLACEMENT_3D('',#2193,#1803,#1804);
#1501=AXIS2_PLACEMENT_3D('',#2194,#1805,#1806);
#1502=AXIS2_PLACEMENT_3D('',#2207,#1813,#1814);
#1503=AXIS2_PLACEMENT_3D('',#2213,#1818,#1819);
#1504=AXIS2_PLACEMENT_3D('',#2217,#1822,#1823);
#1505=AXIS2_PLACEMENT_3D('',#2223,#1827,#1828);
#1506=AXIS2_PLACEMENT_3D('',#2225,#1830,#1831);
#1507=AXIS2_PLACEMENT_3D('',#2229,#1834,#1835);
#1508=AXIS2_PLACEMENT_3D('',#2239,#1841,#1842);
#1509=AXIS2_PLACEMENT_3D('',#2245,#1846,#1847);
#1510=AXIS2_PLACEMENT_3D('',#2251,#1851,#1852);
#1511=AXIS2_PLACEMENT_3D('',#2254,#1855,#1856);
#1512=AXIS2_PLACEMENT_3D('',#2255,#1857,#1858);
#1513=DIRECTION('axis',(0.,0.,1.));
#1514=DIRECTION('refdir',(1.,0.,0.));
#1515=DIRECTION('center_axis',(0.,-1.,0.));
#1516=DIRECTION('ref_axis',(0.,0.,-1.));
#1517=DIRECTION('',(1.,0.,0.));
#1518=DIRECTION('',(0.,0.,-1.));
#1519=DIRECTION('',(1.,0.,0.));
#1520=DIRECTION('',(0.,0.,-1.));
#1521=DIRECTION('center_axis',(-1.,0.,0.));
#1522=DIRECTION('ref_axis',(0.,0.,1.));
#1523=DIRECTION('',(0.,-1.,0.));
#1524=DIRECTION('',(0.,-1.,0.));
#1525=DIRECTION('',(0.,0.,-1.));
#1526=DIRECTION('center_axis',(0.,0.,1.));
#1527=DIRECTION('ref_axis',(1.,0.,0.));
#1528=DIRECTION('',(0.,1.,0.));
#1529=DIRECTION('',(-1.,0.,0.));
#1530=DIRECTION('center_axis',(0.,1.,0.));
#1531=DIRECTION('ref_axis',(0.,0.,1.));
#1532=DIRECTION('',(-1.,0.,0.));
#1533=DIRECTION('',(0.,0.,-1.));
#1534=DIRECTION('center_axis',(1.,0.,0.));
#1535=DIRECTION('ref_axis',(0.,0.,-1.));
#1536=DIRECTION('',(0.,1.,0.));
#1537=DIRECTION('center_axis',(-1.,0.,0.));
#1538=DIRECTION('ref_axis',(0.,0.,1.));
#1539=DIRECTION('',(0.,0.,-1.));
#1540=DIRECTION('',(0.,1.,0.));
#1541=DIRECTION('',(0.,0.,-1.));
#1542=DIRECTION('',(0.,1.,0.));
#1543=DIRECTION('center_axis',(0.,-1.,0.));
#1544=DIRECTION('ref_axis',(0.,0.,-1.));
#1545=DIRECTION('',(-1.,0.,0.));
#1546=DIRECTION('',(-1.,0.,0.));
#1547=DIRECTION('',(0.,0.,-1.));
#1548=DIRECTION('center_axis',(0.,0.,1.));
#1549=DIRECTION('ref_axis',(1.,0.,0.));
#1550=DIRECTION('',(1.,0.,0.));
#1551=DIRECTION('',(0.,-1.,0.));
#1552=DIRECTION('center_axis',(1.,0.,0.));
#1553=DIRECTION('ref_axis',(0.,0.,-1.));
#1554=DIRECTION('',(0.,0.,1.));
#1555=DIRECTION('',(0.,-1.,0.));
#1556=DIRECTION('center_axis',(0.,0.,1.));
#1557=DIRECTION('ref_axis',(1.,0.,0.));
#1558=DIRECTION('',(-1.,0.,0.));
#1559=DIRECTION('',(0.,1.,0.));
#1560=DIRECTION('',(-1.,0.,0.));
#1561=DIRECTION('',(0.,-1.,0.));
#1562=DIRECTION('',(-1.,0.,0.));
#1563=DIRECTION('',(0.,1.,0.));
#1564=DIRECTION('',(1.,0.,0.));
#1565=DIRECTION('',(0.,-1.,0.));
#1566=DIRECTION('',(-1.,0.,0.));
#1567=DIRECTION('center_axis',(0.,-1.,0.));
#1568=DIRECTION('ref_axis',(0.,0.,-1.));
#1569=DIRECTION('',(1.,0.,0.));
#1570=DIRECTION('',(0.,0.,-1.));
#1571=DIRECTION('',(1.,0.,0.));
#1572=DIRECTION('',(0.,0.,-1.));
#1573=DIRECTION('center_axis',(-1.,0.,0.));
#1574=DIRECTION('ref_axis',(0.,0.,1.));
#1575=DIRECTION('',(0.,-1.,0.));
#1576=DIRECTION('',(0.,-1.,0.));
#1577=DIRECTION('',(0.,0.,-1.));
#1578=DIRECTION('center_axis',(0.,0.,1.));
#1579=DIRECTION('ref_axis',(1.,0.,0.));
#1580=DIRECTION('',(0.,1.,0.));
#1581=DIRECTION('',(-1.,0.,0.));
#1582=DIRECTION('center_axis',(0.,1.,0.));
#1583=DIRECTION('ref_axis',(0.,0.,1.));
#1584=DIRECTION('',(-1.,0.,0.));
#1585=DIRECTION('',(0.,0.,-1.));
#1586=DIRECTION('center_axis',(1.,0.,0.));
#1587=DIRECTION('ref_axis',(0.,0.,-1.));
#1588=DIRECTION('',(0.,1.,0.));
#1589=DIRECTION('center_axis',(0.,-1.,0.));
#1590=DIRECTION('ref_axis',(0.,0.,-1.));
#1591=DIRECTION('',(0.,0.,-1.));
#1592=DIRECTION('',(-1.,0.,0.));
#1593=DIRECTION('',(0.,0.,-1.));
#1594=DIRECTION('center_axis',(1.,0.,0.));
#1595=DIRECTION('ref_axis',(0.,0.,-1.));
#1596=DIRECTION('',(0.,-1.,0.));
#1597=DIRECTION('',(0.,0.,1.));
#1598=DIRECTION('center_axis',(0.,0.,1.));
#1599=DIRECTION('ref_axis',(1.,0.,0.));
#1600=DIRECTION('',(1.,0.,0.));
#1601=DIRECTION('',(0.,1.,0.));
#1602=DIRECTION('center_axis',(-1.,0.,0.));
#1603=DIRECTION('ref_axis',(0.,0.,1.));
#1604=DIRECTION('',(0.,0.,-1.));
#1605=DIRECTION('center_axis',(0.,-1.,0.));
#1606=DIRECTION('ref_axis',(0.,0.,-1.));
#1607=DIRECTION('',(1.,0.,0.));
#1608=DIRECTION('',(0.,0.,-1.));
#1609=DIRECTION('',(1.,0.,0.));
#1610=DIRECTION('',(0.,0.,-1.));
#1611=DIRECTION('center_axis',(-1.,0.,0.));
#1612=DIRECTION('ref_axis',(0.,0.,1.));
#1613=DIRECTION('',(0.,-1.,0.));
#1614=DIRECTION('',(0.,-1.,0.));
#1615=DIRECTION('',(0.,0.,-1.));
#1616=DIRECTION('center_axis',(0.,0.,1.));
#1617=DIRECTION('ref_axis',(1.,0.,0.));
#1618=DIRECTION('',(-1.,0.,0.));
#1619=DIRECTION('',(0.,1.,0.));
#1620=DIRECTION('center_axis',(1.,0.,0.));
#1621=DIRECTION('ref_axis',(0.,0.,-1.));
#1622=DIRECTION('',(0.,1.,0.));
#1623=DIRECTION('',(0.,0.,1.));
#1624=DIRECTION('center_axis',(0.,0.,1.));
#1625=DIRECTION('ref_axis',(1.,0.,0.));
#1626=DIRECTION('',(1.,0.,0.));
#1627=DIRECTION('',(0.,-1.,0.));
#1628=DIRECTION('',(1.,0.,0.));
#1629=DIRECTION('',(0.,1.,0.));
#1630=DIRECTION('',(-1.,0.,0.));
#1631=DIRECTION('',(0.,-1.,0.));
#1632=DIRECTION('',(1.,0.,0.));
#1633=DIRECTION('',(0.,1.,0.));
#1634=DIRECTION('',(1.,0.,0.));
#1635=DIRECTION('center_axis',(0.,0.,1.));
#1636=DIRECTION('ref_axis',(1.,0.,0.));
#1637=DIRECTION('',(-1.,0.,0.));
#1638=DIRECTION('',(0.,-1.,0.));
#1639=DIRECTION('',(1.,0.,0.));
#1640=DIRECTION('',(0.,1.,0.));
#1641=DIRECTION('center_axis',(1.,0.,0.));
#1642=DIRECTION('ref_axis',(0.,0.,-1.));
#1643=DIRECTION('',(0.,0.,1.));
#1644=DIRECTION('',(0.,0.,-1.));
#1645=DIRECTION('center_axis',(0.,-1.,0.));
#1646=DIRECTION('ref_axis',(0.,0.,-1.));
#1647=DIRECTION('',(0.,0.,-1.));
#1648=DIRECTION('center_axis',(-1.,0.,0.));
#1649=DIRECTION('ref_axis',(0.,0.,1.));
#1650=DIRECTION('',(0.,0.,-1.));
#1651=DIRECTION('center_axis',(0.,1.,0.));
#1652=DIRECTION('ref_axis',(0.,0.,1.));
#1653=DIRECTION('',(0.,0.,-1.));
#1654=DIRECTION('',(0.,0.,-1.));
#1655=DIRECTION('center_axis',(1.,0.,0.));
#1656=DIRECTION('ref_axis',(0.,0.,-1.));
#1657=DIRECTION('',(0.,0.,-1.));
#1658=DIRECTION('center_axis',(0.,-1.,0.));
#1659=DIRECTION('ref_axis',(0.,0.,-1.));
#1660=DIRECTION('',(0.,0.,-1.));
#1661=DIRECTION('center_axis',(-1.,0.,0.));
#1662=DIRECTION('ref_axis',(0.,0.,1.));
#1663=DIRECTION('center_axis',(1.,0.,0.));
#1664=DIRECTION('ref_axis',(0.,0.,-1.));
#1665=DIRECTION('',(0.,1.,0.));
#1666=DIRECTION('',(0.,0.,-1.));
#1667=DIRECTION('',(0.,-1.,0.));
#1668=DIRECTION('',(0.,0.,-1.));
#1669=DIRECTION('center_axis',(0.,0.,1.));
#1670=DIRECTION('ref_axis',(1.,0.,0.));
#1671=DIRECTION('',(0.,1.,0.));
#1672=DIRECTION('',(-1.,0.,0.));
#1673=DIRECTION('',(1.,0.,0.));
#1674=DIRECTION('center_axis',(0.,-1.,0.));
#1675=DIRECTION('ref_axis',(0.,0.,-1.));
#1676=DIRECTION('',(1.,0.,0.));
#1677=DIRECTION('',(0.,0.,-1.));
#1678=DIRECTION('center_axis',(-1.,0.,0.));
#1679=DIRECTION('ref_axis',(0.,0.,1.));
#1680=DIRECTION('',(0.,-1.,0.));
#1681=DIRECTION('',(0.,0.,-1.));
#1682=DIRECTION('center_axis',(0.,0.,1.));
#1683=DIRECTION('ref_axis',(1.,0.,0.));
#1684=DIRECTION('',(1.,0.,0.));
#1685=DIRECTION('',(0.,1.,0.));
#1686=DIRECTION('',(-1.,0.,0.));
#1687=DIRECTION('',(0.,-1.,0.));
#1688=DIRECTION('',(1.,0.,0.));
#1689=DIRECTION('center_axis',(0.,0.,1.));
#1690=DIRECTION('ref_axis',(1.,0.,0.));
#1691=DIRECTION('',(0.,-1.,0.));
#1692=DIRECTION('',(-1.,0.,0.));
#1693=DIRECTION('',(0.,1.,0.));
#1694=DIRECTION('',(1.,0.,0.));
#1695=DIRECTION('center_axis',(0.,1.,0.));
#1696=DIRECTION('ref_axis',(0.,0.,1.));
#1697=DIRECTION('',(0.,0.,-1.));
#1698=DIRECTION('',(0.,0.,-1.));
#1699=DIRECTION('center_axis',(1.,0.,0.));
#1700=DIRECTION('ref_axis',(0.,0.,-1.));
#1701=DIRECTION('',(0.,0.,-1.));
#1702=DIRECTION('center_axis',(0.,-1.,0.));
#1703=DIRECTION('ref_axis',(0.,0.,-1.));
#1704=DIRECTION('',(0.,0.,-1.));
#1705=DIRECTION('center_axis',(-1.,0.,0.));
#1706=DIRECTION('ref_axis',(0.,0.,1.));
#1707=DIRECTION('center_axis',(1.,0.,0.));
#1708=DIRECTION('ref_axis',(0.,0.,-1.));
#1709=DIRECTION('',(0.,1.,0.));
#1710=DIRECTION('',(0.,0.,-1.));
#1711=DIRECTION('',(0.,-1.,0.));
#1712=DIRECTION('',(0.,0.,-1.));
#1713=DIRECTION('center_axis',(0.,0.,1.));
#1714=DIRECTION('ref_axis',(1.,0.,0.));
#1715=DIRECTION('',(0.,1.,0.));
#1716=DIRECTION('',(-1.,0.,0.));
#1717=DIRECTION('',(1.,0.,0.));
#1718=DIRECTION('center_axis',(0.,-1.,0.));
#1719=DIRECTION('ref_axis',(0.,0.,-1.));
#1720=DIRECTION('',(1.,0.,0.));
#1721=DIRECTION('',(0.,0.,-1.));
#1722=DIRECTION('center_axis',(-1.,0.,0.));
#1723=DIRECTION('ref_axis',(0.,0.,1.));
#1724=DIRECTION('',(0.,-1.,0.));
#1725=DIRECTION('',(0.,0.,-1.));
#1726=DIRECTION('center_axis',(0.,0.,1.));
#1727=DIRECTION('ref_axis',(1.,0.,0.));
#1728=DIRECTION('',(1.,0.,0.));
#1729=DIRECTION('',(0.,1.,0.));
#1730=DIRECTION('',(-1.,0.,0.));
#1731=DIRECTION('',(0.,-1.,0.));
#1732=DIRECTION('',(1.,0.,0.));
#1733=DIRECTION('center_axis',(0.,0.,1.));
#1734=DIRECTION('ref_axis',(1.,0.,0.));
#1735=DIRECTION('',(0.,-1.,0.));
#1736=DIRECTION('',(-1.,0.,0.));
#1737=DIRECTION('',(0.,1.,0.));
#1738=DIRECTION('',(1.,0.,0.));
#1739=DIRECTION('center_axis',(0.,1.,0.));
#1740=DIRECTION('ref_axis',(0.,0.,1.));
#1741=DIRECTION('',(0.,0.,-1.));
#1742=DIRECTION('',(0.,0.,-1.));
#1743=DIRECTION('center_axis',(1.,0.,0.));
#1744=DIRECTION('ref_axis',(0.,0.,-1.));
#1745=DIRECTION('',(0.,0.,-1.));
#1746=DIRECTION('center_axis',(0.,-1.,0.));
#1747=DIRECTION('ref_axis',(0.,0.,-1.));
#1748=DIRECTION('',(0.,0.,-1.));
#1749=DIRECTION('center_axis',(-1.,0.,0.));
#1750=DIRECTION('ref_axis',(0.,0.,1.));
#1751=DIRECTION('center_axis',(1.,0.,0.));
#1752=DIRECTION('ref_axis',(0.,0.,-1.));
#1753=DIRECTION('',(0.,0.,-1.));
#1754=DIRECTION('',(0.,1.,0.));
#1755=DIRECTION('',(0.,0.,-1.));
#1756=DIRECTION('',(0.,-1.,0.));
#1757=DIRECTION('',(0.,0.,-1.));
#1758=DIRECTION('',(0.,1.,0.));
#1759=DIRECTION('center_axis',(0.,1.,0.));
#1760=DIRECTION('ref_axis',(0.,0.,1.));
#1761=DIRECTION('',(-1.,0.,0.));
#1762=DIRECTION('',(0.,0.,-1.));
#1763=DIRECTION('',(1.,0.,0.));
#1764=DIRECTION('center_axis',(0.,0.,1.));
#1765=DIRECTION('ref_axis',(1.,0.,0.));
#1766=DIRECTION('',(0.,1.,0.));
#1767=DIRECTION('',(-1.,0.,0.));
#1768=DIRECTION('center_axis',(0.,0.,1.));
#1769=DIRECTION('ref_axis',(1.,0.,0.));
#1770=DIRECTION('',(1.,0.,0.));
#1771=DIRECTION('',(1.,0.,0.));
#1772=DIRECTION('',(0.,-1.,0.));
#1773=DIRECTION('center_axis',(0.,-1.,0.));
#1774=DIRECTION('ref_axis',(0.,0.,-1.));
#1775=DIRECTION('',(0.,0.,-1.));
#1776=DIRECTION('center_axis',(-1.,0.,0.));
#1777=DIRECTION('ref_axis',(0.,0.,1.));
#1778=DIRECTION('',(0.,0.,1.));
#1779=DIRECTION('',(0.,-1.,0.));
#1780=DIRECTION('center_axis',(0.,-1.,0.));
#1781=DIRECTION('ref_axis',(0.,0.,-1.));
#1782=DIRECTION('',(-1.,0.,0.));
#1783=DIRECTION('',(0.,0.,-1.));
#1784=DIRECTION('',(1.,0.,0.));
#1785=DIRECTION('',(0.,0.,-1.));
#1786=DIRECTION('',(-1.,0.,0.));
#1787=DIRECTION('center_axis',(0.,0.,1.));
#1788=DIRECTION('ref_axis',(1.,0.,0.));
#1789=DIRECTION('',(0.,-1.,0.));
#1790=DIRECTION('',(1.,0.,0.));
#1791=DIRECTION('',(0.,1.,0.));
#1792=DIRECTION('center_axis',(0.,0.,1.));
#1793=DIRECTION('ref_axis',(1.,0.,0.));
#1794=DIRECTION('',(0.,-1.,0.));
#1795=DIRECTION('',(-1.,0.,0.));
#1796=DIRECTION('',(0.,1.,0.));
#1797=DIRECTION('center_axis',(0.,1.,0.));
#1798=DIRECTION('ref_axis',(0.,0.,1.));
#1799=DIRECTION('',(0.,0.,-1.));
#1800=DIRECTION('',(0.,0.,-1.));
#1801=DIRECTION('center_axis',(1.,0.,0.));
#1802=DIRECTION('ref_axis',(0.,0.,-1.));
#1803=DIRECTION('center_axis',(-1.,0.,0.));
#1804=DIRECTION('ref_axis',(0.,0.,1.));
#1805=DIRECTION('center_axis',(1.,0.,0.));
#1806=DIRECTION('ref_axis',(0.,0.,-1.));
#1807=DIRECTION('',(0.,0.,-1.));
#1808=DIRECTION('',(0.,1.,0.));
#1809=DIRECTION('',(0.,0.,-1.));
#1810=DIRECTION('',(0.,-1.,0.));
#1811=DIRECTION('',(0.,0.,-1.));
#1812=DIRECTION('',(0.,1.,0.));
#1813=DIRECTION('center_axis',(0.,1.,0.));
#1814=DIRECTION('ref_axis',(0.,0.,1.));
#1815=DIRECTION('',(-1.,0.,0.));
#1816=DIRECTION('',(0.,0.,-1.));
#1817=DIRECTION('',(1.,0.,0.));
#1818=DIRECTION('center_axis',(0.,0.,1.));
#1819=DIRECTION('ref_axis',(1.,0.,0.));
#1820=DIRECTION('',(0.,1.,0.));
#1821=DIRECTION('',(-1.,0.,0.));
#1822=DIRECTION('center_axis',(0.,0.,1.));
#1823=DIRECTION('ref_axis',(1.,0.,0.));
#1824=DIRECTION('',(1.,0.,0.));
#1825=DIRECTION('',(1.,0.,0.));
#1826=DIRECTION('',(0.,-1.,0.));
#1827=DIRECTION('center_axis',(0.,-1.,0.));
#1828=DIRECTION('ref_axis',(0.,0.,-1.));
#1829=DIRECTION('',(0.,0.,-1.));
#1830=DIRECTION('center_axis',(-1.,0.,0.));
#1831=DIRECTION('ref_axis',(0.,0.,1.));
#1832=DIRECTION('',(0.,0.,1.));
#1833=DIRECTION('',(0.,-1.,0.));
#1834=DIRECTION('center_axis',(0.,-1.,0.));
#1835=DIRECTION('ref_axis',(0.,0.,-1.));
#1836=DIRECTION('',(-1.,0.,0.));
#1837=DIRECTION('',(0.,0.,-1.));
#1838=DIRECTION('',(1.,0.,0.));
#1839=DIRECTION('',(0.,0.,-1.));
#1840=DIRECTION('',(-1.,0.,0.));
#1841=DIRECTION('center_axis',(0.,0.,1.));
#1842=DIRECTION('ref_axis',(1.,0.,0.));
#1843=DIRECTION('',(0.,-1.,0.));
#1844=DIRECTION('',(1.,0.,0.));
#1845=DIRECTION('',(0.,1.,0.));
#1846=DIRECTION('center_axis',(0.,0.,1.));
#1847=DIRECTION('ref_axis',(1.,0.,0.));
#1848=DIRECTION('',(0.,-1.,0.));
#1849=DIRECTION('',(-1.,0.,0.));
#1850=DIRECTION('',(0.,1.,0.));
#1851=DIRECTION('center_axis',(0.,1.,0.));
#1852=DIRECTION('ref_axis',(0.,0.,1.));
#1853=DIRECTION('',(0.,0.,-1.));
#1854=DIRECTION('',(0.,0.,-1.));
#1855=DIRECTION('center_axis',(1.,0.,0.));
#1856=DIRECTION('ref_axis',(0.,0.,-1.));
#1857=DIRECTION('center_axis',(-1.,0.,0.));
#1858=DIRECTION('ref_axis',(0.,0.,1.));
#1859=CARTESIAN_POINT('',(0.,0.,0.));
#1860=CARTESIAN_POINT('Origin',(1.75,0.8,1.075));
#1861=CARTESIAN_POINT('',(1.44,0.8,1.4));
#1862=CARTESIAN_POINT('',(2.06,0.8,1.4));
#1863=CARTESIAN_POINT('',(0.875,0.8,1.4));
#1864=CARTESIAN_POINT('',(1.44,0.8,0.7));
#1865=CARTESIAN_POINT('',(1.44,0.8,1.075));
#1866=CARTESIAN_POINT('',(2.06,0.8,0.7));
#1867=CARTESIAN_POINT('',(1.75,0.8,0.7));
#1868=CARTESIAN_POINT('',(2.06,0.8,1.075));
#1869=CARTESIAN_POINT('Origin',(2.06,0.2,1.075));
#1870=CARTESIAN_POINT('',(2.06,-0.4,1.4));
#1871=CARTESIAN_POINT('',(2.06,0.025,1.4));
#1872=CARTESIAN_POINT('',(2.06,-0.4,0.7));
#1873=CARTESIAN_POINT('',(2.06,0.2,0.7));
#1874=CARTESIAN_POINT('',(2.06,-0.4,1.075));
#1875=CARTESIAN_POINT('Origin',(1.75,0.2,0.7));
#1876=CARTESIAN_POINT('',(1.44,-0.4,0.7));
#1877=CARTESIAN_POINT('',(1.44,0.2,0.7));
#1878=CARTESIAN_POINT('',(1.75,-0.4,0.7));
#1879=CARTESIAN_POINT('Origin',(1.75,-0.4,1.075));
#1880=CARTESIAN_POINT('',(1.44,-0.4,1.4));
#1881=CARTESIAN_POINT('',(0.875,-0.4,1.4));
#1882=CARTESIAN_POINT('',(1.44,-0.4,1.075));
#1883=CARTESIAN_POINT('Origin',(1.44,0.2,1.075));
#1884=CARTESIAN_POINT('',(1.44,0.025,1.4));
#1885=CARTESIAN_POINT('Origin',(2.06,-1.755,0.2245));
#1886=CARTESIAN_POINT('',(2.06,-2.3,0.35));
#1887=CARTESIAN_POINT('',(2.06,-2.3,0.1));
#1888=CARTESIAN_POINT('',(2.06,-2.3,0.48725));
#1889=CARTESIAN_POINT('',(2.06,-1.2,0.35));
#1890=CARTESIAN_POINT('',(2.06,-1.755,0.35));
#1891=CARTESIAN_POINT('',(2.06,-1.2,0.1));
#1892=CARTESIAN_POINT('',(2.06,-1.2,0.2245));
#1893=CARTESIAN_POINT('',(2.06,-0.9525,0.1));
#1894=CARTESIAN_POINT('Origin',(1.75,-1.2,0.2245));
#1895=CARTESIAN_POINT('',(1.44,-1.2,0.1));
#1896=CARTESIAN_POINT('',(0.875,-1.2,0.1));
#1897=CARTESIAN_POINT('',(1.44,-1.2,0.35));
#1898=CARTESIAN_POINT('',(1.75,-1.2,0.35));
#1899=CARTESIAN_POINT('',(1.44,-1.2,0.2245));
#1900=CARTESIAN_POINT('Origin',(1.75,-1.755,0.35));
#1901=CARTESIAN_POINT('',(1.44,-2.3,0.35));
#1902=CARTESIAN_POINT('',(0.875,-2.3,0.35));
#1903=CARTESIAN_POINT('',(1.44,-1.755,0.35));
#1904=CARTESIAN_POINT('Origin',(1.44,-1.755,0.2245));
#1905=CARTESIAN_POINT('',(1.44,-2.3,0.1));
#1906=CARTESIAN_POINT('',(1.44,-2.3,0.48725));
#1907=CARTESIAN_POINT('',(1.44,-0.9525,0.1));
#1908=CARTESIAN_POINT('Origin',(0.,-0.15,0.1));
#1909=CARTESIAN_POINT('',(-1.44,-2.3,0.1));
#1910=CARTESIAN_POINT('',(0.,-2.3,0.1));
#1911=CARTESIAN_POINT('',(-1.44,-1.2,0.1));
#1912=CARTESIAN_POINT('',(-1.44,-0.9525,0.1));
#1913=CARTESIAN_POINT('',(-2.06,-1.2,0.1));
#1914=CARTESIAN_POINT('',(-0.875,-1.2,0.1));
#1915=CARTESIAN_POINT('',(-2.06,-2.3,0.1));
#1916=CARTESIAN_POINT('',(-2.06,-0.9525,0.1));
#1917=CARTESIAN_POINT('',(-2.1,-2.3,0.1));
#1918=CARTESIAN_POINT('',(0.,-2.3,0.1));
#1919=CARTESIAN_POINT('',(-2.1,2.,0.1));
#1920=CARTESIAN_POINT('',(-2.1,-0.15,0.1));
#1921=CARTESIAN_POINT('',(2.1,2.,0.1));
#1922=CARTESIAN_POINT('',(0.,2.,0.1));
#1923=CARTESIAN_POINT('',(2.1,-2.3,0.1));
#1924=CARTESIAN_POINT('',(2.1,-0.15,0.1));
#1925=CARTESIAN_POINT('',(0.,-2.3,0.1));
#1926=CARTESIAN_POINT('Origin',(-1.75,0.8,1.075));
#1927=CARTESIAN_POINT('',(-2.06,0.8,1.4));
#1928=CARTESIAN_POINT('',(-1.44,0.8,1.4));
#1929=CARTESIAN_POINT('',(-0.875,0.8,1.4));
#1930=CARTESIAN_POINT('',(-2.06,0.8,0.7));
#1931=CARTESIAN_POINT('',(-2.06,0.8,1.075));
#1932=CARTESIAN_POINT('',(-1.44,0.8,0.7));
#1933=CARTESIAN_POINT('',(-1.75,0.8,0.7));
#1934=CARTESIAN_POINT('',(-1.44,0.8,1.075));
#1935=CARTESIAN_POINT('Origin',(-1.44,0.2,1.075));
#1936=CARTESIAN_POINT('',(-1.44,-0.4,1.4));
#1937=CARTESIAN_POINT('',(-1.44,0.025,1.4));
#1938=CARTESIAN_POINT('',(-1.44,-0.4,0.7));
#1939=CARTESIAN_POINT('',(-1.44,0.2,0.7));
#1940=CARTESIAN_POINT('',(-1.44,-0.4,1.075));
#1941=CARTESIAN_POINT('Origin',(-1.75,0.2,0.7));
#1942=CARTESIAN_POINT('',(-2.06,-0.4,0.7));
#1943=CARTESIAN_POINT('',(-2.06,0.2,0.7));
#1944=CARTESIAN_POINT('',(-1.75,-0.4,0.7));
#1945=CARTESIAN_POINT('Origin',(-1.75,-0.4,1.075));
#1946=CARTESIAN_POINT('',(-2.06,-0.4,1.4));
#1947=CARTESIAN_POINT('',(-0.875,-0.4,1.4));
#1948=CARTESIAN_POINT('',(-2.06,-0.4,1.075));
#1949=CARTESIAN_POINT('Origin',(-2.06,0.2,1.075));
#1950=CARTESIAN_POINT('',(-2.06,0.025,1.4));
#1951=CARTESIAN_POINT('Origin',(-1.75,-1.2,0.2245));
#1952=CARTESIAN_POINT('',(-1.44,-1.2,0.35));
#1953=CARTESIAN_POINT('',(-1.44,-1.2,0.2245));
#1954=CARTESIAN_POINT('',(-2.06,-1.2,0.35));
#1955=CARTESIAN_POINT('',(-1.75,-1.2,0.35));
#1956=CARTESIAN_POINT('',(-2.06,-1.2,0.2245));
#1957=CARTESIAN_POINT('Origin',(-2.06,-1.755,0.2245));
#1958=CARTESIAN_POINT('',(-2.06,-2.3,0.35));
#1959=CARTESIAN_POINT('',(-2.06,-1.755,0.35));
#1960=CARTESIAN_POINT('',(-2.06,-2.3,0.48725));
#1961=CARTESIAN_POINT('Origin',(-1.75,-1.755,0.35));
#1962=CARTESIAN_POINT('',(-1.44,-2.3,0.35));
#1963=CARTESIAN_POINT('',(-0.875,-2.3,0.35));
#1964=CARTESIAN_POINT('',(-1.44,-1.755,0.35));
#1965=CARTESIAN_POINT('Origin',(-1.44,-1.755,0.2245));
#1966=CARTESIAN_POINT('',(-1.44,-2.3,0.48725));
#1967=CARTESIAN_POINT('Origin',(0.,1.81,1.075));
#1968=CARTESIAN_POINT('',(-1.05,1.81,1.4));
#1969=CARTESIAN_POINT('',(1.05,1.81,1.4));
#1970=CARTESIAN_POINT('',(0.,1.81,1.4));
#1971=CARTESIAN_POINT('',(-1.05,1.81,0.7));
#1972=CARTESIAN_POINT('',(-1.05,1.81,1.075));
#1973=CARTESIAN_POINT('',(1.05,1.81,0.7));
#1974=CARTESIAN_POINT('',(0.,1.81,0.7));
#1975=CARTESIAN_POINT('',(1.05,1.81,1.075));
#1976=CARTESIAN_POINT('Origin',(1.05,1.655,1.075));
#1977=CARTESIAN_POINT('',(1.05,1.6,1.4));
#1978=CARTESIAN_POINT('',(1.05,0.7525,1.4));
#1979=CARTESIAN_POINT('',(1.05,1.6,0.7));
#1980=CARTESIAN_POINT('',(1.05,1.655,0.7));
#1981=CARTESIAN_POINT('',(1.05,1.6,0.95));
#1982=CARTESIAN_POINT('Origin',(0.,1.655,0.7));
#1983=CARTESIAN_POINT('',(-1.05,1.6,0.7));
#1984=CARTESIAN_POINT('',(0.,1.6,0.7));
#1985=CARTESIAN_POINT('',(-1.05,1.655,0.7));
#1986=CARTESIAN_POINT('Origin',(-1.05,1.655,1.075));
#1987=CARTESIAN_POINT('',(-1.05,1.6,1.4));
#1988=CARTESIAN_POINT('',(-1.05,0.7525,1.4));
#1989=CARTESIAN_POINT('',(-1.05,1.6,0.95));
#1990=CARTESIAN_POINT('Origin',(0.,-0.15,1.4));
#1991=CARTESIAN_POINT('',(1.32,1.6,1.4));
#1992=CARTESIAN_POINT('',(0.,1.6,1.4));
#1993=CARTESIAN_POINT('',(1.32,-2.3,1.4));
#1994=CARTESIAN_POINT('',(1.32,-0.2525,1.4));
#1995=CARTESIAN_POINT('',(2.1,-2.3,1.4));
#1996=CARTESIAN_POINT('',(0.,-2.3,1.4));
#1997=CARTESIAN_POINT('',(2.1,2.,1.4));
#1998=CARTESIAN_POINT('',(2.1,-0.15,1.4));
#1999=CARTESIAN_POINT('',(-2.1,2.,1.4));
#2000=CARTESIAN_POINT('',(0.,2.,1.4));
#2001=CARTESIAN_POINT('',(-2.1,-2.3,1.4));
#2002=CARTESIAN_POINT('',(-2.1,-0.15,1.4));
#2003=CARTESIAN_POINT('',(-1.32,-2.3,1.4));
#2004=CARTESIAN_POINT('',(0.,-2.3,1.4));
#2005=CARTESIAN_POINT('',(-1.32,1.6,1.4));
#2006=CARTESIAN_POINT('',(-1.32,-0.2525,1.4));
#2007=CARTESIAN_POINT('',(0.,1.6,1.4));
#2008=CARTESIAN_POINT('Origin',(0.,-0.355,0.2));
#2009=CARTESIAN_POINT('',(1.32,-2.3,0.2));
#2010=CARTESIAN_POINT('',(-1.32,-2.3,0.2));
#2011=CARTESIAN_POINT('',(0.,-2.3,0.2));
#2012=CARTESIAN_POINT('',(1.32,1.6,0.2));
#2013=CARTESIAN_POINT('',(1.32,-0.355,0.2));
#2014=CARTESIAN_POINT('',(-1.32,1.6,0.2));
#2015=CARTESIAN_POINT('',(0.,1.6,0.2));
#2016=CARTESIAN_POINT('',(-1.32,-0.355,0.2));
#2017=CARTESIAN_POINT('Origin',(-1.32,-0.355,0.825));
#2018=CARTESIAN_POINT('',(-1.32,-2.3,0.7875));
#2019=CARTESIAN_POINT('',(-1.32,1.6,0.825));
#2020=CARTESIAN_POINT('Origin',(0.,1.6,0.825));
#2021=CARTESIAN_POINT('',(1.32,1.6,0.825));
#2022=CARTESIAN_POINT('Origin',(1.32,-0.355,0.825));
#2023=CARTESIAN_POINT('',(1.32,-2.3,0.7875));
#2024=CARTESIAN_POINT('Origin',(0.,-2.3,0.75));
#2025=CARTESIAN_POINT('',(2.1,-2.3,0.75));
#2026=CARTESIAN_POINT('',(-2.1,-2.3,0.75));
#2027=CARTESIAN_POINT('Origin',(-2.1,-0.15,0.75));
#2028=CARTESIAN_POINT('',(-2.1,2.,0.75));
#2029=CARTESIAN_POINT('Origin',(0.,2.,0.75));
#2030=CARTESIAN_POINT('',(2.1,2.,0.75));
#2031=CARTESIAN_POINT('Origin',(2.1,-0.15,0.75));
#2032=CARTESIAN_POINT('Origin',(-0.8,0.525,0.275));
#2033=CARTESIAN_POINT('',(-0.8,0.4,0.1));
#2034=CARTESIAN_POINT('',(-0.8,0.65,0.1));
#2035=CARTESIAN_POINT('',(-0.8,0.9375,0.1));
#2036=CARTESIAN_POINT('',(-0.8,0.4,0.5));
#2037=CARTESIAN_POINT('',(-0.8,0.4,0.275));
#2038=CARTESIAN_POINT('',(-0.8,0.65,0.5));
#2039=CARTESIAN_POINT('',(-0.8,0.525,0.5));
#2040=CARTESIAN_POINT('',(-0.8,0.65,0.275));
#2041=CARTESIAN_POINT('Origin',(-0.6,0.525,0.5));
#2042=CARTESIAN_POINT('',(-0.4,0.4,0.5));
#2043=CARTESIAN_POINT('',(-0.4,0.65,0.5));
#2044=CARTESIAN_POINT('',(-0.4,0.525,0.5));
#2045=CARTESIAN_POINT('',(-0.6,0.65,0.5));
#2046=CARTESIAN_POINT('',(-0.6,0.4,0.5));
#2047=CARTESIAN_POINT('Origin',(-0.6,0.65,0.275));
#2048=CARTESIAN_POINT('',(-0.4,0.65,0.1));
#2049=CARTESIAN_POINT('',(-0.6,0.65,0.1));
#2050=CARTESIAN_POINT('',(-0.4,0.65,0.275));
#2051=CARTESIAN_POINT('Origin',(-0.4,0.525,0.275));
#2052=CARTESIAN_POINT('',(-0.4,0.4,0.1));
#2053=CARTESIAN_POINT('',(-0.4,0.9375,0.1));
#2054=CARTESIAN_POINT('',(-0.4,0.4,0.275));
#2055=CARTESIAN_POINT('Origin',(-0.6,1.35,0.1));
#2056=CARTESIAN_POINT('',(-0.35,0.4,0.1));
#2057=CARTESIAN_POINT('',(-0.6,0.4,0.1));
#2058=CARTESIAN_POINT('',(-0.35,2.3,0.1));
#2059=CARTESIAN_POINT('',(-0.35,1.35,0.1));
#2060=CARTESIAN_POINT('',(-0.85,2.3,0.1));
#2061=CARTESIAN_POINT('',(-0.6,2.3,0.1));
#2062=CARTESIAN_POINT('',(-0.85,0.4,0.1));
#2063=CARTESIAN_POINT('',(-0.85,1.35,0.1));
#2064=CARTESIAN_POINT('',(-0.6,0.4,0.1));
#2065=CARTESIAN_POINT('Origin',(-0.6,1.35,0.));
#2066=CARTESIAN_POINT('',(-0.35,2.3,0.));
#2067=CARTESIAN_POINT('',(-0.35,0.4,0.));
#2068=CARTESIAN_POINT('',(-0.35,1.35,0.));
#2069=CARTESIAN_POINT('',(-0.85,0.4,0.));
#2070=CARTESIAN_POINT('',(-0.6,0.4,0.));
#2071=CARTESIAN_POINT('',(-0.85,2.3,0.));
#2072=CARTESIAN_POINT('',(-0.85,1.35,0.));
#2073=CARTESIAN_POINT('',(-0.6,2.3,0.));
#2074=CARTESIAN_POINT('Origin',(-0.6,0.4,0.05));
#2075=CARTESIAN_POINT('',(-0.85,0.4,0.05));
#2076=CARTESIAN_POINT('',(-0.35,0.4,0.05));
#2077=CARTESIAN_POINT('Origin',(-0.85,1.35,0.05));
#2078=CARTESIAN_POINT('',(-0.85,2.3,0.05));
#2079=CARTESIAN_POINT('Origin',(-0.6,2.3,0.05));
#2080=CARTESIAN_POINT('',(-0.35,2.3,0.05));
#2081=CARTESIAN_POINT('Origin',(-0.35,1.35,0.05));
#2082=CARTESIAN_POINT('Origin',(0.4,0.525,0.275));
#2083=CARTESIAN_POINT('',(0.4,0.4,0.1));
#2084=CARTESIAN_POINT('',(0.4,0.65,0.1));
#2085=CARTESIAN_POINT('',(0.4,0.9375,0.1));
#2086=CARTESIAN_POINT('',(0.4,0.4,0.5));
#2087=CARTESIAN_POINT('',(0.4,0.4,0.275));
#2088=CARTESIAN_POINT('',(0.4,0.65,0.5));
#2089=CARTESIAN_POINT('',(0.4,0.525,0.5));
#2090=CARTESIAN_POINT('',(0.4,0.65,0.275));
#2091=CARTESIAN_POINT('Origin',(0.6,0.525,0.5));
#2092=CARTESIAN_POINT('',(0.8,0.4,0.5));
#2093=CARTESIAN_POINT('',(0.8,0.65,0.5));
#2094=CARTESIAN_POINT('',(0.8,0.525,0.5));
#2095=CARTESIAN_POINT('',(0.6,0.65,0.5));
#2096=CARTESIAN_POINT('',(0.6,0.4,0.5));
#2097=CARTESIAN_POINT('Origin',(0.6,0.65,0.275));
#2098=CARTESIAN_POINT('',(0.8,0.65,0.1));
#2099=CARTESIAN_POINT('',(0.6,0.65,0.1));
#2100=CARTESIAN_POINT('',(0.8,0.65,0.275));
#2101=CARTESIAN_POINT('Origin',(0.8,0.525,0.275));
#2102=CARTESIAN_POINT('',(0.8,0.4,0.1));
#2103=CARTESIAN_POINT('',(0.8,0.9375,0.1));
#2104=CARTESIAN_POINT('',(0.8,0.4,0.275));
#2105=CARTESIAN_POINT('Origin',(0.6,1.35,0.1));
#2106=CARTESIAN_POINT('',(0.85,0.4,0.1));
#2107=CARTESIAN_POINT('',(0.6,0.4,0.1));
#2108=CARTESIAN_POINT('',(0.85,2.3,0.1));
#2109=CARTESIAN_POINT('',(0.85,1.35,0.1));
#2110=CARTESIAN_POINT('',(0.35,2.3,0.1));
#2111=CARTESIAN_POINT('',(0.6,2.3,0.1));
#2112=CARTESIAN_POINT('',(0.35,0.4,0.1));
#2113=CARTESIAN_POINT('',(0.35,1.35,0.1));
#2114=CARTESIAN_POINT('',(0.6,0.4,0.1));
#2115=CARTESIAN_POINT('Origin',(0.6,1.35,0.));
#2116=CARTESIAN_POINT('',(0.85,2.3,0.));
#2117=CARTESIAN_POINT('',(0.85,0.4,0.));
#2118=CARTESIAN_POINT('',(0.85,1.35,0.));
#2119=CARTESIAN_POINT('',(0.35,0.4,0.));
#2120=CARTESIAN_POINT('',(0.6,0.4,0.));
#2121=CARTESIAN_POINT('',(0.35,2.3,0.));
#2122=CARTESIAN_POINT('',(0.35,1.35,0.));
#2123=CARTESIAN_POINT('',(0.6,2.3,0.));
#2124=CARTESIAN_POINT('Origin',(0.6,0.4,0.05));
#2125=CARTESIAN_POINT('',(0.35,0.4,0.05));
#2126=CARTESIAN_POINT('',(0.85,0.4,0.05));
#2127=CARTESIAN_POINT('Origin',(0.35,1.35,0.05));
#2128=CARTESIAN_POINT('',(0.35,2.3,0.05));
#2129=CARTESIAN_POINT('Origin',(0.6,2.3,0.05));
#2130=CARTESIAN_POINT('',(0.85,2.3,0.05));
#2131=CARTESIAN_POINT('Origin',(0.85,1.35,0.05));
#2132=CARTESIAN_POINT('Origin',(-1.99,-0.925,0.21));
#2133=CARTESIAN_POINT('',(-1.99,-1.5,0.12));
#2134=CARTESIAN_POINT('',(-1.99,-1.5,0.07));
#2135=CARTESIAN_POINT('',(-1.99,-1.5,0.135));
#2136=CARTESIAN_POINT('',(-1.99,-1.55,0.12));
#2137=CARTESIAN_POINT('',(-1.99,-1.4125,0.12));
#2138=CARTESIAN_POINT('',(-1.99,-1.55,0.35));
#2139=CARTESIAN_POINT('',(-1.99,-1.55,0.21));
#2140=CARTESIAN_POINT('',(-1.99,-0.3,0.35));
#2141=CARTESIAN_POINT('',(-1.99,-0.925,0.35));
#2142=CARTESIAN_POINT('',(-1.99,-0.3,0.07));
#2143=CARTESIAN_POINT('',(-1.99,-0.3,0.21));
#2144=CARTESIAN_POINT('',(-1.99,-0.925,0.07));
#2145=CARTESIAN_POINT('Origin',(-1.75,-1.55,0.21));
#2146=CARTESIAN_POINT('',(-1.51,-1.55,0.12));
#2147=CARTESIAN_POINT('',(-1.75,-1.55,0.12));
#2148=CARTESIAN_POINT('',(-1.51,-1.55,0.35));
#2149=CARTESIAN_POINT('',(-1.51,-1.55,0.21));
#2150=CARTESIAN_POINT('',(-1.75,-1.55,0.35));
#2151=CARTESIAN_POINT('Origin',(-1.75,-0.925,0.35));
#2152=CARTESIAN_POINT('',(-1.51,-0.3,0.35));
#2153=CARTESIAN_POINT('',(-1.51,-0.925,0.35));
#2154=CARTESIAN_POINT('',(-1.75,-0.3,0.35));
#2155=CARTESIAN_POINT('Origin',(-1.75,-0.925,0.07));
#2156=CARTESIAN_POINT('',(-1.51,-1.5,0.07));
#2157=CARTESIAN_POINT('',(-1.75,-1.5,0.07));
#2158=CARTESIAN_POINT('',(-1.51,-0.3,0.07));
#2159=CARTESIAN_POINT('',(-1.75,-0.3,0.07));
#2160=CARTESIAN_POINT('',(-1.51,-0.925,0.07));
#2161=CARTESIAN_POINT('Origin',(-1.75,-0.3,0.21));
#2162=CARTESIAN_POINT('',(-1.51,-0.3,0.21));
#2163=CARTESIAN_POINT('Origin',(-1.51,-0.925,0.21));
#2164=CARTESIAN_POINT('',(-1.51,-1.5,0.12));
#2165=CARTESIAN_POINT('',(-1.51,-1.5,0.135));
#2166=CARTESIAN_POINT('',(-1.51,-1.4125,0.12));
#2167=CARTESIAN_POINT('Origin',(-1.75,-1.5,0.06));
#2168=CARTESIAN_POINT('',(-1.45,-1.5,0.12));
#2169=CARTESIAN_POINT('',(-1.75,-1.5,0.12));
#2170=CARTESIAN_POINT('',(-1.45,-1.5,0.));
#2171=CARTESIAN_POINT('',(-1.45,-1.5,0.06));
#2172=CARTESIAN_POINT('',(-2.05,-1.5,0.));
#2173=CARTESIAN_POINT('',(-1.75,-1.5,0.));
#2174=CARTESIAN_POINT('',(-2.05,-1.5,0.12));
#2175=CARTESIAN_POINT('',(-2.05,-1.5,0.06));
#2176=CARTESIAN_POINT('',(-1.75,-1.5,0.12));
#2177=CARTESIAN_POINT('Origin',(-1.75,-1.9,0.12));
#2178=CARTESIAN_POINT('',(-2.05,-2.3,0.12));
#2179=CARTESIAN_POINT('',(-2.05,-1.9,0.12));
#2180=CARTESIAN_POINT('',(-1.45,-2.3,0.12));
#2181=CARTESIAN_POINT('',(-1.75,-2.3,0.12));
#2182=CARTESIAN_POINT('',(-1.45,-1.9,0.12));
#2183=CARTESIAN_POINT('Origin',(-1.75,-1.9,0.));
#2184=CARTESIAN_POINT('',(-1.45,-2.3,0.));
#2185=CARTESIAN_POINT('',(-1.45,-1.9,0.));
#2186=CARTESIAN_POINT('',(-2.05,-2.3,0.));
#2187=CARTESIAN_POINT('',(-1.75,-2.3,0.));
#2188=CARTESIAN_POINT('',(-2.05,-1.9,0.));
#2189=CARTESIAN_POINT('Origin',(-1.75,-2.3,0.06));
#2190=CARTESIAN_POINT('',(-2.05,-2.3,0.06));
#2191=CARTESIAN_POINT('',(-1.45,-2.3,0.06));
#2192=CARTESIAN_POINT('Origin',(-2.05,-1.9,0.06));
#2193=CARTESIAN_POINT('Origin',(-1.45,-1.9,0.06));
#2194=CARTESIAN_POINT('Origin',(1.51,-0.925,0.21));
#2195=CARTESIAN_POINT('',(1.51,-1.5,0.12));
#2196=CARTESIAN_POINT('',(1.51,-1.5,0.07));
#2197=CARTESIAN_POINT('',(1.51,-1.5,0.135));
#2198=CARTESIAN_POINT('',(1.51,-1.55,0.12));
#2199=CARTESIAN_POINT('',(1.51,-1.4125,0.12));
#2200=CARTESIAN_POINT('',(1.51,-1.55,0.35));
#2201=CARTESIAN_POINT('',(1.51,-1.55,0.21));
#2202=CARTESIAN_POINT('',(1.51,-0.3,0.35));
#2203=CARTESIAN_POINT('',(1.51,-0.925,0.35));
#2204=CARTESIAN_POINT('',(1.51,-0.3,0.07));
#2205=CARTESIAN_POINT('',(1.51,-0.3,0.21));
#2206=CARTESIAN_POINT('',(1.51,-0.925,0.07));
#2207=CARTESIAN_POINT('Origin',(1.75,-1.55,0.21));
#2208=CARTESIAN_POINT('',(1.99,-1.55,0.12));
#2209=CARTESIAN_POINT('',(1.75,-1.55,0.12));
#2210=CARTESIAN_POINT('',(1.99,-1.55,0.35));
#2211=CARTESIAN_POINT('',(1.99,-1.55,0.21));
#2212=CARTESIAN_POINT('',(1.75,-1.55,0.35));
#2213=CARTESIAN_POINT('Origin',(1.75,-0.925,0.35));
#2214=CARTESIAN_POINT('',(1.99,-0.3,0.35));
#2215=CARTESIAN_POINT('',(1.99,-0.925,0.35));
#2216=CARTESIAN_POINT('',(1.75,-0.3,0.35));
#2217=CARTESIAN_POINT('Origin',(1.75,-0.925,0.07));
#2218=CARTESIAN_POINT('',(1.99,-1.5,0.07));
#2219=CARTESIAN_POINT('',(1.75,-1.5,0.07));
#2220=CARTESIAN_POINT('',(1.99,-0.3,0.07));
#2221=CARTESIAN_POINT('',(1.75,-0.3,0.07));
#2222=CARTESIAN_POINT('',(1.99,-0.925,0.07));
#2223=CARTESIAN_POINT('Origin',(1.75,-0.3,0.21));
#2224=CARTESIAN_POINT('',(1.99,-0.3,0.21));
#2225=CARTESIAN_POINT('Origin',(1.99,-0.925,0.21));
#2226=CARTESIAN_POINT('',(1.99,-1.5,0.12));
#2227=CARTESIAN_POINT('',(1.99,-1.5,0.135));
#2228=CARTESIAN_POINT('',(1.99,-1.4125,0.12));
#2229=CARTESIAN_POINT('Origin',(1.75,-1.5,0.06));
#2230=CARTESIAN_POINT('',(2.05,-1.5,0.12));
#2231=CARTESIAN_POINT('',(1.75,-1.5,0.12));
#2232=CARTESIAN_POINT('',(2.05,-1.5,0.));
#2233=CARTESIAN_POINT('',(2.05,-1.5,0.06));
#2234=CARTESIAN_POINT('',(1.45,-1.5,0.));
#2235=CARTESIAN_POINT('',(1.75,-1.5,0.));
#2236=CARTESIAN_POINT('',(1.45,-1.5,0.12));
#2237=CARTESIAN_POINT('',(1.45,-1.5,0.06));
#2238=CARTESIAN_POINT('',(1.75,-1.5,0.12));
#2239=CARTESIAN_POINT('Origin',(1.75,-1.9,0.12));
#2240=CARTESIAN_POINT('',(1.45,-2.3,0.12));
#2241=CARTESIAN_POINT('',(1.45,-1.9,0.12));
#2242=CARTESIAN_POINT('',(2.05,-2.3,0.12));
#2243=CARTESIAN_POINT('',(1.75,-2.3,0.12));
#2244=CARTESIAN_POINT('',(2.05,-1.9,0.12));
#2245=CARTESIAN_POINT('Origin',(1.75,-1.9,0.));
#2246=CARTESIAN_POINT('',(2.05,-2.3,0.));
#2247=CARTESIAN_POINT('',(2.05,-1.9,0.));
#2248=CARTESIAN_POINT('',(1.45,-2.3,0.));
#2249=CARTESIAN_POINT('',(1.75,-2.3,0.));
#2250=CARTESIAN_POINT('',(1.45,-1.9,0.));
#2251=CARTESIAN_POINT('Origin',(1.75,-2.3,0.06));
#2252=CARTESIAN_POINT('',(1.45,-2.3,0.06));
#2253=CARTESIAN_POINT('',(2.05,-2.3,0.06));
#2254=CARTESIAN_POINT('Origin',(1.45,-1.9,0.06));
#2255=CARTESIAN_POINT('Origin',(2.05,-1.9,0.06));
#2256=UNCERTAINTY_MEASURE_WITH_UNIT(LENGTH_MEASURE(0.01),#2260,
'DISTANCE_ACCURACY_VALUE',
'Maximum model space distance between geometric entities at asserted c
onnectivities');
#2257=UNCERTAINTY_MEASURE_WITH_UNIT(LENGTH_MEASURE(0.01),#2260,
'DISTANCE_ACCURACY_VALUE',
'Maximum model space distance between geometric entities at asserted c
onnectivities');
#2258=(
GEOMETRIC_REPRESENTATION_CONTEXT(3)
GLOBAL_UNCERTAINTY_ASSIGNED_CONTEXT((#2256))
GLOBAL_UNIT_ASSIGNED_CONTEXT((#2260,#2262,#2263))
REPRESENTATION_CONTEXT('','3D')
);
#2259=(
GEOMETRIC_REPRESENTATION_CONTEXT(3)
GLOBAL_UNCERTAINTY_ASSIGNED_CONTEXT((#2257))
GLOBAL_UNIT_ASSIGNED_CONTEXT((#2260,#2262,#2263))
REPRESENTATION_CONTEXT('','3D')
);
#2260=(
LENGTH_UNIT()
NAMED_UNIT(*)
SI_UNIT(.MILLI.,.METRE.)
);
#2261=(
LENGTH_UNIT()
NAMED_UNIT(*)
SI_UNIT($,.METRE.)
);
#2262=(
NAMED_UNIT(*)
PLANE_ANGLE_UNIT()
SI_UNIT($,.RADIAN.)
);
#2263=(
NAMED_UNIT(*)
SI_UNIT($,.STERADIAN.)
SOLID_ANGLE_UNIT()
);
#2264=SHAPE_DEFINITION_REPRESENTATION(#2265,#2266);
#2265=PRODUCT_DEFINITION_SHAPE('',$,#2268);
#2266=SHAPE_REPRESENTATION('',(#1436),#2258);
#2267=PRODUCT_DEFINITION_CONTEXT('part definition',#2272,'design');
#2268=PRODUCT_DEFINITION('2026-10-01-13-23-25-413',
'J4 JST BM02B-ACHSS-GAN-ETF - drawing model',#2269,#2267);
#2269=PRODUCT_DEFINITION_FORMATION('',$,#2274);
#2270=PRODUCT_RELATED_PRODUCT_CATEGORY(
'J4 JST BM02B-ACHSS-GAN-ETF - drawing model',
'J4 JST BM02B-ACHSS-GAN-ETF - drawing model',(#2274));
#2271=APPLICATION_PROTOCOL_DEFINITION('international standard',
'automotive_design',2009,#2272);
#2272=APPLICATION_CONTEXT(
'Core Data for Automotive Mechanical Design Process');
#2273=PRODUCT_CONTEXT('part definition',#2272,'mechanical');
#2274=PRODUCT('2026-10-01-13-23-25-413',
'J4 JST BM02B-ACHSS-GAN-ETF - drawing model',$,(#2273));
#2275=PRESENTATION_STYLE_ASSIGNMENT((#2279));
#2276=PRESENTATION_STYLE_ASSIGNMENT((#2280));
#2277=PRESENTATION_STYLE_ASSIGNMENT((#2281));
#2278=PRESENTATION_STYLE_ASSIGNMENT((#2282));
#2279=SURFACE_STYLE_USAGE(.BOTH.,#2283);
#2280=SURFACE_STYLE_USAGE(.BOTH.,#2284);
#2281=SURFACE_STYLE_USAGE(.BOTH.,#2285);
#2282=SURFACE_STYLE_USAGE(.BOTH.,#2286);
#2283=SURFACE_SIDE_STYLE('',(#2287));
#2284=SURFACE_SIDE_STYLE('',(#2288));
#2285=SURFACE_SIDE_STYLE('',(#2289));
#2286=SURFACE_SIDE_STYLE('',(#2290));
#2287=SURFACE_STYLE_FILL_AREA(#2291);
#2288=SURFACE_STYLE_FILL_AREA(#2292);
#2289=SURFACE_STYLE_FILL_AREA(#2293);
#2290=SURFACE_STYLE_FILL_AREA(#2294);
#2291=FILL_AREA_STYLE('Steel - Satin',(#2295));
#2292=FILL_AREA_STYLE('JST ACH ivory - drawing model',(#2296));
#2293=FILL_AREA_STYLE('JST ACH contacts - drawing model',(#2297));
#2294=FILL_AREA_STYLE('JST ACH solder tabs - drawing model',(#2298));
#2295=FILL_AREA_STYLE_COLOUR('Steel - Satin',#2299);
#2296=FILL_AREA_STYLE_COLOUR('JST ACH ivory - drawing model',#2300);
#2297=FILL_AREA_STYLE_COLOUR('JST ACH contacts - drawing model',#2301);
#2298=FILL_AREA_STYLE_COLOUR('JST ACH solder tabs - drawing model',#2302);
#2299=COLOUR_RGB('Steel - Satin',0.627450980392157,0.627450980392157,0.627450980392157);
#2300=COLOUR_RGB('JST ACH ivory - drawing model',0.92156862745098,0.909803921568627,
0.847058823529412);
#2301=COLOUR_RGB('JST ACH contacts - drawing model',0.788235294117647,0.627450980392157,
0.223529411764706);
#2302=COLOUR_RGB('JST ACH solder tabs - drawing model',0.63921568627451,
0.666666666666667,0.698039215686274);
ENDSEC;
END-ISO-10303-21;
