<svg xmlns="http://www.w3.org/2000/svg" width="0" height="0" style="position:absolute" aria-hidden="true">
  <!-- 24 × 24 stroke icons. Use: <svg><use href="#i-tent"/></svg>; colour = currentColor. -->
  <defs>
    <g id="icon-style" fill="none" stroke="currentColor" stroke-width="1.8" stroke-linecap="round" stroke-linejoin="round"></g>
  </defs>
  <symbol id="i-search" viewBox="0 0 24 24" fill="none" stroke="currentColor" stroke-width="1.8" stroke-linecap="round" stroke-linejoin="round"><circle cx="10.5" cy="10.5" r="6"/><path d="M15 15l5 5"/></symbol>
  <symbol id="i-tent" viewBox="0 0 24 24" fill="none" stroke="currentColor" stroke-width="1.8" stroke-linecap="round" stroke-linejoin="round"><path d="M3 20h18"/><path d="M12 4L4 20"/><path d="M12 4l8 16"/><path d="M12 13l-3 7h6z"/></symbol>
  <symbol id="i-bed" viewBox="0 0 24 24" fill="none" stroke="currentColor" stroke-width="1.8" stroke-linecap="round" stroke-linejoin="round"><path d="M3 18V7"/><path d="M3 14h18v4"/><path d="M21 14v-2.5A2.5 2.5 0 0 0 18.5 9H11v5"/><circle cx="7" cy="11" r="1.6"/></symbol>
  <symbol id="i-cart" viewBox="0 0 24 24" fill="none" stroke="currentColor" stroke-width="1.8" stroke-linecap="round" stroke-linejoin="round"><path d="M3 4h2l2.2 10.5a1.5 1.5 0 0 0 1.5 1.2h8.6a1.5 1.5 0 0 0 1.5-1.1L20.5 8H6"/><circle cx="9.5" cy="19.5" r="1.3"/><circle cx="17" cy="19.5" r="1.3"/></symbol>
  <symbol id="i-drop" viewBox="0 0 24 24" fill="none" stroke="currentColor" stroke-width="1.8" stroke-linecap="round" stroke-linejoin="round"><path d="M12 3.5c3.5 4.4 5.5 7.6 5.5 10.2a5.5 5.5 0 0 1-11 0c0-2.6 2-5.8 5.5-10.2z"/></symbol>
  <symbol id="i-cross" viewBox="0 0 24 24" fill="none" stroke="currentColor" stroke-width="1.8" stroke-linecap="round" stroke-linejoin="round"><path d="M9.5 4h5v5.5H20v5h-5.5V20h-5v-5.5H4v-5h5.5z"/></symbol>
  <symbol id="i-wrench" viewBox="0 0 24 24" fill="none" stroke="currentColor" stroke-width="1.8" stroke-linecap="round" stroke-linejoin="round"><path d="M14.5 5.5a4 4 0 0 0 4.8 5.3L20 11.5l-8.5 8.5a2.1 2.1 0 0 1-3-3L17 8.5l.7.7"/><path d="M14.5 5.5l2.2 2.2"/></symbol>
  <symbol id="i-train" viewBox="0 0 24 24" fill="none" stroke="currentColor" stroke-width="1.8" stroke-linecap="round" stroke-linejoin="round"><rect x="6" y="3.5" width="12" height="13" rx="3"/><path d="M6 11h12"/><path d="M8.5 20.5l1.5-4M15.5 20.5l-1.5-4"/><circle cx="9" cy="14" r=".6"/><circle cx="15" cy="14" r=".6"/></symbol>
  <symbol id="i-flag" viewBox="0 0 24 24" fill="none" stroke="currentColor" stroke-width="1.8" stroke-linecap="round" stroke-linejoin="round"><path d="M6 21V4"/><path d="M6 4h11l-2.5 4L17 12H6"/></symbol>
  <symbol id="i-ring" viewBox="0 0 24 24" fill="none" stroke="currentColor" stroke-width="2.2"><circle cx="12" cy="12" r="6"/></symbol>
  <symbol id="i-dot" viewBox="0 0 24 24" fill="currentColor"><circle cx="12" cy="12" r="3.5"/></symbol>
  <symbol id="i-undo" viewBox="0 0 24 24" fill="none" stroke="currentColor" stroke-width="1.8" stroke-linecap="round" stroke-linejoin="round"><path d="M9 7L4.5 11.5 9 16"/><path d="M4.5 11.5H15a4.5 4.5 0 0 1 0 9h-2"/></symbol>
  <symbol id="i-redo" viewBox="0 0 24 24" fill="none" stroke="currentColor" stroke-width="1.8" stroke-linecap="round" stroke-linejoin="round"><path d="M15 7l4.5 4.5L15 16"/><path d="M19.5 11.5H9a4.5 4.5 0 0 0 0 9h2"/></symbol>
  <symbol id="i-versions" viewBox="0 0 24 24" fill="none" stroke="currentColor" stroke-width="1.8" stroke-linecap="round" stroke-linejoin="round"><circle cx="12" cy="12" r="8"/><path d="M12 7.5V12l3 2"/></symbol>
  <symbol id="i-import" viewBox="0 0 24 24" fill="none" stroke="currentColor" stroke-width="1.8" stroke-linecap="round" stroke-linejoin="round"><path d="M12 3.5v11"/><path d="M8 10.5l4 4 4-4"/><path d="M4.5 15.5v3a2 2 0 0 0 2 2h11a2 2 0 0 0 2-2v-3"/></symbol>
  <symbol id="i-download" viewBox="0 0 24 24" fill="none" stroke="currentColor" stroke-width="1.8" stroke-linecap="round" stroke-linejoin="round"><path d="M7 17.5a4.5 4.5 0 0 1-.6-9A6 6 0 0 1 18 9a4 4 0 0 1-.5 8.5"/><path d="M12 11v9"/><path d="M9 17l3 3 3-3"/></symbol>
  <symbol id="i-qr" viewBox="0 0 24 24" fill="none" stroke="currentColor" stroke-width="1.8" stroke-linecap="round" stroke-linejoin="round"><rect x="4" y="4" width="6" height="6" rx="1"/><rect x="14" y="4" width="6" height="6" rx="1"/><rect x="4" y="14" width="6" height="6" rx="1"/><path d="M14 14h2v2M20 14v6h-6v-2M17 17v0"/></symbol>
  <symbol id="i-device" viewBox="0 0 24 24" fill="none" stroke="currentColor" stroke-width="1.8" stroke-linecap="round" stroke-linejoin="round"><rect x="6.5" y="2.5" width="11" height="19" rx="2.5"/><rect x="8.5" y="5" width="7" height="9" rx=".8"/><path d="M10 17.5h4"/></symbol>
  <symbol id="i-layers" viewBox="0 0 24 24" fill="none" stroke="currentColor" stroke-width="1.8" stroke-linecap="round" stroke-linejoin="round"><path d="M12 4l8.5 4.5L12 13 3.5 8.5z"/><path d="M3.5 12.5L12 17l8.5-4.5"/><path d="M3.5 16.5L12 21l8.5-4.5"/></symbol>
  <symbol id="i-chev-r" viewBox="0 0 24 24" fill="none" stroke="currentColor" stroke-width="2" stroke-linecap="round" stroke-linejoin="round"><path d="M9.5 6l6 6-6 6"/></symbol>
  <symbol id="i-chev-l" viewBox="0 0 24 24" fill="none" stroke="currentColor" stroke-width="2" stroke-linecap="round" stroke-linejoin="round"><path d="M14.5 6l-6 6 6 6"/></symbol>
  <symbol id="i-chev-d" viewBox="0 0 24 24" fill="none" stroke="currentColor" stroke-width="2" stroke-linecap="round" stroke-linejoin="round"><path d="M6 9.5l6 6 6-6"/></symbol>
  <symbol id="i-close" viewBox="0 0 24 24" fill="none" stroke="currentColor" stroke-width="1.8" stroke-linecap="round"><path d="M6.5 6.5l11 11M17.5 6.5l-11 11"/></symbol>
  <symbol id="i-mountain" viewBox="0 0 24 24" fill="none" stroke="currentColor" stroke-width="1.8" stroke-linecap="round" stroke-linejoin="round"><path d="M3 19.5L9.5 7l4 7 2-3 5.5 8.5z"/><path d="M7.7 10.5l1.8 1.5 1.6-1.4"/></symbol>
  <symbol id="i-route" viewBox="0 0 24 24" fill="none" stroke="currentColor" stroke-width="1.8" stroke-linecap="round" stroke-linejoin="round"><circle cx="6" cy="18" r="2.2"/><circle cx="18" cy="6" r="2.2"/><path d="M8 17.2h6.5a3.2 3.2 0 0 0 0-6.4h-5a3.2 3.2 0 0 1 0-6.4H16"/></symbol>
  <symbol id="i-here" viewBox="0 0 24 24" fill="none" stroke="currentColor" stroke-width="1.8" stroke-linecap="round" stroke-linejoin="round"><path d="M20 4L4 11l7 2 2 7z"/></symbol>
  <symbol id="i-plus" viewBox="0 0 24 24" fill="none" stroke="currentColor" stroke-width="2" stroke-linecap="round"><path d="M12 5v14M5 12h14"/></symbol>
  <symbol id="i-more" viewBox="0 0 24 24" fill="currentColor"><circle cx="6" cy="12" r="1.7"/><circle cx="12" cy="12" r="1.7"/><circle cx="18" cy="12" r="1.7"/></symbol>
  <symbol id="i-snow" viewBox="0 0 24 24" fill="none" stroke="currentColor" stroke-width="1.8" stroke-linecap="round" stroke-linejoin="round"><path d="M12 3v18M4.2 7.5l15.6 9M4.2 16.5l15.6-9"/><path d="M9.5 4.5L12 6.5l2.5-2M9.5 19.5L12 17.5l2.5 2"/></symbol>
  <symbol id="i-bike" viewBox="0 0 24 24" fill="none" stroke="currentColor" stroke-width="1.8" stroke-linecap="round" stroke-linejoin="round"><circle cx="5.5" cy="16" r="3.5"/><circle cx="18.5" cy="16" r="3.5"/><path d="M5.5 16l4-7h6l3 7M9.5 9l3 7h-7M13.5 6.5h3"/></symbol>
  <symbol id="i-sliders" viewBox="0 0 24 24" fill="none" stroke="currentColor" stroke-width="1.8" stroke-linecap="round"><path d="M4 7h10M18 7h2M4 17h4M12 17h8"/><circle cx="16" cy="7" r="2"/><circle cx="10" cy="17" r="2"/></symbol>
  <symbol id="i-send" viewBox="0 0 24 24" fill="none" stroke="currentColor" stroke-width="1.8" stroke-linecap="round" stroke-linejoin="round"><path d="M12 15V3.5"/><path d="M8 7.5l4-4 4 4"/><path d="M5 12.5v6a2 2 0 0 0 2 2h10a2 2 0 0 0 2-2v-6"/></symbol>
  <symbol id="i-calendar" viewBox="0 0 24 24" fill="none" stroke="currentColor" stroke-width="1.8" stroke-linecap="round" stroke-linejoin="round"><rect x="4" y="5.5" width="16" height="14.5" rx="2"/><path d="M4 10h16M8.5 3.5v4M15.5 3.5v4"/></symbol>
  <symbol id="i-offline" viewBox="0 0 24 24" fill="none" stroke="currentColor" stroke-width="1.8" stroke-linecap="round" stroke-linejoin="round"><path d="M3.5 3.5l17 17"/><path d="M8.5 5.8A11 11 0 0 1 21 9M3 9a11 11 0 0 1 2.4-1.7M6.5 12.5a6.5 6.5 0 0 1 3-1.6M17.5 12.5a6.5 6.5 0 0 0-1.2-.9M10 16a3 3 0 0 1 4 0"/></symbol>
  <symbol id="i-info" viewBox="0 0 24 24" fill="none" stroke="currentColor" stroke-width="1.8" stroke-linecap="round"><circle cx="12" cy="12" r="8.5"/><path d="M12 11v5.5M12 7.7v.1"/></symbol>
  <symbol id="i-pencil" viewBox="0 0 24 24" fill="none" stroke="currentColor" stroke-width="1.8" stroke-linecap="round" stroke-linejoin="round"><path d="M4 20l1-4L16 5a2.1 2.1 0 0 1 3 3L8 19z"/><path d="M14 7l3 3"/></symbol>
  <symbol id="i-straight" viewBox="0 0 24 24" fill="none" stroke="currentColor" stroke-width="1.8" stroke-linecap="round"><circle cx="5" cy="19" r="1.8"/><circle cx="19" cy="5" r="1.8"/><path d="M6.5 17.5l11-11" stroke-dasharray="2 3"/></symbol>
</svg>
